<?xml version="1.0" encoding="UTF-8"?>
<svg id="b" data-name="Layer 2" xmlns="http://www.w3.org/2000/svg" viewBox="0 0 500.55 531.91">
  <defs>
    <style>
      .d {
        fill: #4b768b;
      }

      .d, .e, .f, .g, .h, .i, .j, .k, .l, .m, .n, .o, .p {
        stroke-width: 0px;
      }

      .e {
        fill: #4f7c96;
      }

      .f {
        fill: #65c9e9;
      }

      .g {
        fill: #0f2732;
      }

      .h {
        fill: #bfd5de;
      }

      .i {
        fill: #5d8fa3;
      }

      .j {
        fill: #92c0d0;
      }

      .k {
        fill: #102631;
      }

      .l {
        fill: #122d39;
      }

      .m {
        fill: #518199;
      }

      .n {
        fill: #3dbce7;
      }

      .o {
        fill: #508393;
      }

      .p {
        fill: #67c4db;
      }
    </style>
  </defs>
  <g id="c" data-name="Layer 1">
    <g>
      <path class="g" d="m41.69,201.52c10.08-.18,20.16-.3,30.23-.57,13.04-.35,26.08-.81,39.13-.9,16.42-.12,32.84-.52,49.25-.64,11.21-.08,22.43.1,33.64.18.64,0,1.28.21,1.93.32-4.82,11.05-8.2,22.52-10.21,34.39-.32,1.86-1.34,4.15-.63,5.49.84,1.57,3.45.32,5.25.75.55.13,1.12.16,1.68.27,2.47.47,3.6-.27,4.17-3.02,2.66-12.91,6.72-25.39,12.25-37.38,2.82-5.3,5.55-10.66,9.26-15.99-6.12-.34-11.95-.76-17.79-.99-27.9-1.1-55.82-1.55-83.74-1-21.56.43-43.13.91-64.65,2.5-1.78.13-3.58.15-5.37.06-3.19-.16-5.38-2.02-6.01-4.91-.52-2.37,1.29-5.73,3.73-7.01,1.71-.9,3.54-1.12,5.44-1.2,14.9-.58,29.79-1.41,44.7-1.73,16.24-.35,32.49-.23,48.73-.32,3.62-.02,7.23-.06,10.85,0,.98.02,1.59-.24,2.05-1.12,2.5-4.78,5.19-9.46,8.4-13.8,1.3-1.76.54-2.02-1.14-1.92-8.17.51-16.35.93-24.51,1.52-9.27.67-18.53,1.53-27.81,2.2-13.66.99-27.32,1.91-40.99,2.78-2.96.19-6,.54-7.95-2.72-2.64-4.41-.14-9.18,5.02-9.76,14.77-1.66,29.61-2.43,44.4-3.77,14.63-1.33,29.28-2.44,43.9-3.83,12.39-1.18,24.75-2.7,37.14-3.92,12.62-1.24,25.27-2.31,37.9-3.42,5.96-.53,11.91-1.14,17.9-1.13.12,1.05-.77,1.48-1.34,2.04-2.86,2.76-5.85,5.39-8.64,8.21-7.09,7.16-13.78,14.69-19.82,22.76-2.6,3.48-4.73,7.32-7.13,10.96-1.08,1.64-.57,2.06,1.2,2.06,2.65,0,5.31.06,7.96.3,1.52.14,2.35-.35,3.22-1.61,7.81-11.41,17.48-21.1,28.22-29.73,11-8.83,23.16-15.75,36.14-21.23,1.17-.49,1.53-2.1,3.2-1.8,1.52.27,2.95-.41,4.23-1.28.18-.05.37-.11.55-.16.36-.07.72-.14,1.08-.21.47-.07.96-.06,1.4-.21,17.49-6.01,35.43-8.32,53.88-6.73,12.09,1.04,23.8,3.59,35.17,7.84,6.09,2.28,11.77,5.42,17.7,8.03,4.27,2.59,8.56,5.15,12.59,8.13.14.13.31.17.5.14v-.04c.21.55.59.76,1.17.58l-.08.04c.23.28.41.64.69.84,7.22,5.28,13.58,11.5,19.76,17.93,3.17,3.88,6.42,7.68,9.48,11.64,4.03,5.23,7.91,10.58,11.86,15.87.92,1.87,2.75,2.31,4.1,1.3,1.48-1.11,2.84-1.18,4.42-1.03.16.33.37.65.48,1,5.25,15.89,8.26,32.18,8.55,48.93.1,5.97.04,11.93.05,17.9-.68,5.45-1.22,10.92-2.07,16.34-.72,4.57-1.8,9.07-2.71,13.61-.33.98-.71,1.94-.97,2.94-3.54,13.5-8.81,26.33-15.76,38.38-10.03,17.38-23.17,32.19-38.68,44.93-16.77,13.77-35.45,23.88-56.42,29.67-4.66,1.29-9.38,2.28-14.11,3.26-1.11.23-2.03.84-1.69,2.15.29,1.12,1.3,1.28,2.31,1.18,1.6-.17,3.21-.3,4.79-.59,18.94-3.47,36.99-9.5,53.76-19.09,12.55-7.18,23.99-15.79,33.81-26.45,5.96-6.46,11.52-13.23,16.46-20.52,6.36-9.38,12.17-19.02,15.57-29.93,1.83-2.85,3.26-5.86,3.89-9.22.9-2.16,1.93-4.28,2.68-6.49,3.7-10.92,6.01-22.14,7.24-33.62,1.69-15.7,1.36-31.36-1.05-46.91-2.85-18.46-8.56-36.02-17.88-52.35-6.35-11.13-13.31-21.74-21.92-31.29-5.89-6.53-12.32-12.37-19.23-17.79-5.36-4.2-11.06-7.83-16.82-11.43-5.98-3.74-12.36-6.7-18.85-9.36-3.88-1.59-7.62-3.79-12.01-3.87-.35-1.07-1.3-1.22-2.2-1.51-17.45-5.5-35.34-8.25-53.62-8.6q-3.73-.07-1.85,3.4c1.55,4.17,3.11,8.33,4.66,12.5.48,1.43-.4,4.02,2.03,3.87,3.41-.22,6.77,0,10.16.03,13.72.09,27.17,2.11,40.37,5.77,9.36,2.59,18.21,6.57,27.1,10.42.35.31.64.73,1.05.93,7.66,3.82,14.69,8.63,21.43,13.87,11.18,8.68,20.29,19.27,28.19,30.91,2.22,3.27,4.55,6.54,5.86,10.36-.23.61-.57,1.21-.66,1.84-.61,4.31-.59,4.31-4.61,4.08-.16-.07-.33-.1-.5-.08v.03c-.46-1.68-1.24-3.21-2.34-4.57-.18-.18-.35-.37-.53-.55h0c-.79-2.44-2.23-4.47-3.97-6.31-1.27-3.85-4.02-6.78-6.45-9.83-6.76-8.48-14.78-15.6-23.47-22.14-6.07-4.57-12.42-8.61-19.14-11.91-11.47-5.64-23.52-9.8-36.19-12.05-20.73-3.67-41.33-3.04-61.75,1.98-5.65,1.39-11.33,2.88-16.47,5.79-.7.39-1.42.46-2.19.49-14.63.63-29.28,1.07-43.9,1.97-11.34.7-22.65,1.79-33.94,3.17-10.9,1.33-21.82,2.5-32.73,3.73-13.92,1.56-27.85,3.13-41.77,4.66-11.1,1.22-22.2,2.37-33.3,3.57-3.09.33-6.16.84-9.25,1.08-3.9.31-6.66-1.76-6.87-4.97-.27-4.19,2.24-7.28,6.12-7.72,9.23-1.05,18.45-2.31,27.69-3.21,13.79-1.34,27.6-2.53,41.41-3.61,9.34-.73,18.77-2.13,28.03-1.47,9.08.65,14.11-5.04,20.15-9.51,13.09-9.69,26.96-17.97,41.98-24.37,7.74-3.3,15.62-6.19,23.69-8.41,8.35-2.3,16.89-4.02,25.51-5.05,11.85-1.41,23.76-2.03,35.69-1.28,15.25.96,30.34,3.2,44.86,7.86,13.21,4.24,25.82,9.91,37.89,17.07,12.76,7.57,24.26,16.52,34.77,26.79,11.46,11.2,20.73,24.14,28.44,38.21,9.03,16.49,15.5,33.92,18.89,52.38,4.81,26.18,4.04,52.3-1.81,78.29-3.18,14.14-8.06,27.68-14,40.86-3.63,8.06-8.4,15.51-13.42,22.68-9.47,13.52-20.47,25.76-33.13,36.46-13.76,11.62-28.87,21.04-45.2,28.6-15.57,7.21-31.79,12.31-48.69,15.08-13.95,2.28-28.02,3.36-42.15,2.21-2.16-.18-2.71.54-3.04,2.31-1.02,5.5-3.02,10.65-6.06,15.33-6.42,9.89-15.47,16.26-26.83,19.2-13.84,3.58-26.76,1.28-38.62-6.7-1.68-1.13-2.85-1.35-4.71-.06-14.25,9.93-29.85,11.56-46.18,6.55-7.44-2.28-13.89-6.52-19.25-12.25-.85-.91-1.69-1.23-2.98-1.07-16.88,2.14-30.31-3.95-40.38-17.45-2.71-3.62-4.45-7.88-5.25-12.4-.26-1.46-.95-2.24-2.16-3.05-4.48-3-9.33-4.22-14.71-4.94-16.5-2.21-28.49-10.98-34.93-26.58-1.93-4.67-2.67-9.68-2.38-14.76.08-1.32-.32-2.15-1.34-2.84-4.1-2.79-7.57-6.37-9.53-10.81-1.76-3.99-4.93-5.84-8.38-7.33-7.26-3.13-12.61-8.37-17.07-14.63-8.85-12.42-10.72-26.1-7.02-40.71.41-1.63.12-2.8-.77-4.38-6.74-11.98-7.48-27.3,2.24-39.9.96-1.25,1.82-2.63,3.17-3.6.92-.66.96-1.6.61-2.77-3.61-12.08-2.28-23.5,4.78-34.08.59-.88,1.12-1.65.9-2.84-1.05-5.76.02-7.69,5.41-10.03.6.89,1.55.57,2.33.57,5.05.03,10.11-.02,15.16-.05Zm205.78-32.96c-.2.02-.31.14-.34.34-.2-.03-.32.06-.36.27-.4.03-.67.22-.74.64-2.71,2.61-5.27,5.36-7.45,8.45-5.79,6.85-10.47,14.37-14.64,22.32-6.23,11.88-10.65,24.29-12.97,37.49-.67,3.8-.71,3.6,2.95,4.13,2.42.35,3.13-.65,3.45-2.73.36-2.33.71-4.7,1.41-6.94,1.26-4,1.9-8.32,5.17-11.43l1.58-.69c2.97-.32,5.85.01,8.61,1.17,5.69,2.39,11.54,4.41,17.02,7.32,5.4,2.86,7.19,8.58,4.6,14.21-1.69,3.66-4.4,6.28-7.41,8.72-2.73,1.22-5.58,1.65-8.56,1.55-10.41-.36-20.83-.8-31.24-1-21.76-.43-43.52-1.02-65.29-.82-10.18.09-20.37,0-30.55.09-11.99.11-23.98.29-35.97.54-9.11.19-18.24.06-27.29,1.47-6.57.29-13.16.56-19.54,2.24-11.27,2.96-17.31,13.8-13.98,24.79.52,1.72.99,2.45,2.67.77,2.82-2.84,6.28-4.77,10-6.29,2.62-1.08,5.55-.97,8.08-2.29,5.43.24,10.78-.75,16.18-1.05,12.85-.71,25.7-1.5,38.55-2.25,13.97-.82,27.94-1.54,41.9-2.49,15.35-1.04,30.7-2.29,46.04-3.46,13.91-1.07,27.82-2.26,41.74-3.2,7.45-.5,14.91-1,22.39-.68,1.78.08,3.9-.04,4.12,2.31.19,2.06-1.81,2.61-3.33,3.34-.17.08-.37.1-.55.14-.5-.17-.83.14-1.18.42,0,0,.02,0,.02,0-5.49,1-10.98,2-16.47,2.99-2.66.28-5.36.25-7.94,1.09-.09-.01-.19-.03-.28-.03-7.2.28-7.13.27-6.09,7.29,3.61,24.27,15.16,44.4,32.02,61.79.57.58.84,1.35,2.01,1.17,2.18-.35,4.38-.52,6.82-1.28-1.01-.93-1.79-1.61-2.52-2.34-5.15-5.1-4.85-8.96.94-13.33,1.64-1.24,3.61-2.06,4.86-3.8,4.25-1.47,7.55-4.7,11.74-6.28.71,2.06,2.43.93,3.61.97,7.72.28,12.21,6.71,9.56,14-.83,2.3-1.98,4.48-2.98,6.72-1.48,2.18-3.13,4.25-3.99,6.8-.94.68-2.02.96-3.14,1.22-11.92,2.75-23.84,5.52-35.76,8.29-1.8.42-7.59-3.75-7.7-5.56,0-.13.12-.36.22-.38,1.61-.33.62-.75.12-1.34-16.06-18.83-26.03-40.53-30.35-64.84-.5-2.82-1.66-1.69-2.99-1.01-7.32,1.63-5.82.82-4.78,6.8,1.87,10.74,5.82,20.87,10.24,30.8,5.03,11.3,11.6,21.6,20.08,30.65,1.91,2.27,3.81,4.53,5.72,6.8-.69.28-1.36.68-2.08.83-9.53,1.92-18.99,4.16-28.5,6.18-15.2,3.23-30.42,6.35-45.68,9.28-4.52.87-8.97,2.25-13.62,2.19-2.94-.04-4.72-1.65-4.96-3.98-.29-2.8.88-4.56,3.65-5.56,5.22-1.89,10.68-2.87,16.03-4.28,5.74-1.51,11.56-2.76,17.33-4.15,1.37-.33,2.45-.56,1.03-2.43-2.12-2.76-4.34-5.63-5.62-8.81-2.27-5.63-5.78-8.02-11.76-6.34-.44.12-.94.01-1.41.02-8.16.22-16.32.5-24.48.65-3.94.07-7.88-.07-11.82-.15-1.65-.04-2.99-.62-3.16-2.51-.18-2.06,1.52-2.09,2.83-2.45,1.09-.3,2.21-.55,3.33-.68,11.29-1.35,22.58-2.66,33.86-4.01,3.87-.46,3.9-.52,2.1-3.89-.59-1.09-.52-2.53-2.68-2.55-20.6-.13-41.2-.52-61.8-.66-5.99-.04-12.02-.78-17.99.36-9.91-.21-17.8,5.24-21.08,14.56-4.2,11.94,1.33,24.7,13.3,30.22,2.04.94,2.26,1.72,1.66,3.78-1.21,4.14-1.24,8.42-.12,12.63,1.71,6.43,4.41,12.26,10.12,16.2,2.31,3.49,6.29,4.15,10.24,6.41-1.03-2.8-2.11-4.69-3.3-6.53.08-1.15-.16-2.24-.44-3.35-.91-3.69-1.24-7.41-.95-11.26.53-6.81,3.37-12.69,6.71-18.43.64.05,1-.35,1.41-.76,5.92-5.92,12.89-9.68,21.38-10.26.9.49,2.54-.38,2.78.7.31,1.38-1.49,1.36-2.35,1.97-.3.21-.69.3-1.03.47-7.58,3.78-12.58,9.92-15.33,17.74-5.35,15.24,3.61,33.01,19.5,36.78,1.46.35,3.3.31,4.27,1.21,1.1,1.02-.33,2.81-.09,4.3.12.74.08,1.51.16,2.27,1.42,13.92,13.88,22.83,25.74,24.25,2.05.25,2.93.16,2.12-2.53-3.6-12.06-2.27-23.25,6.68-32.82.66-.31,1.31-.66,1.99-.91,3.09-1.16,7.98-.37,9.5,1.52-1.77,2.09-3.22,4.34-4.52,6.8-5.25,9.88-3.56,21.64,2.8,29.62,10.27,12.88,29.36,16.97,44.46,10.18,7.5-3.37,12.61-8.77,15.98-16.18.26.29.41.41.49.57.22.41.43.84.62,1.27,2.77,6.46,7.84,10.64,14.02,13.37,13.9,6.13,28.34,3.08,38.64-8.2,2.47-2.7,5.03-5.68,5.29-9.74.48-1.05.96-2.09,1.53-3.34-4.17-.08-8.1.86-12.11.4-1.88-.21-3.46-.66-4.09-2.37-.71-1.91,1.25-2.72,2.26-3.86.29-.33.8-.46,1.22-.67,7.45-3.67,14.89-7.35,22.36-10.99,11.29-5.5,22.6-10.96,33.87-16.49.89-.44,2.35-.53,2.12-2.47-8.29,1.98-16.55,3.78-24.71,5.95-9.48,2.52-18.91,5.28-28.37,7.87-10.25,2.81-20.46,5.76-30.69,8.62-4.36,1.22-8.63,2.89-13.17,3.32-4.32.41-6.84-2.76-5.39-6.5.62-1.59,2.08-2.17,3.39-2.8,10.1-4.91,20.25-9.73,30.37-14.62,3.44-1.66,6.96-3.19,10.39-5.45-.94-.47-1.57-.92-2.28-1.13-4.73-1.35-9.39-2.87-13.97-4.69-2.36-.94-4.56-2.97-7.57-1.86-13.78,5.05-27.59,10.03-41.39,15.01-2.56.92-5.15,1.81-7.76,2.58-1.19.35-2.52.35-3.32-.88-.76-1.17-.13-2.01.73-2.96,1.34-1.49,3.04-2.45,4.59-3.63.89-.68,2.12-1.29,1.94-2.46-.2-1.27-1.39-1.68-2.7-2.07-7.2-2.13-14.48-.9-21.73-.79-1.78.03-3.52.1-5.34-.9,1.12-.59,2.05-1.14,3.03-1.57,9.11-3.99,18.47-7.36,27.75-10.94,14.65-5.65,29.11-11.8,43.8-17.35,15.42-5.82,30.69-11.99,45.89-18.34,1.67-.7,3.16-.67,4.53.27,1.46,1,1.1,2.59.83,4.07-.49.44-.93.95-1.47,1.32-4.99,3.42-10.65,5.61-15.92,8.53-1.5.84-3.21,1.38-4.52,2.82,3.4,2.17,7.01,3.26,10.52,4.39,27,8.69,53.92,7.82,80.37-2,23.31-8.65,41.95-23.6,56.38-43.92,7.92-11.16,13.82-23.27,17.68-36.29,7-23.64,7.16-47.4-.1-71.06-7.64-24.92-22.06-45.06-43.47-59.86-12.01-8.3-25.57-13.36-39.92-16.21-18.66-3.7-37.09-2.4-55.21,2.98-20.6,6.11-38.51,16.82-53.38,32.46-.19.08-.28.23-.25.43Zm-22.78-61.66c1.48-.79,3.07-1.39,4.31-2.58,5.17-2.64,10.33-5.3,15.53-7.87.62-.31,1.6-1.58,2.17.18.34,4.98,3.27,8.94,5.31,13.24.35.74,1.12.5,1.78.46,5.26-.37,10.53-1.08,15.79-.98,4.35.08,8.12-1.14,11.82-3.09l1.05-.39c.76-.22,1.53-.43,2.29-.65,9.27-2.98,18.64-5.51,28.3-6.94,4.27-.63,4.25-.73,3.48-5-1.7-4.89-3.51-9.73-6.07-14.24,0-1.93-1.35-2.13-2.73-1.93-9.01,1.27-18.16,1.71-26.96,4.34-1.56.29-3.22.17-4.6,1.17-5.59,1.31-10.99,3.22-16.36,5.18-11.1,4.06-21.62,9.31-31.44,15.91-1.4.84-2.95,1.44-4.06,2.72-.63.14-1.32.21-1.27,1.12.73.21,1.16-.33,1.67-.64Zm-150.65,177.25c-5.54.03-11.05.33-16.53,1.17-6.45-.25-12.78,1.03-19.17,1.44-7.16.45-11.47,4.9-14.75,10.44-4.85,8.18-5.3,17.05-2.47,26.01,2.41,7.65,6.93,13.86,14.06,18.81-.09-8.36,2.75-15.21,7.47-21.35,5.73-6.89,12.82-11.41,21.82-12.73,9.61-1.41,19.26-.63,28.89-.52,17.14.21,34.28.57,51.42,1.06,2.85.08,2.09-.93,1.52-2.53-2.71-7.53-5.33-15.1-6.17-23.12-.22-2.08-.76-2.68-2.94-2.52-8.22.59-16.45.89-24.68,1.39-6.72.41-13.42.95-20.14,1.43-6.13-.07-12.25.22-18.33,1.02Zm189.65,93.9c.91.48,1.61,1.41,2.8,1.27,1.07.66,2.03,1.59,3.44,1.46,5.11,2.66,10.6,4.4,16.13,5.73,22.91,5.53,45.87,5.9,68.67-.61,6.14-1.75,12.34-3.54,17.81-7.07,7.63-3.53,15.35-6.9,22.3-12.05-1.05-.69-1.66-.12-2.18.1-16.95,7.44-34.55,12.51-52.99,14.35-14.48,1.45-28.92.98-43.28-1.71-13.26-2.48-25.65-7.43-37.77-13.08-2.41-1.12-3.9-1-5.71.43-1.45.64-2.86,1.38-4.35,1.9-1.8.63-1.36,1.18-.08,1.86,4.02,2.15,8.01,4.36,12.08,6.4.94.47,1.88,1.34,3.13,1.02ZM74.71,239.12c5.46.3,10.92.28,16.38-.02l5.74-.05c3.48,0,6.95,0,10.43,0,9.19,0,18.39-.05,27.58.02,2.47.02,3.6-.56,3.55-3.44-.12-6.73.72-13.42,2.25-19.98.58-2.49.08-3.08-2.51-3.02-15.59.39-31.18.55-46.77.91-2.52.06-5.09-.42-7.57.43-1.85-.76-3.69.07-5.54.08-14.22.07-28.42.8-42.62,1.46-1.32.06-2.41.49-3.33,1.33-7.16,6.57-9.21,15.61-7.4,25.11.22,1.13.54,1.27,1.64.95,4.54-1.31,9.27-1.43,13.91-2.07,1.69-.19,3.45.18,5.08-.55.39-.03.79-.06,1.18-.09,1.94,0,3.9.42,5.78-.4l.22.05s.22-.05.22-.05c7.27.26,14.51-.39,21.76-.69Zm118.23-64.71c3.35.99,5.03-.1,6.57-2.7,5.35-9.07,12.11-17.08,19.29-24.74,1.03-1.1,3.14-2.71,2.21-3.64-1.57-1.57-3.28.45-4.51,1.62-4.1,3.89-8.11,7.87-11.74,12.22-4.42,5.3-8.01,11.15-11.82,17.24Zm-23.07,64.05c-.5,1.97.61,1.96,1.67,2.21,1.65.4,2.18-.28,2.39-1.8,1.22-8.63,3.25-17.08,5.57-25.47.24-.85,1.15-2.35-.38-2.52-1.24-.14-3.14-.38-3.73,1.68-2.47,8.64-4.56,17.36-5.52,25.9Zm18.59,82.67c-1.61.39-1.85,1.35-1.2,2.93,1.94,4.75,4.42,9.22,7.06,13.59,2.01,3.32,4.19,6.53,6.72,9.48.77.9,1.75,1.3,2.73.51,1.03-.83-.03-1.56-.45-2.14-5.09-7.1-9.46-14.62-13.12-22.56-.34-.73-.54-1.68-1.75-1.8Z"/>
      <path class="n" d="m378.63,473.86c-3.46-.49-6.68-2.02-10.19-2.3-9.34-.75-16.49,3.7-22.98,9.71-1.52,1.41-3.02,2.85-4.52,4.28-.49.47-1.03,1-1.71.48-.55-.42-.2-1.04-.03-1.57,1.05-3.43,2.21-6.82,3.13-10.28,2.19-8.25,1.64-16.1-3.7-23.17-.8-1.05-1.47-2.2-2.2-3.31.58-1.66-.69-1.54-1.65-1.72,0,0,0,0,0,0,.09-1.28-.01-2.39-1.77-2.16,0,0,0-.05,0-.05-.33-.75-.66-1.5-1-2.25,6.66,1.94,13.29,4.07,20.39,3.18,3.69.99,9.37-1.44,11.99-5.13,0,0,0,.03,0,.03.19-.23.38-.46.57-.69,3.04-2.65,6.07-5.3,9.11-7.95.37,1.39-.39,2.85.25,4.22-1.88,6.59-3.99,13.11-2.73,20.19.82,4.59,2.64,8.56,5.58,12.09.59.71,1.4,1.29,1.53,2.31-.01.8.36,1.2,1.18,1.15,0,0-.01,0-.01,0-.05,1.14-.27,2.2-1.25,2.95Z"/>
      <path class="e" d="m296.69,121.28c-.36.07-.72.14-1.08.21-.1-.11-.19-.22-.29-.32-.09.16-.17.32-.26.49-1.28.87-2.71,1.55-4.23,1.28-1.67-.3-2.03,1.31-3.2,1.8-12.97,5.48-25.14,12.4-36.14,21.23-10.74,8.62-20.41,18.31-28.22,29.73-.86,1.26-1.7,1.74-3.22,1.61-2.64-.23-5.3-.29-7.96-.3-1.77,0-2.28-.42-1.2-2.06,2.4-3.64,4.53-7.48,7.13-10.96,6.03-8.07,12.72-15.61,19.82-22.76,2.8-2.82,5.79-5.45,8.64-8.21.58-.56,1.47-.99,1.34-2.04,2.39-.03,4.79-.06,7.18-.09.1.11.2.23.3.35-4.46,4.47-8.91,8.93-13.37,13.4-1.03-.63-1.89-.69-2.54.58-2.14,4.18-6.18,6.88-8.56,10.89-.66,1.12-1.75,2.05-1.02,3.54,0,0-.08.11-.08.11-1.76.15-2.02,1.33-1.9,2.77.02.16-.03.29-.17.38-.15.2-.29.41-.44.61,0,0,.03-.02.02-.02-.86.03-1.27.4-.96,1.3,0,0,0-.04,0-.04-.74.06-.77.54-.68,1.1,0,0,0-.04,0-.04-.22.2-.44.4-.66.6-.01.15,0,.3.06.45-.37,1.92-2.29,3.23-2.24,5.65,1.63-1.55,2.37-3.36,3.37-5,4.06-4.82,7.93-9.8,12.35-14.32,13.48-13.82,28.66-25.14,46.88-31.97,2.43-.91,5.01-1.47,7.3-2.76,1.29,1.01,4.81-1.13,4.01,2.84Z"/>
      <path class="n" d="m206.01,40.36c1.08-3.61,2.3-7.14,2.46-11,.23-5.73-2.1-10.24-5.82-14.27-1.13-1.22-2.19-2.51-3.17-4.05,5.69.96,11.15,3.47,17.03,2,5.98-1.49,9.8-6.16,14.57-10.12-.19,2.95-1.32,5.3-2.04,7.71-2.46,8.27-.22,15.22,5.47,21.38.73.79,1.93,1.36,1.81,2.74h0c-3.06.04-5.81-1.33-8.76-1.87-5.05-.91-9.47.18-13.51,3.21-.28.21-.69.26-1.04.39-.81-.02-1.16.42-1.19,1.18,0,0-.25.02-.25.02-.94.06-1.38.63-1.5,1.5-.23.21-.46.43-.69.64-.46.07-.82.25-.92.75-.16.16-.33.32-.49.48-.65-.23-1.31-.46-1.96-.69Z"/>
      <path class="n" d="m271.62,529.77c5.29-11.32,3.31-20.94-6.3-29.23,11.82,4.64,21.86,3.16,30.02-7.38-4.71,11.35-3.98,21.31,5.58,29.76-5.56-.7-10.56-2.77-15.88-1.69-5.49,1.12-8.68,5.79-13.42,8.54Z"/>
      <path class="e" d="m208.38,200.41c-5.53,11.99-9.59,24.47-12.25,37.38-.57,2.75-1.7,3.49-4.17,3.02-.56-.11-1.13-.14-1.68-.27-1.79-.42-4.41.82-5.25-.75-.71-1.34.31-3.63.63-5.49,2.02-11.87,5.4-23.35,10.21-34.39,4.17.17,8.33.34,12.5.51Zm-9.06,19.42c1-1.58,1.49-3.32,1.65-5.16.59-2.16,1.17-4.32,1.76-6.48.14-.5.64-1.11-.19-1.37-.91-.29-1.12.52-1.24,1.12-.36,1.82-.64,3.67-.95,5.5-.72,2.07-1.21,4.17-1.04,6.38-.44.16-.47.52-.43.89,0,.08.18.13.28.2l.16-1.08Z"/>
      <path class="n" d="m188.2,69.33c-5.31-.92-10.02-2.96-15.15-1.7-4.95,1.22-8.42,4.71-12.41,8.09,3.98-10.5,3.17-19.81-6.03-27.65,10.84,4.8,19.8,2.53,27.64-6.11-4.41,10.79-2.92,19.86,5.96,27.36Z"/>
      <path class="n" d="m115.55,79.71c9.97,4.26,18.4,2.84,25.53-5.42-1.01,4.68-2.47,9.14-1.5,13.81.98,4.72,4.17,8.1,7.21,11.74-4.53-1.41-9.03-2.47-13.72-1.8-4.94.7-7.92,4.68-12.05,7.32,4.63-9.86,2.77-18.25-5.47-25.64Z"/>
      <path class="m" d="m296.69,121.28c.8-3.96-2.72-1.83-4.01-2.84,12.95-4.36,26.2-7,39.88-7.73,17.9-.96,35.26,1.53,52.13,7.45,4.57,1.6,9.23,3.12,13.39,5.73.16.66.61.81,1.21.69,0,0,.03-.08.03-.08.23,1.37,1.52,1.77,2.29,2.64,1,1.13,3.18,1,3.22,3.07-5.93-2.61-11.61-5.75-17.7-8.03-11.37-4.26-23.09-6.8-35.17-7.84-18.45-1.59-36.39.72-53.88,6.73-.44.15-.93.14-1.4.21Z"/>
      <path class="f" d="m41.69,201.52c-5.05.02-10.11.07-15.16.05-.78,0-1.73.32-2.33-.57.22-1.55,1.29-2.44,2.46-3.31,6.76-5.03,14.62-7.02,22.75-8.05,13.29-1.68,26.62-.79,39.94-.42.24,0,.47.26,1.31.76-2.62.3-4.67.63-6.73.76-13.96.88-27.4,4.12-40.51,8.85-.9.33-1.82.69-1.73,1.93Z"/>
      <path class="f" d="m201.26,88.24c-3.63-.02-6.01-2.14-5.97-5.34.04-3.34,2.84-6.57,5.74-6.62,3.66-.06,6.73,2.6,6.71,5.82-.02,3.86-2.45,6.16-6.48,6.15Z"/>
      <path class="f" d="m238.06,60.81c.03,3.58-2.17,5.82-5.77,5.87-3.32.05-5.69-2.31-5.69-5.65,0-3.1,2.59-5.75,5.71-5.81,3.21-.07,5.73,2.38,5.76,5.59Z"/>
      <path class="f" d="m330.34,508.6c-3.12.06-5.67-2.17-5.77-5.03-.11-3.08,2.6-6.1,5.49-6.1,2.96,0,5.86,2.51,5.87,5.09.02,3.08-2.68,5.99-5.59,6.04Z"/>
      <path class="d" d="m460.8,185.35c-3.95-5.3-7.82-10.65-11.86-15.88-3.06-3.96-6.31-7.77-9.48-11.64.75-.1,1.58-.02,1.99-.89,2.85,2.16,4.48,5.43,7.14,7.76,1.46,1.78,2.17,4.26,4.74,4.97,0,0,0,0,0,0-.01.39-.02.77-.03,1.16.63,1.57,1.2,3.19,2.91,3.96,0,0-.01-.03-.01-.03.12,1.06-.79,2.54,1.13,2.9h-.03c.21.28.42.56.63.85,1.57,2.03,2.4,4.36,2.88,6.84Z"/>
      <path class="m" d="m441.45,156.94c-.41.87-1.24.78-1.99.89-6.18-6.42-12.54-12.65-19.76-17.93-.28-.21-.46-.56-.69-.84,1.02-.06,2.03-.11,3.05-.17,0,0-.02-.04-.02-.04-.08,1.22.52,1.78,1.71,1.78,0,0-.05-.04-.05-.04.09.36.23.55.53.15,2.77.94,4.47,3.31,6.53,5.13,3.84,3.4,7.59,6.93,10.69,11.07Z"/>
      <path class="f" d="m318.42,469.3c.07.09.08.19,0,.29-.8,2.42-3.22,3.4-4.66,5.24-.38.05-.75.09-1.13.14.04-1.01-.32-1.69-1.19-2.36-2.46-1.87-2.57-3.18-.76-5.62.45-.6.93-1.18,1.39-1.77,1.13.02,2.26.04,3.38.05.26.47.69.57,1.18.53,0,0,.01-.01.01,0-.07,1.08.64,1.2,1.46,1.19.07.37.14.74.2,1.12-.65.45-.52.84.09,1.2Z"/>
      <path class="d" d="m422.06,138.89c-1.02.06-2.03.11-3.05.17,0,0,.08-.04.08-.04-.21-.55-.66-.62-1.17-.58,0,0,0,.04,0,.04-.07-.4-.21-.56-.5-.14-4.02-2.98-8.31-5.54-12.59-8.13-.05-2.07-2.23-1.94-3.22-3.06-.77-.87-2.06-1.28-2.29-2.64,8.14,3.91,15.81,8.56,22.73,14.38Z"/>
      <path class="o" d="m229.82,159.62c-.72-1.49.36-2.42,1.02-3.54,2.38-4.01,6.42-6.7,8.56-10.89.65-1.27,1.5-1.21,2.54-.58-4.04,5-8.08,10-12.12,15Z"/>
      <path class="p" d="m312.09,465.22c-.46.59-.94,1.17-1.39,1.77-1.81,2.44-1.7,3.75.76,5.62.87.66,1.24,1.35,1.19,2.36-2.85-.53-4.65-2.12-4.56-5.14.08-2.49,1.29-4.27,3.99-4.61Z"/>
      <path class="p" d="m364.39,439.57c-2.62,3.69-8.3,6.12-11.99,5.13,4.35-.89,8.02-3.37,11.99-5.13Z"/>
      <path class="p" d="m378.63,473.86c.98-.74,1.2-1.81,1.25-2.95,1.57,1.43,3.14,2.87,4.71,4.3-.16.21-.32.43-.48.64-1.94-.29-3.68-1.24-5.48-2Z"/>
      <path class="h" d="m453.32,169.67c-2.57-.72-3.29-3.2-4.74-4.97.56-.27.75-.75.77-1.33,1.74,1.84,3.18,3.87,3.97,6.31Z"/>
      <path class="p" d="m313.77,474.83c1.44-1.85,3.86-2.82,4.66-5.24.51,3.1-1.17,4.99-4.66,5.24Z"/>
      <path class="h" d="m226.15,167.5c-.99,1.64-1.73,3.45-3.37,5-.05-2.42,1.87-3.73,2.24-5.65.38.22.75.43,1.13.65Z"/>
      <path class="p" d="m374.32,435.17c-.65-1.37.11-2.83-.25-4.22.29-.53.7-1.01,1.32-.85.78.2.57.9.39,1.41-.44,1.24-.96,2.45-1.45,3.67Z"/>
      <path class="p" d="m206.01,40.36c.65.23,1.31.46,1.96.69-.81.85-1.62,1.7-2.73,2.86-.18-1.58.23-2.58.77-3.55Z"/>
      <path class="p" d="m332,441.51c.33.75.67,1.5,1,2.25-1.78.05-2.33-1.42-3.31-2.46,1.01-.93,1.59.13,2.31.21Z"/>
      <path class="p" d="m333,443.81c1.75-.23,1.86.88,1.77,2.16-1.17-.24-1.74-.99-1.77-2.16Z"/>
      <path class="o" d="m227.84,162.49c-.12-1.44.15-2.62,1.9-2.77-.28,1.16-1.2,1.89-1.9,2.77Z"/>
      <path class="p" d="m334.77,445.98c.96.18,2.23.06,1.65,1.72-.97-.17-1.48-.78-1.65-1.72Z"/>
      <path class="d" d="m423.75,140.62c-1.19,0-1.79-.56-1.71-1.78.87.3,1.54.81,1.71,1.78Z"/>
      <path class="p" d="m318.12,466.99c-.82,0-1.53-.11-1.46-1.19.74.09,1.29.42,1.46,1.19Z"/>
      <path class="o" d="m226.3,164.77c-.31-.9.09-1.27.96-1.3-.08.61-.35,1.08-.96,1.3Z"/>
      <path class="p" d="m210.07,39.18c.12-.88.56-1.44,1.5-1.5-.26.74-.67,1.33-1.5,1.5Z"/>
      <path class="p" d="m379.89,470.91c-.81.05-1.19-.35-1.18-1.15.61.16,1.1.44,1.18,1.15Z"/>
      <path class="p" d="m211.82,37.66c.03-.76.38-1.21,1.19-1.18-.29.51-.53,1.06-1.19,1.18Z"/>
      <path class="o" d="m225.62,165.83c-.09-.56-.05-1.05.68-1.1.03.53-.21.89-.68,1.1Z"/>
      <path class="p" d="m208.46,40.57c.1-.5.46-.69.92-.75-.13.47-.5.64-.92.75Z"/>
      <path class="p" d="m316.65,465.81c-.49.03-.92-.06-1.18-.53.51-.09.92.05,1.18.53Z"/>
      <path class="d" d="m399.3,124.58c-.6.12-1.05-.03-1.21-.69.45.16,1,.13,1.21.69Z"/>
      <path class="p" d="m318.42,469.3c-.62-.35-.74-.74-.09-1.2.03.4.06.8.09,1.2Z"/>
      <path class="e" d="m255.01,130.87c.24-.36.52-.53.91-.18-.2.18-.41.35-.61.53-.1-.12-.19-.23-.29-.35Z"/>
      <path class="p" d="m364.96,438.91c-.19.23-.38.46-.57.69.19-.23.38-.46.57-.69Z"/>
      <path class="o" d="m227.24,163.49c.15-.2.29-.41.44-.61-.15.2-.29.41-.44.61Z"/>
      <path class="o" d="m224.96,166.39c.22-.2.44-.4.66-.6-.22.2-.44.4-.66.6Z"/>
      <path class="n" d="m236.32,34.74c.07.03.16.04.21.09.03.03.03.11.04.16-.08-.08-.17-.17-.25-.25,0,0,0,0,0,0Z"/>
      <path class="d" d="m424.23,140.74c-.3.4-.44.2-.53-.15.18.04.36.09.53.15Z"/>
      <path class="f" d="m435.72,256.2c.69-.94.91-2.02.97-3.16.49-8.85-.24-17.64-1.17-26.42-.15-1.4-.55-3.01-2.25-3.62.69-.77.82-1.69.64-2.65-1.42-7.53-3.32-14.89-7.52-21.44.05-3.66-2.47-6.24-4.11-9.09-4.01-6.95-8.77-13.41-14.21-19.33-1.07-1.17-2.44-2.07-3.67-3.09-.73-1.75-1.68-3.32-2.9-4.82-3.92-4.79-9.09-7.89-14.31-10.91-1.64-.95-3.66-1.51-5.69-.75.09-.87-.58-1.12-1.17-1.38-8.19-3.54-16.38-7.04-25.21-8.72-.93-.18-1.86-.48-2.59.45-1.18-1.01-2.57-1.49-4.09-1.79-5.4-1.07-10.88-1.17-16.35-1.4-1.77-.07-3.61.18-5.05,1.48-.41-.67-1.05-.66-1.74-.66-8.09.09-15.89,1.7-23.47,4.47-.69.25-1.17.59-1.24,1.36-4.56-1.06-8.51.9-12.43,2.66-3.74,1.67-7.72,3.1-10.08,6.85-.51-1.61-1.48-.75-2.21-.33-6.32,3.65-12.14,7.98-17.32,13.11-1.47,1.45-3.89,2.23-4,4.83-.9.48-1.94.79-2.67,1.46-6.16,5.68-11.43,12.06-15.01,19.72-2.11,1.57-3.17,3.94-4.4,6.13-3.41,6.08-6.41,12.36-8.88,18.89-.42,1.1-.84,2.15.38,3.02-3.27,3.1-3.91,7.43-5.17,11.43-.71,2.24-1.06,4.61-1.41,6.94-.32,2.08-1.03,3.08-3.45,2.73-3.66-.53-3.61-.33-2.95-4.13,2.32-13.19,6.74-25.61,12.97-37.49,4.17-7.95,8.86-15.47,14.64-22.32.98-.49,2.2-.77,2.9-1.52,1.89-2.03,4.95-3.37,4.54-6.92.07-.42.34-.6.74-.64.14-.06.26-.14.36-.27.02-.2.13-.32.34-.34.13-.12.22-.26.25-.43,14.87-15.64,32.78-26.35,53.38-32.46,18.12-5.38,36.55-6.68,55.21-2.98,14.35,2.85,27.91,7.9,39.92,16.21,21.41,14.8,35.83,34.95,43.47,59.86,7.25,23.67,7.1,47.42.1,71.06-3.85,13.02-9.76,25.13-17.68,36.29-14.42,20.32-33.07,35.26-56.38,43.92-26.45,9.82-53.37,10.69-80.37,2-3.51-1.13-7.13-2.22-10.52-4.39,1.31-1.44,3.02-1.99,4.52-2.82,5.26-2.92,10.92-5.1,15.92-8.53.54-.37.98-.87,1.47-1.32,2.05.54,3.85,1.78,5.98,2.15.74.13,1.24-.04,1.79-.37.21.76.42,1.52.62,2.27l-.02.05c-.35.1-.48.33-.41.68-.06.37-.05.78-.2,1.11-2.23,4.91.56,8.47,5.56,9.37,5.22.94,10.48,1.31,15.76.82,4.06-.37,6.48-3.03,6.66-7.1.07-1.6.1-3.21.14-4.81,4.89,1.31,9.75.15,14.58-.36,3.12-.33,6.43-.25,9.28-2,.44,1.03,1,2.04,1.3,3.11.82,2.98,2.51,3.94,5.68,3.49,4.54-.66,8.42-2.74,12.31-4.85,5.3-2.88,6.25-4.89,5.57-10.8.67.22.7.79.78,1.36.54,3.83.61,3.93,3.87,1.69,5.47-3.77,10.81-7.73,15.68-12.28.75-.7,1.44-1.5,1.45-2.64,1.2-.34,2.2-1,3.11-1.85,2.76-2.55,5.08-5.49,7.18-8.57,1.83-2.68,4.15-5.15,4.56-8.61,3.99-2.55,5.21-7.05,7.33-10.84,1.96-3.5,3.19-7.41,4.82-11.1.45-1.02.52-1.98.29-3.02,3.78-8.14,5.33-16.74,5.27-25.67Z"/>
      <path class="f" d="m109.01,353.37c5.84-.67,11.68-1.48,17.9-.15-2.37,1.18-4.53,2.19-6.63,3.31-6.11,3.27-11.03,8.05-13.79,14.24-5.19,11.65-2.95,24.21,8.99,31.54,8.9,5.47,18.2,4.29,27.63,2.2,2.02-.45,3.96-1.31,6.07-1.34,1.82.97,1.8,2.88,2.29,4.52-8.96,9.57-10.28,20.77-6.68,32.82.8,2.69-.07,2.78-2.12,2.53-11.86-1.42-24.32-10.33-25.74-24.25-.08-.75-.04-1.52-.16-2.27-.24-1.49,1.19-3.28.09-4.3-.97-.9-2.81-.86-4.27-1.21-15.89-3.77-24.85-21.55-19.5-36.78,2.75-7.82,7.75-13.96,15.33-17.74.34-.17.73-.26,1.03-.47.86-.61,2.65-.59,2.35-1.97-.24-1.08-1.88-.2-2.78-.7Z"/>
      <path class="f" d="m164.14,408.37c-1.45,4.2-2.57,8.44-2.52,12.97.1,9.14,4.12,16.07,11.52,21.16,12.12,8.34,24.55,7.83,37.01.91,6.1-3.38,11.77-7.44,16.73-12.38,1.68-1.67,2.09-.55,2.72.79,3.51,7.5,8.83,13.08,16.85,15.74,7.91,2.62,15.55,2.09,22.96-1.9,4.49-2.42,7.89-6.05,11.33-9.66-.26,4.05-2.82,7.03-5.29,9.74-10.3,11.28-24.75,14.33-38.64,8.2-6.18-2.73-11.25-6.91-14.02-13.37-.19-.43-.4-.85-.62-1.27-.08-.15-.23-.27-.49-.57-3.37,7.42-8.49,12.81-15.98,16.18-15.1,6.78-34.19,2.69-44.46-10.18-6.36-7.98-8.05-19.74-2.8-29.62,1.3-2.45,2.75-4.71,4.52-6.8.39.02.78.04,1.17.07Z"/>
      <path class="e" d="m479.1,284.25c-.79,5.2-2.41,10.2-3.62,15.3-1.33,2.88-1.66,6.13-3.3,8.9-.21.35.17.68.52.87-3.4,10.91-9.21,20.55-15.57,29.93-4.94,7.29-10.51,14.06-16.46,20.52-9.83,10.66-21.26,19.27-33.81,26.45-16.77,9.59-34.82,15.61-53.76,19.09-1.58.29-3.19.43-4.79.59-1,.1-2.02-.06-2.31-1.18-.34-1.31.58-1.92,1.69-2.15,4.73-.98,9.45-1.98,14.11-3.26,20.97-5.79,39.64-15.9,56.42-29.67,15.51-12.73,28.64-27.54,38.68-44.93,6.95-12.05,12.22-24.88,15.76-38.38.26-1,.64-1.96.97-2.94.4.64.85.67,1.64.54,1.25-.21,2.73-1.58,3.84.31Z"/>
      <path class="f" d="m70.08,320.15c-2.5,3.25-5.5,5.94-7.23,9.96-5.23,12.19.48,26.9,13.11,31.55,2.38.87,4.71,1.95,7.4,1.72.99-.09,2.08.19,2.86,1.02-3.34,5.74-6.18,11.62-6.71,18.43-.3,3.84.04,7.56.95,11.26.28,1.12.51,2.21.44,3.35.31,2.26-.47,2.89-2.67,2.14-1.5-.51-2.51-2.05-4.26-2.03-5.71-3.94-8.41-9.78-10.12-16.2-1.12-4.21-1.1-8.5.12-12.63.6-2.07.39-2.84-1.66-3.78-11.97-5.52-17.5-18.28-13.3-30.22,3.28-9.32,11.17-14.77,21.08-14.56Z"/>
      <path class="f" d="m243.21,295.52c1.22,5.17,3.69,9.78,6.45,14.24,2.02,3.26,4.16,6.45,6.24,9.67-1.25,1.74-3.22,2.56-4.86,3.8-5.79,4.38-6.09,8.23-.94,13.33.73.73,1.51,1.4,2.52,2.34-2.44.76-4.64.93-6.82,1.28-1.16.19-1.44-.58-2.01-1.17-16.86-17.39-28.42-37.52-32.02-61.79-1.04-7.02-1.11-7.01,6.09-7.29.09,0,.19.02.28.03.73.91,1.77,1.3,2.83,1.64-1.41,2.23-1.88,4.67-1.71,7.29.32,5.1,1.45,10.06,2.99,14.9,1.55,4.89,4.92,6.5,9.92,5.02,3.68-1.09,7.36-2.21,11.03-3.31Z"/>
      <path class="f" d="m61.5,288.19c-6.62,2.38-12.35,6.08-16.39,11.91-3.88,5.6-4.58,12.03-4.03,18.65.07.85.76,1.49,1.56,1.91-4.72,6.14-7.57,12.99-7.47,21.35-7.12-4.95-11.65-11.16-14.06-18.81-2.82-8.96-2.38-17.82,2.47-26.01,3.28-5.54,7.59-9.99,14.75-10.44,6.39-.41,12.72-1.69,19.17-1.44,1.95.1,4.29-.33,4,2.88Z"/>
      <path class="f" d="m83.79,213.99c-.91,1.03.33,1.18.71,1.64,1.46,1.77,3.42,3.12,4.46,5.26-1.66,2.69.36,3.3,2.25,3.97,0,0-.03.04-.03.04-.02,1.12-.55,2.86.28,3.22,3.14,1.35,1.9,4.61,3.28,6.69.55.82.05,2.19-.59,2.84-.66.67-1.19-.52-1.79-.86-1.21-.7-2.36-1.57-3.85-1.58-5.24-5.02-11.4-8.42-18.41-10.21-7.2-1.84-14.21-.67-21.1,1.68-.59-.84-1.29-.54-1.98-.17-3.89,2.11-6.59,5.56-9.53,8.69-1.08,1.15-.61,2.32,1.28,2.25,2.11.22,4.13-.51,6.2-.62.18.96.5,2.2,1.68,1.36,1.47-1.05,3.06-.6,4.56-.9,2.04-.42,2.76.58,1.74,2.53l-.22.05s-.22-.05-.22-.05c-1.97-.47-3.92-.71-5.78.4-.39.03-.79.06-1.18.09-1.85-1.3-3.59-1.54-5.08.55-4.65.64-9.38.76-13.91,2.07-1.11.32-1.43.18-1.64-.95-1.81-9.5.24-18.54,7.4-25.11.92-.84,2.01-1.27,3.33-1.33,14.2-.66,28.4-1.38,42.62-1.46,1.85,0,3.69-.84,5.54-.08Z"/>
      <path class="e" d="m400.49,106.37c1.52-.57,2.47.66,3.61,1.21,10.14,4.8,19.53,10.8,28.46,17.58,20.2,15.34,33.33,35.63,42.05,59.12,6.92,18.65,9.59,37.96,9.4,57.75-.5-1.41-2.36-1.04-3.02-2.29-.14-.26-.96-.09-.79.19.91,1.45-2.19,3.32.5,4.53.1.05-.05.65-.08,1-.04.08-.09.16-.13.24.04-.08.09-.16.13-.24,1.22.7,1.28,2.14.93,2.95-1.09,2.5-1.74,4.67,1.35,6.16-1.93,1.39-3.51,1.34-4.48-1.11-.01-5.97.05-11.93-.05-17.9-.29-16.75-3.31-33.04-8.55-48.93-.11-.35-.32-.67-.48-1-.1-.6-.03-1.26-.62-1.68-1.1-2.68-2.21-5.36-3.31-8.03-.86-2.47-2.18-4.71-3.44-6.97-1.31-3.81-3.65-7.09-5.86-10.35-7.9-11.65-17.01-22.24-28.19-30.91-6.75-5.24-13.77-10.04-21.43-13.87-.4-.2-.7-.61-1.05-.93-.98-1.85-1.69-3.92-3.92-4.72-.84-.3-1.2-.87-1.01-1.76Z"/>
      <path class="e" d="m276.14,82.6c1.38-1,3.04-.88,4.6-1.17,1.31.74,1.59,2.72,3.41,2.86.22.59.45,1.18.66,1.78,1.18,3.34,4.03,6.13,3.36,10.08,0,.85,0,1.91-.84,2.23-3.44,1.35-3.36,3.93-2.61,6.82-.76.22-1.53.43-2.29.65-.9-.95,1.8-2.83-.37-2.92-1.46-.06-.46,2.14-.68,3.31-3.7,1.95-7.47,3.17-11.82,3.09-5.26-.1-10.53.61-15.79.98-.66.05-1.43.28-1.78-.46-2.04-4.3-4.97-8.26-5.31-13.24.12-1.47,1.25-1.97,2.37-2.52,8.05-3.97,16.45-7.05,24.94-9.93,1.19-.4,1.18-.41,2.14-1.56Z"/>
      <path class="f" d="m49.46,253.64c-.38.21-.76.42-1.43.79,11.95,1.97,23.69,3.09,35.53,3.19.05.31.1.61.15.92-9.65.73-19.3,1.52-28.9,2.89-.22.12-.44.23-.66.35-.41.01-.83.02-1.24.04-1.32-.9-2.65-1.89-3.36.6-.19.02-.37.05-.56.07-.15-1.02-.75-1.33-1.59-.8-1.93,1.21-4.1,1.13-6.22,1.51-1.91.34-4.15.53-5.3,2.63-.34.09-.68.19-1.03.28-2.77-1.73-3.54-1.43-5.23,2.01-1.23.81-2.46,1.62-3.8,2.5,3.52,2.07,7.4,1.11,10.86,2.21-2.53,1.32-5.46,1.21-8.08,2.29-3.71,1.53-7.18,3.45-10,6.29-1.67,1.69-2.15.95-2.67-.77-3.32-10.98,2.72-21.83,13.98-24.79,6.39-1.68,12.98-1.95,19.54-2.24Z"/>
      <path class="m" d="m276.38,379.22c6.18,1.55,12.23,3.62,18.52,4.78,11.56,2.13,23.19,2.93,34.96,2.42,14.14-.61,27.83-3.38,41.28-7.61.42-.13.93,0,1.4,0-5.47,3.53-11.66,5.32-17.8,7.07-22.81,6.51-45.76,6.14-68.67.61-5.53-1.33-11.02-3.07-16.13-5.73-1.05-2.57-2.08-3.01-3.44-1.46-1.19.14-1.89-.79-2.8-1.27.39-.68.63-1.34-.18-1.93-.54-.4-1.63-.57-1.19-1.53.35-.76,1.33-.31,2.02-.47.16-.02.31.01.45.1.41,1.59,1.64,1.64,2.94,1.55,0,0,0-.04,0-.04.04.45-.05,1.24.14,1.31,2.74,1.06,5.41,2.46,8.5,2.18Z"/>
      <path class="e" d="m194.25,278.02c1.61,12.37,5.27,24.15,9.99,35.66,3.5,8.53,8.36,16.3,13.18,24.1.45.72.83,1.48,1.24,2.22-2.19,1.17-.09,2.11.17,3.14.27,1.06,2.23,1.6.95,3.13-8.48-9.05-15.05-19.35-20.08-30.65-4.42-9.93-8.37-20.05-10.24-30.8-1.04-5.98-2.54-5.17,4.78-6.8Z"/>
      <path class="m" d="m400.49,106.37c-.19.89.16,1.46,1.01,1.76,2.24.8,2.94,2.88,3.92,4.72-8.89-3.85-17.74-7.82-27.1-10.42-13.2-3.66-26.65-5.68-40.37-5.77-3.39-.02-6.75-.25-10.16-.03-2.43.16-1.55-2.44-2.03-3.87,20.8-1.43,41.06,1.53,60.88,7.77,4.51,1.42,9.12,2.66,13.15,5.28.22.2.44.4.66.6,0,0,.04-.06.04-.06Z"/>
      <path class="f" d="m92.37,283.11c6.7,4.93,11.66,11.24,15.2,19-.5-.04-.84.05-.97-.08-8.18-8.24-18.09-12.95-29.54-14.54-.65-.09-1.27-.35-1.91-.53-.57-.86-1.35-1.64-1.11-2.82,6.08-.8,12.2-1.1,18.33-1.02Z"/>
      <path class="m" d="m288.18,96.15c1.74,1.02,3.63.99,5.46.53,7.52-1.88,15.21-2.49,22.87-3.41.78,4.27.79,4.37-3.48,5-9.65,1.43-19.03,3.96-28.3,6.94-.75-2.89-.83-5.47,2.61-6.82.83-.32.83-1.38.84-2.23Z"/>
      <path class="m" d="m478.41,253.45c.98,2.46,2.55,2.5,4.48,1.11,0,0,0,0,0,0,0,.45.09.87.53,1.12-.14,7.02-1.33,13.9-2.78,20.75-.55,2.6-1.03,5.21-1.54,7.82-1.11-1.89-2.59-.52-3.84-.31-.79.13-1.24.1-1.64-.54.92-4.53,2-9.04,2.71-13.61.85-5.42,1.39-10.89,2.07-16.34Z"/>
      <path class="d" d="m192.93,174.42c3.81-6.08,7.41-11.93,11.82-17.24,3.62-4.35,7.64-8.33,11.74-12.22,1.23-1.17,2.93-3.19,4.51-1.62.93.93-1.17,2.53-2.21,3.64-7.18,7.66-13.94,15.68-19.29,24.74-1.54,2.6-3.22,3.69-6.57,2.7Z"/>
      <path class="i" d="m378.76,87c-12.16-2.62-24.37-4.99-36.73-6.39-6.46-.74-12.96-1.19-19.48-.91-.56.02-1.15-.05-1.46.59q-1.88-3.46,1.85-3.4c18.28.35,36.17,3.09,53.62,8.6.91.29,1.86.44,2.2,1.51Z"/>
      <path class="e" d="m169.86,238.46c.95-8.54,3.04-17.26,5.52-25.9.59-2.06,2.49-1.82,3.73-1.68,1.53.17.62,1.67.38,2.52-2.32,8.39-4.36,16.84-5.57,25.47-.22,1.53-.74,2.2-2.39,1.8-1.06-.26-2.17-.24-1.67-2.21Z"/>
      <path class="o" d="m225.54,220.39c4.27-2.03,8.24-.2,12.18,1.11,4.71,1.57,9.31,3.43,13.77,5.67,5.82,2.93,9,7.67,8.37,13.09-.68,5.81-5.07,10.22-11.5,11.55,3.01-2.45,5.72-5.07,7.41-8.72,2.6-5.63.8-11.35-4.6-14.21-5.48-2.91-11.33-4.93-17.02-7.32-2.76-1.16-5.65-1.49-8.61-1.17Z"/>
      <path class="d" d="m188.46,321.13c1.2.13,1.41,1.07,1.75,1.8,3.65,7.94,8.02,15.46,13.12,22.56.42.59,1.48,1.31.45,2.14-.98.79-1.96.39-2.73-.51-2.54-2.95-4.72-6.16-6.72-9.48-2.65-4.37-5.12-8.84-7.06-13.59-.64-1.57-.41-2.53,1.2-2.93Z"/>
      <path class="o" d="m267.64,313.16c7.45-3.47,13.49-1.17,16.41,6.25,1.16,2.94.42,5.81-.6,8.55-.96,2.56-2.41,4.92-4.21,7.02-.47-.04-.94-.08-1.41-.13,1-2.24,2.14-4.42,2.98-6.72,2.65-7.29-1.84-13.72-9.56-14-1.18-.04-2.9,1.09-3.61-.97Z"/>
      <path class="p" d="m164.14,408.37c-.39-.02-.78-.04-1.17-.07-1.52-1.89-6.41-2.68-9.5-1.52-.68.26-1.33.61-1.99.91-.49-1.64-.47-3.55-2.29-4.52,6.71-2.26,13.64-3.09,20.69-3.34.34,1.16-.73,1.24-1.11,1.78-1.81-1.36-2.68-1.07-3.04,1.05-.09.54-.02,1.11-.03,1.66-2.34,1.46-2.49,1.99-.87,2.94-.23.37-.46.73-.69,1.1Z"/>
      <path class="h" d="m276.14,82.6c-.96,1.15-.96,1.15-2.14,1.56-8.48,2.88-16.89,5.96-24.94,9.93-1.12.55-2.25,1.05-2.37,2.52-.56-1.76-1.55-.49-2.17-.18-5.2,2.58-10.36,5.24-15.53,7.87-.22-.2-.44-.41-.66-.61,9.82-6.6,20.34-11.85,31.44-15.91,5.38-1.97,10.78-3.88,16.36-5.18Z"/>
      <path class="m" d="m310.43,79.03c-8.05,1.55-16.25,2.33-24.18,4.52-.73.2-1.47.29-2.1.74-1.82-.14-2.1-2.12-3.41-2.86,8.79-2.63,17.94-3.07,26.96-4.34,1.38-.19,2.74,0,2.73,1.93Z"/>
      <path class="l" d="m468.7,183.93c.59.42.53,1.08.62,1.68-1.59-.15-2.94-.08-4.42,1.03-1.35,1.01-3.18.57-4.1-1.3-.49-2.48-1.32-4.81-2.88-6.84-.02-.42.02-.9-.63-.85,0,0,.03,0,.03,0,.45-1.08-.69-1.81-.63-2.81,4.02.23,4,.23,4.61-4.08.09-.63.43-1.23.66-1.84,1.26,2.27,2.58,4.51,3.44,6.97-.68.33-1.32.64-2.15.28-.69-.3-1.55-.44-1.87.57-.29.94.32,1.26,1.1,1.63,1.22.59,1.91,1.58,2.32,3,.5,1.75,1.61,3.24,3.92,2.55Z"/>
      <path class="p" d="m44.97,236.83c10.14-2.16,20.05-1.31,29.74,2.29-7.25.3-14.49.95-21.76.69,1.02-1.95.3-2.94-1.74-2.53-1.5.31-3.09-.15-4.56.9-1.18.84-1.5-.4-1.68-1.36Z"/>
      <path class="e" d="m264.35,374.11c-.69.15-1.67-.29-2.02.47-.45.95.65,1.13,1.19,1.53.8.6.57,1.25.18,1.93-1.25.33-2.19-.54-3.13-1.02-4.08-2.04-8.06-4.25-12.08-6.4-1.27-.68-1.71-1.23.08-1.86,1.49-.52,2.9-1.26,4.35-1.9.17,2.45,2.37,2.65,3.94,3.38,2.56,1.19,5.13,2.32,7.5,3.87Z"/>
      <path class="p" d="m74.04,284.14c-.23,1.18.54,1.96,1.11,2.82-4.59-.05-9.16.15-13.65,1.23.3-3.22-2.05-2.78-4-2.88,5.48-.84,11-1.14,16.53-1.17Z"/>
      <path class="d" d="m219.79,346.26c1.28-1.53-.68-2.07-.95-3.13-.26-1.04-2.36-1.97-.17-3.14,3.21,4.12,6.24,8.4,10.38,12.05-1.17.89-2.44.7-3.54,1.02-1.91-2.27-3.81-4.53-5.72-6.8Z"/>
      <path class="h" d="m242.56,265.9c.21.94.42,1.87.63,2.81-.22.19-.44.38-.65.56-4.9.05-9.8.11-14.71.16-.59-.15-1.28.02-1.74-.54,5.49-1,10.98-2,16.47-2.99Z"/>
      <path class="p" d="m91.09,239.1c.09-1.93-2.06-2.37-2.59-3.89,1.5,0,2.64.88,3.86,1.58.6.34,1.13,1.53,1.79.86.64-.65,1.14-2.01.59-2.84-1.38-2.08-.13-5.34-3.28-6.69-.83-.36-.3-2.1-.28-3.22,2.97,2.68,3.83,6.41,4.92,10,.4,1.34.49,2.77.73,4.15-1.91.02-3.83.03-5.74.05Z"/>
      <path class="p" d="m73.96,397.54c1.75-.02,2.76,1.52,4.26,2.03,2.21.74,2.99.12,2.67-2.14,1.19,1.84,2.27,3.73,3.3,6.53-3.95-2.26-7.94-2.92-10.24-6.41Z"/>
      <path class="p" d="m246.03,169.8c.41,3.56-2.66,4.89-4.54,6.92-.7.75-1.92,1.03-2.9,1.52,2.18-3.08,4.73-5.83,7.45-8.45Z"/>
      <path class="j" d="m226.09,268.9c.46.57,1.15.39,1.74.54-2.27.79-4.8.74-6.86,2.19-1.06-.34-2.09-.74-2.83-1.64,2.58-.83,5.28-.81,7.94-1.09Z"/>
      <path class="i" d="m277.84,334.85c.47.04.94.08,1.41.13-.16.71-.33,1.42-.49,2.13-1.15.98-2.31,1.96-2.09,3.72-.86.54-1.79.85-2.82.82.86-2.54,2.51-4.62,3.99-6.8Z"/>
      <path class="h" d="m472.71,309.32c-.35-.19-.73-.52-.52-.87,1.64-2.77,1.97-6.03,3.3-8.9.09.41.18.83.28,1.24.28-.23.56-.46.84-.68-.63,3.35-2.06,6.37-3.89,9.21Z"/>
      <path class="p" d="m40.46,240.85c1.49-2.09,3.23-1.85,5.08-.55-1.64.73-3.39.35-5.08.55Z"/>
      <path class="e" d="m266.49,379.31c1.36-1.54,2.39-1.1,3.44,1.46-1.41.12-2.36-.8-3.44-1.46Z"/>
      <path class="j" d="m228.34,103.69c.22.2.44.41.66.61-1.24,1.19-2.83,1.79-4.31,2.58-.14-.16-.27-.32-.41-.48,1.11-1.27,2.66-1.88,4.06-2.72Z"/>
      <path class="i" d="m456.2,174.79c-1.71-.77-2.28-2.39-2.91-3.96.19-.2.37-.41.56-.61,1.1,1.36,1.88,2.89,2.35,4.57Z"/>
      <path class="m" d="m281.39,106.24c.23-1.17-.77-3.37.68-3.31,2.17.09-.54,1.98.37,2.92-.35.13-.7.26-1.05.39Z"/>
      <path class="p" d="m46.72,240.21c1.86-1.11,3.81-.87,5.78-.4-1.88.81-3.84.39-5.78.4Z"/>
      <path class="i" d="m456.69,174.84c-.06,1,1.08,1.73.63,2.81-1.92-.36-1.01-1.83-1.13-2.9.18-.02.34.01.5.08Z"/>
      <path class="j" d="m224.69,106.89c-.52.31-.94.85-1.67.64-.05-.91.64-.98,1.27-1.12.14.16.27.32.41.48Z"/>
      <path class="h" d="m243.72,265.5c-.31.39-.68.57-1.18.42.34-.28.68-.59,1.18-.42Z"/>
      <path class="h" d="m453.85,170.22c-.19.2-.37.41-.56.61.01-.39.02-.77.03-1.16.18.18.35.37.53.55Z"/>
      <path class="m" d="m417.93,138.44c.51-.05.96.02,1.17.58-.57.18-.96-.02-1.17-.58Z"/>
      <path class="m" d="m417.43,138.34c.29-.43.43-.27.5.14-.19.04-.36,0-.5-.14Z"/>
      <path class="m" d="m295.06,121.65c.09-.16.17-.32.26-.49.1.11.19.21.29.32-.18.06-.37.11-.55.16Z"/>
      <path class="p" d="m247.13,168.89c-.1.12-.22.21-.36.27.04-.2.16-.29.36-.27Z"/>
      <path class="p" d="m247.72,168.12c-.04.17-.12.32-.25.43-.02-.21.06-.35.25-.43Z"/>
      <path class="h" d="m200.34,213.44c.31-1.83.59-3.68.95-5.5.12-.61.33-1.41,1.24-1.12.83.27.33.87.19,1.37-.59,2.16-1.17,4.32-1.76,6.48-.51-.26-.53-.76-.62-1.23Z"/>
      <path class="j" d="m200.34,213.44c.09.47.12.97.62,1.23-.16,1.85-.65,3.58-1.65,5.16h-.01c-.17-2.22.32-4.32,1.04-6.39Z"/>
      <path class="j" d="m199.31,219.83l-.16,1.08c-.1-.07-.27-.12-.28-.2-.04-.37,0-.74.43-.89,0,0,.01,0,.01,0Z"/>
      <path class="i" d="m457.29,177.65c.65-.04.61.43.63.85-.21-.28-.42-.57-.63-.85Z"/>
      <path class="k" d="m320.66,317.88c-8.3-.28-15.55-1.73-21.72-6.45-10.1-7.74-15.57-18.14-17.07-30.69-1.43-12.02.8-23.42,5.96-34.32.73-1.54.87-1.76,2.35-.36,8.99,8.45,19.05,15.57,30.18,20.75,15,6.97,30.9,11.09,47.56,11.75,2.56.1,2.97.67,1.73,3.02-8.11,15.21-18.96,27.6-35.6,33.81-4.51,1.68-9.25,2.53-13.39,2.5Zm-1.65-15.64c0-1.23-.1-2.43-.48-3.63-3.14-10-10.47-15.01-20.26-17.04-5.49-1.14-6.75.36-4.82,5.68,3.37,9.3,9.81,15.66,18.94,19.32,4.6,1.84,6.72.42,6.62-4.33Z"/>
      <path class="k" d="m286.75,214.08c1.13-16.38,7.19-30.21,21.87-38.74,9.97-5.79,20.38-5.22,28.59,3.72,4.66,5.07,6.31,11.64,6.73,18.49.52,8.46-.96,16.71-4.9,24.01-5.82,10.78-13.74,19.75-27.02,21.18-7.68.83-14.13-1.89-18.99-8.13-4.71-6.05-6.3-12.98-6.29-20.53Zm27.61-11.85c-.16,1.17.13,2.68.56,4.12,1.31,4.35,3.97,7.45,8.6,8.37,4.36.86,7.49-1.25,9.76-4.65,3.64-5.43,3.3-11.12.16-16.6-3.24-5.65-10.9-6.44-15.11-1.66-2.5,2.84-3.92,6.2-3.99,10.43Zm-6.86,22.5c.05,2.94,2.65,5.71,5.23,5.57,2.49-.13,4.89-2.88,4.88-5.61,0-2.9-2.31-5.31-5.1-5.34-2.72-.03-5.06,2.48-5.01,5.38Z"/>
      <path class="k" d="m357.25,242.72c1.44-16.15,7.34-29.84,22.35-37.92,7.2-3.88,14.77-4.07,21.59,1.2,4.97,3.84,7.21,9.39,8.3,15.42,2.38,13.22-.66,25.24-8.69,35.84-4.81,6.35-11.26,10.91-19.29,11.95-11.15,1.44-19.36-4.59-22.7-15.82-1.03-3.46-1.5-6.99-1.55-10.68Zm26.99-12.07c-.13,3.09.86,5.94,3.1,8.35,3.64,3.91,8.52,3.88,12.4.23,4.18-3.92,4.3-12.27,1.13-17.05-2.74-4.13-7.82-5.28-11.77-2.32-3.49,2.62-4.95,6.28-4.87,10.78Zm3.43,20.4c-.04-2.66-2.3-4.96-4.83-4.89-2.47.06-4.6,2.29-4.59,4.79.01,2.86,2.23,5.11,4.93,5,2.51-.1,4.51-2.29,4.48-4.9Z"/>
      <path class="k" d="m236.85,193.04c3.58-7.65,8.85-14.04,15.01-19.72.72-.67,1.77-.98,2.67-1.46,2.73-.11,5.32.23,7.29,2.42.1.36.3.58.7.56,0,0-.01-.01-.01-.01,1.19,2.33,2.84,4.33,4.57,6.27,0,0,0,0,0,0,1.52,3.02,3.2,5.97,4.54,9.06,3.65,8.38.84,15.65-7.35,19.46-4.55.03-8.66-1.62-12.49-3.76-4.2-2.34-8.11-5.21-12.18-7.79-1.88-1.19-2.35-3.06-2.74-5.02Z"/>
      <path class="g" d="m220.98,271.63c2.06-1.45,4.59-1.4,6.86-2.19,4.9-.05,9.8-.11,14.71-.16,1.85.56,3.75,1.02,5.55,1.7,4.58,1.73,8.06,4.46,8.52,9.82.32,3.67-1.43,6.49-3.62,9.16-2.04,2.32-5.05,2.96-7.6,4.4-.72.41-1.45.78-2.18,1.17-3.68,1.1-7.35,2.22-11.03,3.31-5,1.48-8.37-.13-9.92-5.02-1.54-4.84-2.67-9.79-2.99-14.9-.17-2.61.29-5.06,1.71-7.29Z"/>
      <path class="g" d="m381.49,150.92c2.03-.76,4.05-.2,5.69.75,5.21,3.02,10.39,6.12,14.31,10.91,1.22,1.5,2.17,3.07,2.9,4.82-1.11,6.22-5.56,10.53-8.9,15.47-.56.83-1.25.68-2.2.31-6.53-2.58-13.07-2.76-19.47.43-1.21.6-1.55.2-2.06-.9-1.27-2.76-.92-5.6-.43-8.35,1.53-8.59,4.53-16.6,10.16-23.44Z"/>
      <path class="l" d="m381.37,337.74c.68,5.91-.27,7.92-5.57,10.8-3.89,2.11-7.77,4.19-12.31,4.85-3.16.46-4.85-.51-5.68-3.49-.3-1.07-.86-2.08-1.3-3.11-.86-4.52-1.76-9.04-2.57-13.57-1.5-8.36,5.49-15.05,13.58-12.86,3.11.84,5.24,3.31,6.98,5.87,2.52,3.69,5.21,7.3,6.87,11.51Z"/>
      <path class="g" d="m327.02,139.56c1.45-1.3,3.28-1.55,5.05-1.48,5.47.23,10.95.33,16.35,1.4,1.52.3,2.9.79,4.09,1.79,1.86,1.71,2.35,3.94,2.57,6.34.7,7.37-1.36,19.05-5.67,23.24-1.97-2.31-3.58-4.87-5.85-6.95-3.88-3.54-8.35-5.42-13.49-5.45-2.25-.01-2.94-.9-3.26-2.87-.55-3.46-1.11-6.9-1.25-10.41-.08-2.05.24-3.93,1.45-5.62Z"/>
      <path class="g" d="m332.66,349.15c-.05,1.6-.07,3.21-.14,4.81-.18,4.07-2.61,6.73-6.66,7.1-5.29.49-10.54.12-15.76-.82-5-.9-7.78-4.46-5.56-9.37.15-.33.14-.74.2-1.11.32-.12.48-.33.41-.68,0,0,.02-.05.02-.05,1.77-3.42,3.27-6.97,5.37-10.23,4.7-7.29,12.82-8.76,18.06-2.07.6.77,1.27,1.4,2.3,1.51,1.18,3.54,1.09,7.29,1.76,10.92Z"/>
      <path class="g" d="m278.06,154.24c2.36-3.75,6.34-5.17,10.08-6.85,3.92-1.76,7.88-3.72,12.43-2.66,4.89,3.24,5.45,8.68,6.92,13.65.13.45.11.95.27,1.38.79,2.14.32,3.45-1.96,4.49-6.09,2.78-11.06,6.95-14.55,12.76-.42.7-.74,1.56-1.91,1.95-4.12-6.88-8.52-13.67-11.23-21.36-.39-1.1-.31-2.23-.05-3.36Z"/>
      <path class="g" d="m418,306.84c-.41,3.45-2.73,5.93-4.56,8.61-2.1,3.08-4.42,6.02-7.18,8.57-.92.85-1.91,1.51-3.11,1.85-2.65-.27-4.35-2.12-6.04-3.84-3.32-3.38-6.73-6.68-9.42-10.62-.8-1.17-1.51-2.37-1.72-3.8.03-.09.1-.2.07-.27-.07-.16-.19-.3-.29-.45-.04-.33-.08-.66-.12-.99,1.22-.53,1.15-1.85,1.68-2.8,2.56-4.62,5.82-8.29,13.04-7.01,2.31.41,4.28,2,6.74,1.82,0,0,.01.02.01.02,1.01,1.95,3.3,1.65,4.8,2.73,3.55.56,5.46,2.75,6.1,6.18Z"/>
      <path class="g" d="m435.72,256.2c.06,8.93-1.49,17.53-5.27,25.67-6.76.53-13.26-.93-19-4.16-5.28-2.97-6.05-8.14-1.89-14.39,4.71-7.08,12.27-8.84,20.07-9.82,2.49-.31,4.58.64,6.09,2.7Z"/>
      <path class="g" d="m426.39,198.92c4.2,6.55,6.1,13.91,7.52,21.44.18.97.05,1.88-.64,2.65-3.51,3.59-7.97,5.58-12.54,7.36-1.03.4-1.63.17-1.48-1.14.96-8.14-.91-15.91-3.22-23.61-1.4-4.65.81-7.65,5.8-7.69,1.57-.01,3.16.12,4.57.98Z"/>
      <path class="d" d="m330.9,338.23c-1.03-.11-1.7-.74-2.3-1.51-5.24-6.69-13.36-5.22-18.06,2.07-2.1,3.26-3.6,6.81-5.37,10.23-.21-.76-.42-1.51-.62-2.27,2.66-4.55,4.35-9.7,8.03-13.61,3.07-3.25,6.97-4.53,11.35-3.26,4.09,1.19,6.54,3.99,6.98,8.35Z"/>
      <path class="o" d="m252.99,289.95c2.19-2.66,3.94-5.49,3.62-9.16-.46-5.35-3.94-8.09-8.52-9.82-1.81-.68-3.7-1.14-5.55-1.7.22-.19.44-.38.65-.56,0,0,.05.03.05.03.12.37.27.28.42.02,4.78.59,9.59,1.1,13.15,4.94,2.64,2.84,3.55,6.17,2.55,9.9-.88,3.29-2.96,5.53-6.39,6.35Z"/>
      <path class="o" d="m264.26,209.61c8.19-3.8,11-11.08,7.35-19.46-1.35-3.09-3.02-6.04-4.54-9.06,2.56.57,2.73,3.18,3.77,4.85,2.36,3.8,4.79,7.62,4.95,12.45.22,6.66-4.78,11.72-11.54,11.21Z"/>
      <path class="o" d="m407.09,297.91c-2.45.18-4.42-1.41-6.74-1.82-7.21-1.29-10.48,2.39-13.04,7.01-.52.95-.45,2.27-1.68,2.8-.51-7.15,4.84-12.28,12.22-11.49,3.32.36,6.52,1.35,9.23,3.5Z"/>
      <path class="p" d="m35.87,265.84c1.14-2.1,3.39-2.3,5.3-2.63,2.12-.37,4.29-.3,6.22-1.51.84-.53,1.44-.22,1.59.8-4.37,1.11-8.74,2.23-13.11,3.34Z"/>
      <path class="p" d="m276.67,340.82c-.22-1.75.94-2.73,2.09-3.72,1.32.45,2.49,1.3,4.62,1.42-2.53,1.32-4.42,2.34-6.71,2.3Z"/>
      <path class="p" d="m29.62,268.13c1.69-3.44,2.46-3.74,5.23-2.01-1.66.9-3.34,1.71-5.23,2.01Z"/>
      <path class="o" d="m267.08,181.1c-1.72-1.94-3.38-3.94-4.57-6.27,2.13,1.65,4.24,3.31,4.57,6.27Z"/>
      <path class="h" d="m83.71,258.54c-.05-.31-.1-.61-.15-.92,1.85.22,3.8-.22,5.98.97-2.24.75-4.04.26-5.83-.05Z"/>
      <path class="f" d="m165.7,404.33c0-.55-.06-1.12.03-1.66.35-2.12,1.23-2.41,3.04-1.05-.24.34-.48.68-.73,1.02-.2.2-.4.4-.59.61,0,0,.03-.02.03-.02-.2.2-.39.39-.59.59,0,0,.04.01.04,0-.41.17-.81.34-1.22.51l-.02-.02Z"/>
      <path class="o" d="m411.9,300.66c-1.5-1.08-3.79-.78-4.8-2.73,1.83.51,3.94.53,4.8,2.73Z"/>
      <path class="p" d="m49.54,262.43c.71-2.49,2.04-1.51,3.36-.6-1.08.45-2.17.83-3.36.6Z"/>
      <path class="f" d="m164.83,407.27c-1.62-.95-1.47-1.48.87-2.94,0,0,.02.02.02.02.02.4.05.79.07,1.19,0,0-.01-.02-.01-.02-.59.24-.62.73-.58,1.26-.12.17-.24.33-.37.5Z"/>
      <path class="p" d="m165.79,405.54c-.02-.4-.05-.79-.07-1.19.4-.17.81-.34,1.22-.51-.01.82-.35,1.42-1.14,1.71Z"/>
      <path class="p" d="m165.2,406.78c-.04-.53,0-1.02.58-1.26.1.56-.14.95-.58,1.26Z"/>
      <path class="o" d="m385.76,306.87c.1.15.22.29.29.45.03.07-.05.18-.07.27-.32-.17-.43-.4-.21-.72Z"/>
      <path class="h" d="m243.67,268.76c-.15.27-.3.36-.42-.02.14-.04.28-.03.42.02Z"/>
      <path class="p" d="m167.45,403.25c.2-.2.4-.4.59-.61-.2.2-.4.4-.59.61Z"/>
      <path class="p" d="m166.89,403.82c.2-.2.39-.39.59-.59-.19.2-.39.39-.59.59Z"/>
      <path class="o" d="m262.52,174.84c-.4.02-.6-.2-.7-.56.38,0,.65.14.7.56Z"/>
      <path class="p" d="m54.15,261.79c.22-.12.44-.23.66-.35-.22.12-.44.23-.66.35Z"/>
      <path class="d" d="m305.14,349.07c.08.35-.09.56-.41.68-.07-.35.06-.58.41-.68Z"/>
      <path class="m" d="m480.62,245.45c.03-.35.18-.95.08-1-2.7-1.21.4-3.08-.5-4.53-.17-.28.65-.45.79-.19.66,1.25,2.52.88,3.02,2.29,0,.2,0,.39-.01.59-.75.73-.73,1.48-.05,2.24.05,3.25.33,6.5-.47,9.71-.19,0-.38,0-.57,0,0,0,0,0,0,0-3.09-1.49-2.44-3.65-1.35-6.16.35-.81.3-2.26-.93-2.95h0Z"/>
      <path class="e" d="m483.94,244.86c-.67-.76-.69-1.51.05-2.24-.02.75-.04,1.49-.05,2.24Z"/>
      <path class="e" d="m482.9,254.57c.19,0,.38,0,.57,0-.01.37-.03.75-.04,1.12-.44-.25-.52-.67-.53-1.12Z"/>
      <path class="e" d="m400.45,106.43c-.22-.2-.44-.4-.66-.6.22.2.44.4.66.6Z"/>
      <path class="p" d="m91.21,224.86c-1.9-.67-3.91-1.27-2.25-3.97,1.22,1.06,2.2,2.25,2.25,3.97Z"/>
      <path class="p" d="m49,226.68c-2.96,2.21-6.3,3.98-8.49,7.09-.78,1.11-1.98,2.07-1.75,3.68-1.89.07-2.36-1.1-1.28-2.25,2.95-3.13,5.65-6.57,9.53-8.69.69-.38,1.39-.67,1.98.17Z"/>
      <path class="g" d="m468.7,183.93c-2.3.69-3.42-.8-3.92-2.55-.41-1.42-1.1-2.42-2.32-3-.78-.38-1.39-.7-1.1-1.63.32-1.02,1.18-.87,1.87-.57.83.36,1.46.05,2.15-.28,1.1,2.68,2.21,5.36,3.31,8.03Z"/>
      <path class="m" d="m480.62,245.45c-.04.08-.09.16-.13.24.04-.08.09-.16.13-.24h0Z"/>
      <path class="e" d="m276.38,379.22c-3.09.27-5.75-1.12-8.5-2.18-.19-.07-.1-.85-.14-1.31,3.05.74,5.83,2.15,8.63,3.49Z"/>
      <path class="e" d="m267.74,375.77c-1.3.09-2.53.04-2.94-1.55,1.19.11,2.24.52,2.94,1.55Z"/>
    </g>
  </g>
</svg>