<?xml version="1.0" encoding="UTF-8"?>
<svg id="b" data-name="Layer 2" xmlns="http://www.w3.org/2000/svg" viewBox="0 0 607 574">
  <defs>
    <style>
      .d {
        stroke-width: 0px;
      }
    </style>
  </defs>
  <g id="c" data-name="Layer 1">
    <g>
      <path class="d" d="m607,380c-2.41.72-4.79,1.94-7.22,2.07-5.78.3-11.6.33-17.37-.07-1.53-.11-2.92-2.15-4.38-3.3,1.41-.95,2.79-2.66,4.24-2.73,6.28-.3,12.58-.29,18.86-.02,1.98.09,3.91,1.33,5.86,2.04v2Z"/>
      <path class="d" d="m510.13,392.33c2.36-6.97,4.4-13.02,6.51-19.25,9.95,1.27,19.85,4.99,30.35-2.57-9.3-1.87-17.39-3.51-26.18-5.28,3.3-4.48,5.95-8.48,9.09-12.07.8-.92,3.17-.84,4.75-.65,5.91.71,11.77,2.03,17.7,2.39,4.19.25,7.93-1.66,11.06-5.67-9.09-1.43-17.56-2.77-26.5-4.17,1.43-2.4,2.59-4.36,3.77-6.35-5.78-.51-19.91,13.28-26.33,23.32-6.63,10.37-11,21.58-13.29,34.19-2.15-.45-4.02-.85-6.46-1.36,1.01-9.79,1.78-19.39,3.02-28.93,3.01-23.12,1.47-45.54-9.62-66.59-1.7-3.23-3.55-6.42-5.68-9.39-2.02-2.82-1.67-4.68.7-7.27,10.73-11.73,12.15-27.77,3.75-39.83-1.42-2.03-3.16-3.88-4.96-5.59-6.68-6.38-6.71-6.35-7.71-15.07h-7.53c-.25,2.11-.49,4.19-.77,6.53h-13.97v-21.56c0-22,.16-44-.11-66-.07-5.71,1.55-9.71,6.25-13.08,5.4-3.88,10.44-8.3,15.35-12.79,3.67-3.36,7.58-5.03,12.61-4.53,2.76.27,5.61-.28,9.64-.54-26.65-30.62-58.39-52.22-94.77-67.37-36.64-15.25-74.71-21.27-114.64-17.98-.95,11.19-1.54,22.11,3.38,32.41.81,1.69,3.02,3.22,4.9,3.79,5.2,1.59,10.56,2.63,16.47,4.03v24.58h29.27c0,5.32,0,10.09,0,14.86,0,10.17.26,20.34-.11,30.49-.18,4.9.95,7.61,6.29,7.35.97-.05,1.95.32,3.7.64.32-5.58.7-10.96.92-16.34.65-15.47,1.31-30.94,1.8-46.41.08-2.67.97-3.81,3.58-4.34,6.19-1.26,12.32-2.84,18.48-4.25,10.13-2.31,19.84,5.09,19.97,15.44.22,18.16.24,36.32.37,54.49.07,9.16.43,18.33.25,27.48-.09,4.71,1.6,7.5,6.05,8.97,2.44.8,4.71,2.11,6.02,2.72,0-5.78.03-11.65,0-17.51-.09-13.33-.11-26.66-.39-39.98-.08-3.72,1.15-4.94,4.87-4.86,10.14.21,20.28.07,31.03.07v5.74c0,29.83,0,59.66,0,89.48,0,1.33-.03,2.67.01,4,.43,13.69,2.4,15.87,15.85,17.19,11.44,1.13,20.61,5.36,24.22,17.35,4.39,14.59-3.04,26.46-18.07,28.91-1.8.29-3.6.62-6.26,1.08,2.28,2.65,4.16,5.06,6.26,7.26,11.28,11.78,17.12,25.97,18.87,42.02,1.65,15.2,1.38,30.23-3.41,44.98-.84,2.6-.59,5.6-.6,8.42-.06,11,.03,22-.04,33-.09,14.18-7.42,21.64-21.54,21.86-4.15.06-8.35-.05-12.45-.62-8.26-1.14-12.25-5.49-13.1-13.84-.3-2.97-.31-5.96-.5-9.92-84.5,8.4-168.87,8.59-253.85-.17,0,2.55-.09,4.78.02,7.01.46,9.23-4.82,16.02-13.95,16.83-5.92.53-11.97.45-17.89-.14-8.87-.89-14.37-7.09-14.68-16.09-.39-11.15.02-22.34-.83-33.45-.82-10.76-3.03-21.4-4.22-32.13-3-27.1,2.16-51.74,22.35-71.65.8-.79,1.42-1.78,2.55-3.21-2.15-.41-3.83-.79-5.53-1.05-11.7-1.75-17.85-7.17-19.65-17.35-1.77-10.05,3.17-21.42,12.51-25.56,5.76-2.56,12.38-3.72,18.72-4.24,5.13-.42,8.3-1.39,8.45-7.13.19-7.48.84-14.95.89-22.42.21-30.49.26-60.99.37-91.48.03-8,1.22-9.16,9.32-9.18,4,0,8,.06,12-.02,4.31-.09,6.64,1.91,6.65,6.24.04,23.5.12,47-.14,70.5-.03,2.39-2.26,4.76-3.37,6.94,4.57-2.67,9.85-5.32,14.55-8.76,1.58-1.15,2.37-4.3,2.38-6.55.17-21.5.1-43,.1-64.5,0-1.79,0-3.58,0-5.6h40.71c.1,1.4.28,2.83.28,4.26.02,12.17-.44,24.35.15,36.49.48,9.92-3.5,18.02-7.95,25.81,9.79,0,19.79.03,29.79-.05.72,0,1.64-.62,2.1-1.23,6.82-8.88,16.53-9.72,26.58-9.7,1.31,0,2.61,0,4.65,0v-15.99c14.96,2.99,29.11,5.82,43.26,8.66.16.03.32.13.48.13,10.28.07,16.06,5.64,18.83,15.13.95,3.27,2.96,5.47,7.75,4.74-3.44-6.8-6.42-13.23-9.97-19.33-.89-1.54-3.51-2.49-5.5-2.9-16.44-3.44-32.91-6.79-49.42-9.88-2.6-.49-5.68-.02-8.2.92-14.01,5.25-27.92,10.8-41.87,16.23-1.65.64-3.34,1.17-4.66,1.64.42-3.77,1.11-7.2,1.13-10.64.09-27.33.05-54.66.05-81.81,4.27-1.06,8.32-2.25,12.45-3.04,3.52-.68,5.22-3.01,5.66-6.07,1.4-9.81,2.51-19.65,3.74-29.61-40.69-.93-125.56,42.14-152.92,77.57,3.94,0,7.16.4,10.24-.09,5.15-.82,9.16.58,12.38,4.61.72.9,1.56,1.93,2.57,2.33,3.91,1.55,4.4,4.34,3.14,8.41h-33.34v5.12h34.72c0,8.17,0,15.95,0,23.72,0,5.33-.05,10.67.04,16,.02,1.46,0,3.89.73,4.22,4.88,2.2,3.14,6.39,3.17,9.86.14,15.16.06,30.33.06,45.5v6.04c-5.2,0-9.86-.39-14.44.07-20.92,2.11-37.72,31.86-19.39,51.7,3.75,4.06,3.47,6.91.81,11.06-14.54,22.64-16.76,47.57-13.42,73.54,1.22,9.53,1.92,19.12,2.86,28.81-2.3.41-3.91.69-6.34,1.12-5.78-24.66-18.65-44.55-41.7-58.89,1.2,3.34,2.01,5.6,3.01,8.41-8.2,1.33-16.46,2.68-24.91,4.05,6.22,7.57,16.95,8.24,31.47,2.02,3.56,4.39,7.2,8.89,11.38,14.04-8.97,1.78-17.3,3.43-26.69,5.3,7.27,5.46,14.41,5.16,21.65,4.15,1.47-.21,2.95-.6,4.35-1.11,2.91-1.08,4.78-.34,5.81,2.7,1.58,4.71,3.3,9.37,5.34,15.14-2.5-.81-4.09-1.36-5.71-1.84-8.12-2.39-16.13-5.33-24.39-6.98-9.59-1.91-19.11.07-27.46,4.99-4.41,2.6-8.34,6.69-11.24,10.95-2.39,3.51-4.5,4.34-8.13,3.07-2.67-.93-5.71-1.2-7.98-2.69-1.53-1-2.46-3.53-2.73-5.51-.08-.61,2.98-2.52,4.42-2.34,10.09,1.27,17.46-2.71,24.17-10.09,4.26-4.69,10.21-7.84,16.05-12.16-10.15-2.81-17.09-9.73-24.35-16.28-7.16-6.46-14.65-12.57-21.95-18.8,11.29-26.79,48.15-48.36,86.42-14.99,3.2-3.74,2.77-6.93-.81-10.27-15.32-14.29-28.31-30.49-39.16-48.41-1.27-2.1-2.41-4.29-3.69-6.59,8.35-.95,13.99,1.13,19.16,8.35,8.48,11.84,18.79,22.39,28.46,33.37,1.83,2.07,4.27,3.6,6.71,5.61,2.47-4.24,4.71-8.08,7.07-12.13-13.26-12.26-26.31-24.32-39.7-36.7,1.95-1.4,3.61-2.41,5.07-3.67,3.28-2.83,6.17-2.18,9.27.42,5.96,5.01,12.06,9.86,18.07,14.75.47-.49.84-.7.85-.92.62-17.3,1.62-34.6,1.68-51.9.05-14.47-1.21-28.94-1.47-43.41-.22-12.15.16-24.32.25-36.47.01-1.77-.14-3.54-.28-6.54-1.82,2.07-3.01,3.12-3.84,4.4-7.67,11.88-15.41,23.72-22.8,35.77-1.88,3.06-3.15,4.01-6.9,2.83-5.45-1.71-11.28-2.2-17.46-3.3,15.06-35.69,38.58-65.85,68.01-91.53C169.67,33.62,220.65,8.71,279.84,3.1c144.5-13.7,247.87,83.18,278.72,161.06-7.14.93-14.36,1.87-22.09,2.88-7.76-12.19-16.19-25.44-24.62-38.69-.62.19-1.23.38-1.85.56v4.51c0,19.33.1,38.67-.12,58-.03,2.75-1.64,5.47-2.49,8.21-.48,1.54-1.33,3.1-1.32,4.65.03,6.97-1.92,14.21,3.08,20.58,1.05,1.34.8,3.84.81,5.81.07,10.45.03,20.91.03,32.39,5.35-4.24,10-7.89,14.6-11.59q6.9-5.56,14.14.17c-8.09,11.24-18.95,19.58-29.52,28.21-.39.32-.81.59-1.2.89q-10.95,8.53-3.15,21.6c6.23-5.9,12.63-11.35,18.29-17.49,6.42-6.97,12.57-14.28,18.11-21.97,4.63-6.42,9.56-11.01,18.33-8.9-.27.66-.54,1.68-1.06,2.56-11.46,19.33-24.83,37.07-42.51,51.24-3.56,2.86-5.75,6.11-2.28,11.41,15.98-14.58,33.97-22.16,55.56-14.31,12.1,4.4,24.76,16.78,30.88,29.82-12.39,6.15-21.54,16.34-31.58,25.53-4.06,3.71-9.44,5.98-14.7,9.2,1.84.97,3.97,1.75,5.68,3.07,5.9,4.55,11.92,9.01,17.37,14.07,3.15,2.92,6.04,4.89,10.5,4.36,2.78-.34,5.7-.26,8.45.23,1.28.23,3.06,1.74,3.25,2.9.19,1.21-.92,3.38-2.04,3.91-3.44,1.63-7.09,2.91-10.79,3.8-1.2.29-3.56-.63-4.1-1.67-9.93-19.03-32.42-20.69-49.58-15.25-7.22,2.29-14.38,4.78-22.52,7.5Zm-135.41-85.85c10.05-.63,19.49-6.49,23.91-18.42,2.18-5.87,5.31-7.65,11.15-7.82,8.96-.27,17.92-1.26,26.84-2.28,6.09-.7,7.61-3.1,5.97-8.82-4.18-14.55-8.27-29.12-12.81-43.55-5-15.87-15.14-27.46-30.19-34.79-12.39-6.03-25.59-8.55-39.16-8.71-29.14-.34-58.29-.55-87.43-.11-15.1.23-30.37.76-45.21,3.26-23.43,3.95-40.08,17.08-46.98,40.76-4.09,14.05-8.23,28.09-12.28,42.15-1.98,6.88-.37,9.18,6.84,9.79,9.62.82,19.25,1.55,28.87,2.29,2.98.23,5.31.79,6.2,4.42,5.41,22.02,33.77,28.94,49.61,13.6,1.59-1.54,4.35-2.61,6.58-2.64,25.15-.29,50.3-.49,75.45-.27,3.46.03,7.36,1.83,10.24,3.94,5.99,4.38,12.27,7.28,22.39,7.2Zm81.15-8.97c5.91,6.58,10.56,13.77,11.88,22.71,1.97,13.34,1.29,26.62-1.92,39.67-3.49,14.16-12.58,23.15-26.68,26.91-3.69.98-7.48,1.66-11.26,2.23-31.85,4.79-63.96,6.08-96.09,6.41-23.65.24-47.34.45-70.95-.61-26.92-1.21-53.81-3.42-80.64-6.02-19.28-1.87-31.04-12.69-35.18-31.54-4.36-19.87-4.8-39.51,7.09-57.64-2.9,3.22-5.71,6.5-7.69,10.21-6.01,11.26-6.6,23.6-6.2,35.98,1,31.39,15.68,49.19,44.85,51.95,33.46,3.16,67.03,5.62,100.61,6.81,24.24.86,48.61-.28,72.86-1.58,25.07-1.34,50.11-3.54,75.08-6.15,17.67-1.85,31.06-10.37,36.92-28.25,5.21-15.92,5.79-31.99,1.89-48.25-2.22-9.28-6.5-17.28-14.56-22.81Zm-149.75,61.91c7.11-1.5,14.41-2.41,21.29-4.64,11.74-3.82,20.9-11.44,27.89-21.62,2.02-2.94,2.5-5.89-.71-8.34-3.05-2.33-5.6-.9-7.91,1.39-.47.47-.95.93-1.4,1.42-21.1,22.66-54.3,23.19-76.29,1.22-1.53-1.52-2.95-3.51-4.82-4.22-1.68-.64-4.49-.52-5.76.53-1.26,1.04-1.62,3.65-1.61,5.57.01,1.29,1.24,2.66,2.14,3.84,11.79,15.57,27.28,23.92,47.19,24.86Zm-126.8-.25c16.21.03,28.79-12.45,28.86-28.63.07-17.79-12.04-30.6-29.01-30.7-16.83-.09-30.09,12.93-29.98,29.44.12,17.12,12.96,29.86,30.14,29.89Zm253.1-59.33c-16.85-.04-29.59,12.8-29.57,29.79.02,16.09,13.37,29.58,29.51,29.83,15.63.25,29.56-13.43,29.65-29.11.1-17.18-12.79-30.47-29.58-30.51Zm18.08-53.91c1.74,6.58,3.18,12.17,4.71,17.74.83,3.02,1.29,6.28,5.75,6.2,6.95-.13,10.57-2.12,11.78-6.99,1.79-7.17-3.02-14.86-10.33-16.07-3.56-.59-7.22-.56-11.92-.88Zm-290.69,1.43c-2.67-.44-4.92-1.01-7.19-1.15-10.05-.63-16.37,6.58-14.6,16.51.97,5.42,10.99,9.57,15.38,6.3.59-.44.94-1.35,1.15-2.11,1.75-6.37,3.44-12.76,5.26-19.55Zm107.63-174.85c-.7-.03-1.41-.05-2.11-.08-.45,1.73-1.27,3.45-1.28,5.18-.13,22.44-.16,44.87-.19,67.31,0,1.61.15,3.21.24,5.05,3.54-.43,4.94-2.1,4.94-5.31-.05-22.44,0-44.87-.1-67.31,0-1.61-.98-3.22-1.5-4.84Zm7.74,72.61c4.41.14,5-2.24,4.99-5.15-.06-20.77-.08-41.54-.2-62.31,0-1.62-.65-3.23-.99-4.84-.6-.08-1.19-.16-1.79-.25-.67,1.78-1.69,3.52-1.92,5.36-.33,2.62-.09,5.31-.09,7.97,0,19.6,0,39.2,0,59.23Zm22.03-8.09c4.37-.02,5.39-2.63,5.53-5.61.16-3.31-.21-6.64-.22-9.96-.03-15.64-.06-31.29.01-46.93.02-3.76-.95-5.82-5.32-4.09v66.59Zm-10,5.69c1.81-2.62,3.8-4.17,3.81-5.73.21-20.16.19-40.33.06-60.5,0-1.48-1.29-2.95-2.27-5.04-2.86,4.39-3.84,60.46-1.6,71.27Zm97.61-19.64c-.26.89-.58,1.48-.58,2.07-.09,14.62-.11,29.24-.24,43.87-.04,4.22,2.47,4.44,5.56,4.11.19-.36.48-.65.49-.95.13-13.62.3-27.23.31-40.85,0-3.67-1.58-6.61-5.53-8.25ZM32.94,321.37c8.5,3.56,16.09,6.73,24.59,10.29-.6-4.82-.64-8.85-1.75-12.56-.55-1.83-2.97-4.16-4.75-4.35-6.52-.72-12.25,1.7-18.09,6.62Zm543.59.1c-5.37-4.38-10.89-6.8-17.19-6.74-1.47.01-3.86,1.63-4.2,2.93-1.16,4.43-1.58,9.05-2.42,14.43,8.28-3.69,15.76-7.03,23.81-10.63Zm-290.4-151.29c-.02.44-.04.87-.05,1.31h40.86c0-.43,0-.86,0-1.3-13.6-1.57-27.2-1.63-40.8-.02Zm203.24,51.85v14.03h7.41v-14.03h-7.41Zm-114.26-102.47v-19.71c-1.96.11-3.5.2-4.92.29v19.42h4.92Zm-18.41-.35c.38.49.76.98,1.15,1.47,1.53-1.08,4.28-2.06,4.39-3.27.48-5.37.21-10.81.21-16.42h-5.75v18.22Zm132.14,42.29c8.59,1.97,10.36-.61,7.87-10.54h-7.7c-.07,1.58-.15,2.72-.17,3.87-.02,2.15,0,4.31,0,6.67Zm-98.01-47.37c.85-11.58.68-16.48-5.94-15.83.41,5.69-3.39,12.78,5.94,15.83Zm98.18,55.86v10.1c8.42.87,9.59-.97,6.97-10.1h-6.97Zm-298.27,203.91c-3.09-2.37-4.89-4.83-6.66-4.8-1.74.02-5.01,2.81-4.83,3.95.33,2.1,2.45,5.08,4.27,5.44,1.66.33,3.91-2.34,7.22-4.58Zm-12.97.1c-3.16-2.38-5.01-4.79-7.04-4.96-1.55-.12-3.33,2.6-5.01,4.06,1.7,1.89,3.1,4.64,5.2,5.36,1.28.44,3.63-2.25,6.85-4.46Zm296.5-222.75h-7.34v10.58h7.34v-10.58Zm-8.96,28.56h9.56c-.5-3.58-.75-6.77-1.6-9.8-.11-.39-4.46-.52-4.89.28-1.44,2.7-1.99,5.86-3.08,9.52Zm-269.73,199.69l2.15-.02c1.23-1.83,3.19-3.55,3.53-5.53.49-2.94-1.47-5.54-4.58-4.92-1.81.36-4.4,2.85-4.46,4.46-.08,1.96,2.14,4,3.37,6.01Zm293.68-250.16v10.22c2.8-.77,5.71-.81,7.27-2.27,1.04-.98,1-4.93-.06-5.89-1.57-1.42-4.47-1.38-7.21-2.06Zm-16.65,293.37c3.6-6.98,2.19-14.34,1.6-21.64-4.39,6.92-2.58,14.31-1.6,21.64Zm-333.09,1.02c1.01-7.32,2.68-14.71-2.1-21.4,0,7.2-2.2,14.6,2.1,21.4ZM467.53,130.1v8.45h6.29v-8.45h-6.29Zm-240.26,9.73c-2.87-2.16-4.48-4.28-6.11-4.29-1.36,0-3.94,2.57-3.82,3.79.17,1.7,2.15,4.17,3.74,4.5,1.36.28,3.25-1.98,6.19-3.99Zm16.5.18c-2.82-2.24-4.39-4.44-5.97-4.46-1.38-.01-3.9,2.46-3.88,3.8.03,1.61,2.02,4.19,3.53,4.48,1.42.27,3.31-1.88,6.32-3.82Zm-115.6,66.36c-2.06.56-3.98.82-5.59,1.68-.42.22.05,3.36.3,3.38,3.32.35,6.67.45,10,.33.22,0,.89-3.1.45-3.39-1.5-1-3.4-1.38-5.16-2.01Zm234.59-122.11c-6.2-2.43-6.48,1.87-5.25,8.14h5.25v-8.14Zm-119.29,39.84c-2.59-1.94-4.13-3.98-5.62-3.94-1.44.04-2.83,2.21-4.24,3.45,1.36,1.47,2.53,3.76,4.15,4.14,1.23.29,3.04-1.83,5.72-3.65Zm-66.4,11.64c2.65-1.13,5.03-1.66,6.65-3.06.71-.62.43-3.94-.37-4.42-1.72-1.02-4.06-1-6.28-1.42v8.91Zm43.35-17.79c-1.59,2.91-3.29,4.62-3,5.85.39,1.63,2.34,2.88,3.62,4.3,1.37-1.33,3.91-2.73,3.83-3.97-.1-1.69-2.2-3.25-4.45-6.17Zm-66.36,17.25c-2.75-2.01-4.5-4.17-5.64-3.88-1.4.35-3.06,2.68-3.16,4.25-.08,1.21,2.08,3.61,3.23,3.6,1.46-.01,2.89-1.93,5.57-3.97Zm-21.2,44.17h-10.12c.19,1.77.33,3.16.48,4.5h9.64v-4.5Zm-3.94-43.78c-2.27-2.11-3.56-3.31-4.85-4.51-1.17,1.49-3.11,2.91-3.27,4.51-.13,1.29,1.89,2.79,2.95,4.2,1.38-1.12,2.75-2.24,5.17-4.19Zm2.17.12c2.4,1.94,3.78,3.06,5.17,4.18.96-1.43,2.4-2.76,2.78-4.33.5-2.13.17-4.88-2.95-4.34-1.5.26-2.69,2.32-5,4.49Zm-7.99,91.05h9.87c-.09-1.78-.17-3.28-.24-4.66h-9.62v4.66Zm54.14-76.13h6.22v-6.49h-6.22v6.49Zm-.17,16.64c2.14-.23,4.54.02,6.28-.92.76-.41.92-4.12.07-4.84-1.44-1.24-3.89-1.32-6.35-2v7.76Zm319.43,27.94v-6.03h-6.93v6.03h6.93Zm-351.65-42.16c3.72-.4,7.37.28,7.01-4.24-.1-1.29-2.3-3.53-3.38-3.44-4.76.41-2.72,4.37-3.63,7.68Zm273.29-8.52c-1.87,2.47-4.09,4.29-3.76,5.21.59,1.67,2.69,2.8,4.17,4.15,1.13-1.39,3.05-2.72,3.17-4.19.1-1.3-1.8-2.76-3.57-5.17Zm-285.44,53.62v-5.28c-2.44,0-4.62-.29-6.66.11-1.16.23-2.09,1.59-3.13,2.45.98.91,1.85,2.37,2.97,2.6,2.05.42,4.25.12,6.82.12Zm364.17,7.76h-7.57v5.66h7.25c.1-1.84.19-3.42.32-5.66Zm-344.78-39.49c-.51-3.2,1.27-6.87-3.21-7.29-1.14-.11-3.46,1.97-3.57,3.19-.37,4.48,3.09,4,6.77,4.1Zm261.76-4.07c0,.67-.01,1.33-.02,2,1.46,1.03,3.18,3.11,4.32,2.83,1.51-.37,2.56-2.59,3.81-4.02-1.34-1.09-2.57-2.85-4.04-3.08-1.21-.19-2.7,1.44-4.06,2.27Zm-272.85-13.23c-2.04-2.02-3.59-4.4-4.39-4.17-1.68.48-2.97,2.33-4.42,3.63,1.34,1.48,2.46,3.39,4.12,4.22.62.31,2.5-1.9,4.68-3.67Zm297.08,13.83c-2.76-1.52-4.37-3.13-5.49-2.85-1.42.36-2.44,2.28-3.63,3.52,1.36,1.26,2.58,3.19,4.15,3.55.96.22,2.46-1.99,4.97-4.22Zm-309.04-14.37c-2.41-1.77-3.92-3.67-4.97-3.45-1.36.29-3.39,2.39-3.27,3.52.17,1.56,2.06,2.93,3.22,4.38,1.33-1.18,2.66-2.36,5.01-4.45Zm186.35-14.93c.67.04,1.34.07,2.01.11.91-1.41,2.64-2.91,2.5-4.21-.15-1.33-1.96-3.01-3.37-3.45-.73-.23-3.01,1.83-3.12,3-.13,1.44,1.26,3.02,1.99,4.55Zm116.63,6.96c.57,0,1.14.01,1.7.02.8-1.53,2.26-3.09,2.2-4.59-.05-1.18-1.92-3.16-3.04-3.21-1.23-.05-3.69,1.87-3.58,2.65.26,1.8,1.74,3.43,2.72,5.13Zm-8.41-4.49c-2.68-1.65-4.31-3.16-6.18-3.54-.64-.13-2.59,2.54-2.58,3.92,0,1.14,2.15,3.27,3.13,3.15,1.64-.2,3.11-1.84,5.62-3.53Zm-87.52-6.7c-2.72-1.74-4.27-3.5-5.42-3.26-1.4.28-2.95,2.07-3.46,3.55-.26.75,1.85,3.33,2.46,3.19,1.82-.4,3.43-1.75,6.41-3.48Zm-152.77,47.97h-6.1v6.64h6.1v-6.64Zm138.56-61.39c-2.47-1.92-3.85-3.76-4.84-3.57-1.43.28-3.33,1.87-3.61,3.2-.21,1.01,1.68,3.39,2.82,3.52,1.33.15,2.86-1.49,5.62-3.15Zm144.96,79.17h6.96v-5.81h-6.96v5.81Zm-33.85-40.08c1.42-2.72,2.93-4.34,2.84-5.86-.06-1.07-2.32-2.81-3.57-2.78-1.13.03-3.25,2.2-3.1,3.13.25,1.59,1.94,2.96,3.82,5.5Zm-292.82,11.25c-2.16-2.72.84-6.78-4.07-7.19-.99-.08-2.88,1.55-3.06,2.61-.73,4.34,2.31,4.71,7.14,4.58Zm182.09-64c-3.01-2-4.56-3.4-6.36-3.98-.5-.16-2.61,2.17-2.51,3.21.14,1.36,1.65,3.5,2.74,3.6,1.47.14,3.1-1.32,6.13-2.83Zm53.53-18.45c-5.72-.33-6.19.57-4.6,7.92h4.6v-7.92Zm-247.08,82.37c-1.97-3.16-3.29-5.27-4.61-7.38-1.08,1.22-3.01,2.4-3.08,3.68-.21,4.2,2.98,3.65,7.69,3.7Zm207.23-51.02c-2.29-1.48-4.14-3.28-4.72-2.94-1.66.97-2.79,2.83-4.14,4.33,1.06.89,2.45,2.73,3.12,2.5,1.8-.63,3.3-2.14,5.73-3.89Zm-.87-14.93c-2.22-.34-4.44-.69-6.66-1.03.03,1.59-.6,3.78.2,4.66,2.96,3.24,4.42-.07,6.46-3.63Zm138.81,104.78c-2.8.57-5.04.78-7.03,1.6-.46.19-.45,3.42-.02,3.58,2.11.79,4.43,1.02,7.05,1.53v-6.7Zm45,128.74c.35.35.71.69,1.06,1.04,3.23-3.63,6.46-7.25,9.7-10.88-.52-.45-1.04-.9-1.57-1.35l-9.19,11.19Zm-430.06.51c.56-.42,1.11-.84,1.67-1.26-2.22-3.09-4.44-6.18-6.66-9.27-.61.44-1.22.88-1.83,1.32,2.27,3.07,4.55,6.14,6.82,9.21Z"/>
      <path class="d" d="m68.12,247.28c-2.78.24-5.29.81-7.72.55-1.53-.16-3.66-1.2-4.28-2.46-4.01-8.09-9.94-9.49-16.53-3.19-2.93-2.51-5.89-5.06-8.8-7.55,6.32-10.43,4.16-15.85-6.95-16.9,0-2.22.16-4.52-.04-6.79-.32-3.6.22-5.66,4.71-6.22,5.06-.64,7.39-7.43,4.75-11.95-.67-1.14-1.53-2.16-2.59-3.64,2.06-2.27,3.98-4.78,6.33-6.79,1-.86,3.72-1.41,4.28-.82,3.44,3.68,7.32,2.46,10.35.44,2.69-1.79,4.34-5.14,6.45-7.8-.31-.39-.63-.78-.94-1.17,2.47,0,4.95.11,7.41-.03,3.11-.17,4.18.7,5.18,4.15.77,2.64,4.91,4.99,8.03,6.01,2.34.76,5.44-.8,8.19-1.33.02-.57.03-1.14.05-1.71,3.13,2.64,6.26,5.28,9.34,7.87-6.72,11-5.22,15.71,5.85,17.78,0,2.01-.14,4.15.03,6.26.27,3.34-.33,5.29-4.33,6.21-6.91,1.58-7.63,7.66-1.95,15.28-1.36,1.67-2.87,3.38-4.2,5.21-1.84,2.54-4.05,2.43-6.57,1.27-7.75-3.56-13.49-1.05-16.03,7.31Zm-25.48-36.59c-.06,10.51,9.11,19.68,19.76,19.78,11.24.1,20.18-8.49,20.41-19.59.21-10.28-9.21-19.76-19.72-19.87-10.8-.11-20.39,9.12-20.44,19.69Z"/>
      <path class="d" d="m555.75,247h-11.36c.52-5.18-3.39-7.49-7.02-8.21-3.16-.63-6.83,1.27-11.31,2.28-.71-.82-2.7-2.48-3.8-4.6-.77-1.47-.46-3.59-.37-5.41.12-2.29,1.07-4.67.69-6.83-.81-4.62-3.62-7.33-9.07-6.22v-11.8c9.17-2.27,13.02-8.53,6.52-17.16,2.84-2.71,5.69-5.44,8.62-8.23,8.38,5.03,14.24,2.61,16.05-7.38h12.2c-.7,4.59,1.35,7.72,5.92,9.28,4.14,1.41,7.83,1.39,10.63-2.79,3.18,2.82,6.16,5.46,9.36,8.3-2.34,3.44-6.22,5.96-3.61,11.21,2.12,4.26,4.47,6.79,9.57,5.78v11.81c-11.3,3.89-13.34,8.62-6.78,16.64-1.2,1.41-2.53,2.84-3.69,4.38-2.61,3.46-4.83,5.27-9.04,1.27-4.06-3.86-11.46.54-13.53,7.67Zm14.72-35.59c.3-10.36-8.96-20.13-19.33-20.4-9.99-.26-19.78,8.71-20.14,18.45-.42,11.47,8.55,20.83,20.14,20.99,10.14.14,19.02-8.61,19.33-19.04Z"/>
      <path class="d" d="m199.18,430.19c3.09-.57,6.17-1.58,9.27-1.62,13.15-.18,26.31-.14,39.46-.06,16.98.1,33.95.44,50.93.46,31.8.04,63.59-.09,95.39-.14,4.15,0,8.31-.18,12.44.09,1.82.12,3.57,1.15,5.36,1.76l.27,1.95c-2.89,1.08-5.71,2.83-8.67,3.13-27.28,2.78-54.47,6.64-82.04,5.84-21.76-.63-43.59.25-65.32-.82-17.06-.84-34.04-3.57-51.03-5.65-2.09-.26-4.04-1.71-6.05-2.61,0-.78,0-1.55,0-2.33Z"/>
      <path class="d" d="m555.11,425.11c1.79-2.34,2.86-3.53,3.7-4.87,2.52-3.99,3.11-8.05-.08-12.01-3.03-3.78-8.15-5.19-12.53-3.11-2.68,1.27-5.51,2.69-7.53,4.77-10.36,10.65-23.19,12.85-37.19,11.57-1.65-.15-3.48.19-4.93-.42-1.37-.57-3.25-2.03-3.32-3.2-.34-5.78-.16-11.59-.16-17.39.94-.19,1.45-.46,1.85-.35,10.35,3,20.08.95,29.5-3.57,8.34-4,16.95-6.85,26.35-6.51,11.42.42,21.1,7.22,24.63,17.21,2.86,8.09.18,13.31-8.08,15.42-3.6.92-7.3,1.48-12.21,2.45Z"/>
      <path class="d" d="m117.12,400.17c.37,6.2.96,11.48.81,16.75-.04,1.5-2.06,3.95-3.5,4.23-12.56,2.42-24.47,1.16-34.91-7.2-3.62-2.9-7.4-5.68-11.4-8.01-5.56-3.23-10.65-2.16-14.18,2.43-3.21,4.16-2.64,8.54,1.89,13.34.51.54,1.57.57,2.37.83-.42.68-.83,1.37-1.25,2.05-4.31-.7-8.74-.97-12.89-2.21-6.73-2.01-9.23-7.22-7.47-14.08,2.62-10.17,12.12-17.88,24.27-17.98,6.98-.06,14.01,1.98,20.96,3.35,2.4.47,4.65,1.75,6.97,2.66,8.85,3.47,17.66,7.15,28.33,3.83Z"/>
      <path class="d" d="m30.03,262.21c8.38.41,15.24,2.92,20.28,9.68,2.78,3.73,5.85,7.26,8.56,11.04,2.04,2.84,1.29,5.28-2.26,5.87-9.18,1.54-18.37,3.26-27.64,4.06-8.52.73-15.9-4.75-18.96-12.76-2.25-5.9-.24-11.66,5.71-14.06,4.55-1.83,9.52-2.6,14.3-3.84Zm15.27,19.44c-5.41-6.26-10.93-10.04-18.32-9.33-2.5.24-4.85,1.98-7.27,3.04,2.01,2.41,3.87,4.98,6.12,7.14.77.74,2.54.72,3.82.62,4.9-.36,9.78-.9,15.66-1.46Z"/>
      <path class="d" d="m551.56,289.12c8.55-22.26,21.46-31.28,42.63-23.47,5.9,2.18,8.24,7.36,6.63,13.31-2.04,7.53-9.4,14.12-17.13,13.71-10.55-.57-21.05-2.27-32.13-3.55Zm15.36-7.23c5.35.4,10.15,1.32,14.82.89,2.73-.25,5.73-2.2,7.75-4.24,2.37-2.39,1.51-4.69-2.09-5.7-7.11-1.98-14.97,1.23-20.49,9.04Z"/>
      <path class="d" d="m245.29,96.79h-31.02c.49-6.7,3-12.19,8.38-15.87,2.9-1.98,3.65-4.3,3.56-7.54-.17-6.15-.07-12.3-.03-18.45,0-1.31-.13-2.85.49-3.86.87-1.41,2.39-2.43,3.64-3.61.9,1.54,2.5,3.05,2.57,4.62.29,6.8-.31,13.67.32,20.42.29,3.08,1.96,6.88,4.29,8.75,5.01,4.04,6.85,9.11,7.8,15.54Z"/>
      <path class="d" d="m33.25,379.86c-1.98.77-3.94,2.11-5.96,2.2-6.48.28-12.99.37-19.45-.05-2-.13-3.88-2.12-5.81-3.27,1.79-.93,3.54-2.58,5.37-2.66,6.8-.3,13.64-.21,20.45,0,1.79.06,3.55,1.09,5.33,1.67.03.7.05,1.4.08,2.1Z"/>
      <path class="d" d="m255.32,258.19c-6.07-8.2-14.29-10.14-23.22-9.09-14.86,1.74-18.63,13.8-22.33,25.05-11.84,0-23.47.01-35.1,0-3.23,0-3.65-2.09-2.7-4.42,6.9-16.93,13.37-34.08,21.09-50.63,4.52-9.69,13.58-15.06,24.11-16.89,7.33-1.28,14.83-1.57,22.95-1.32-4.29,4.48-8.58,8.95-12.86,13.44-1.14,1.2-2.9,2.26-3.24,3.66-.45,1.81-.46,4.61.62,5.68,1.01,1,4.49,1.17,5.53.22,7.63-6.93,14.88-14.27,22.35-21.38,1.15-1.1,2.79-2.4,4.21-2.4,37.83-.09,75.65-.21,113.48.14,8.6.08,17.24,1.49,25.76,2.91,10.37,1.72,18.42,7.73,22.73,17.06,7.37,15.99,13.7,32.45,20.45,48.73,1.46,3.51.56,5.33-3.58,5.3-11.31-.1-22.62-.03-34.72-.03-2.81-13.21-9.28-24.14-25.42-25.17-8.38-.53-14.69,2.37-19.49,9.27,4.33-1.07,8.02-1.99,11.77-2.92.31,18.56,6.16,23.8,21.22,18.88,1.72,4.7.15,8.77-2.46,12.47-8.95,12.68-28.61,10.56-35.38-3.77-1.1-2.33-1.53-5.42-5.76-4.51-.27,1.74-.57,3.61-.9,5.76h-76.91c-.21-.33-.42-.59-.55-.89-.7-1.71-1.38-3.43-2.07-5.14-1.6,1.43-3.77,2.55-4.7,4.33-4.94,9.47-14.78,14.48-24.43,12.05-9.66-2.42-15.02-9.73-14.8-20.15,16.09,5.48,24.31-4.31,21.56-19.29,4.42,1.05,8.37,1.99,12.82,3.05Zm-37-23.92c-1.42-1.08-3.17-3.27-5.38-3.9-3-.85-6.74,2.7-6.67,5.82.08,3.5,2.13,5.61,5.63,5.55,3.63-.07,5.59-2.35,6.41-7.47Z"/>
      <path class="d" d="m179.21,308.83c12,.06,21.66,9.24,21.76,20.7.11,11.84-10.51,22.73-21.99,22.59-12.31-.16-22.63-10.62-22.4-22.71.22-11.25,10.53-20.63,22.63-20.57Zm-.17,9.01c-8.46-.05-15.58,6.82-15.48,14.92.09,7.85,7.09,14.45,15.43,14.57,8.21.12,15.29-6.51,15.46-14.46.17-8.04-6.95-14.99-15.41-15.04Z"/>
      <path class="d" d="m432.23,308.83c12.64.06,21.94,8.94,21.93,20.95,0,12.5-9.72,22.37-22,22.36-11.51-.01-22.08-10.67-22-22.19.08-11.74,9.95-21.18,22.07-21.12Zm.3,8.88c-8.46-.02-15.59,6.82-15.6,14.96-.01,8.2,6.98,14.81,15.67,14.8,8.36,0,15.4-6.96,15.39-15.2-.01-7.81-7.15-14.54-15.45-14.56Z"/>
    </g>
  </g>
</svg>