<?xml version="1.0" encoding="UTF-8"?>
<svg id="b" data-name="Layer 2" xmlns="http://www.w3.org/2000/svg" viewBox="0 0 509.1 468.36">
  <defs>
    <style>
      .d {
        fill: #c62327;
      }

      .d, .e, .f, .g, .h, .i, .j, .k, .l, .m {
        stroke-width: 0px;
      }

      .e {
        fill: #8cabb6;
      }

      .f {
        fill: #122327;
      }

      .g {
        fill: #fff;
      }

      .h {
        fill: #ec5667;
      }

      .i {
        fill: #e85825;
      }

      .j {
        fill: #63c9dc;
      }

      .k {
        fill: #244550;
      }

      .l {
        fill: #f9b719;
      }

      .m {
        fill: #839ea7;
      }
    </style>
  </defs>
  <g id="c" data-name="Layer 1">
    <circle class="g" cx="274.92" cy="234.18" r="234.18"/>
    <g>
      <path class="f" d="m381.32,385.77c12.3-8.34,23.34-18.14,33.55-28.9,8.29-8.74,15.74-18.12,22.15-28.34,2.32-3.7,6.31-5.07,10.22-5.62,5.11-.71,8.65,5.02,6.3,9.96-2.55,5.35-6.21,10.03-9.62,14.84-12.34,17.4-26.97,32.65-43.95,45.53-25.01,18.97-52.93,31.59-83.71,38.05-18.48,3.88-37.13,5.22-55.89,4.23-23.91-1.26-47.07-6.27-69.06-16.02-.85-.38-1.7-.66-2.62-.77-14.18-1.75-24.93-9.46-34.23-19.7-.19-.21-.38-.41-.51-.65-1.54-2.82-3.6-3.06-6.76-2.47-18.85,3.51-34.73-11.23-34.22-28.01.64.71.84,1.61,1.11,2.48,2.74,8.61,14.07,14.84,20.55,14.62.54.08,1.09.14,1.62.26,8.58,1.87,17.73-3.18,20.44-11.18.58-1.73.21-2.34-1.53-2.94-5.24-1.81-9.51-4.94-11.66-10.26-.8-1.99-1.1-4.18-1.7-6.61-4.83,4.23-10.42,6.55-16.17,8.55-4.1.55-8.23.49-12.35.62-1.87-1.07-4.04-1.06-6.05-1.63-16.95-4.85-27.73-16.14-31.98-32.84-3.52-13.83-13.46-19.83-25.11-21.16-8.12-.92-16.23-.81-24.35-.02-1.07.1-2.15.01-3.85.01,14.29-7.05,28.16-13.25,44.11-11.51,6.76,2.36,11.96,7.33,18.33,10.84,1.33-6.07,3.66-11.7,8.41-16.01.08-.04.18-.06.23-.12.05-.06.06-.23.05-.24-1.93-.75-1.34-2.96-2.43-4.19.73.1,1.46.21,2.18.31.48.54,1.09.47,1.71.36h8.17c-7.47,5.83-12.13,12.95-13.45,22.28-2.92,20.59,13.28,40.06,36.59,37.54,8.99-.97,16.43-5.31,23.46-10.58,2.16-1.62,4.33-3.22,6.63-4.93.39,1.4-.39,2.08-.8,2.84-2.32,4.22-4.78,8.35-7.02,12.61-2.62,4.99-1.62,9.98,2.53,13.84,2.22,2.06,4.89,3.27,7.69,4.28,2.27.82,5.36.24,6.78,1.62,1.6,1.56.25,4.72.77,7.17,2.12,10.01,8.14,16.66,17.62,20.07,9.87,3.55,18.93,1.57,27.04-4.91,3.36-2.68,5.99-6.02,7.86-9.91.24-.51.91-1.16.12-1.71-.56-.39-1.24-.32-1.8.15-.36.3-.7.6-1.05.91-4.19,3.67-9.01,6.09-14.42,7.38-12.55,2.99-24.81-3.11-29.32-14.6-2.55-6.51-.82-14.42,3.61-18.32-1.33,10.17,2.11,17.92,11.61,22.2,6.41,2.89,12.8,2.33,19.26-1.49-4.35-1.92-8.16-3.82-11.6-6.34-13.09-9.6-21.14-22.74-26.42-37.82-.66-1.9-.92-3.97-2.24-5.6-.18-.17-.36-.35-.54-.52-.85-3.99-4.97-1.01-6.74-3.2.66-.09,1.28-.17,1.91-.26,5.33.22,10.66.45,15.98.67,1.75.51,3.48,1.09,5.26,1.5.62.14,1.21,1.35,1.86.35.43-.66-.1-1.37-.62-1.96-2.32-2.65-4.67-5.26-7.27-7.63-6.01-5.48-12.97-9.81-18.75-15.58,8.66-1.42,15.66-5.46,20.54-12.9,5.41-5.1,9.48-11.4,14.99-16.47-1.23.28-2.26.83-3.34,1.27-9.81,4.04-19.65,4.45-27.69-5.03-7.25-8.55-16.44-12.95-27.75-12.62.11-.62.72-.69,1.08-1.02,1.02-.93,3.36-1.35,2.3-3.35-1.1-2.1-.11-2.13,1.45-2.11.64,0,1.27-.05,1.91-.08,1.78.25,1.99-.44,1.31-1.95-3.58-8.02-9.57-13.62-17.67-16.66-17.46-6.56-35.95,2.88-42.2,21.28-.41,3.2-2.68,4.11-5.44,4.48-.8.11-1.57.38-2.36.58-.02-.3-.05-.6-.07-.9.17-.68.18-1.32-.35-1.87-.82-8.22-4.18-12.39-11.2-13.88-9.94-2.11-19.95,5.13-22.25,16.1-.5.52-.66,1.12-.41,1.8-.03.34-.07.68-.1,1.02-1.22,3.5-.88,7.12-.38,10.62.8,5.58,3.26,10.31,8.18,13.52,6.13,4,10.42,2.44,12.42-4.6.44.03,1.29-.07,1.19.32-.69,2.76,1.47,3.26,3.14,4.18-.03,1.1.12,2.25-.12,3.3-.52,2.31,1.56,4.37.54,6.68-2.88-.52-5.65.56-8.53.53-15.18-.15-25.47-11.84-28.07-23.87-.35-1.61-.66-3.31-.55-4.93.16-2.31-.99-2.71-2.91-2.96-7.29-.95-14.61-1.44-21.99-1.34,7.26-3.4,14.92-5.51,22.61-7.46,2.03-.51,3.22-1.25,4.15-3.31,6.36-14.12,19.11-21.68,34.63-20.61,4.22.29,8.32,1.34,12.12,3.39,1.01.54,2.1,1.93,3.41.89.97-.76,2.37-1.64,2.24-2.98-.11-1.14-1.69-.87-2.59-1.18-7.92-2.72-16.16-3.75-24.46-3.98-7.29-.2-14.61-.57-21.89.46-.87.12-1.78.02-2.68-.1,12.19-2.91,24.44-5.41,36.97-6.1,8.02-.06,15.99.71,23.94,1.77,1.71.23,3.01-.39,3.99-1.78,2.59.18,4.65-1.39,6.99-2.07,5.27-1.52,10.6-2.58,16.12-2.38,8.29.02,15.9,2.44,22.65,7.11,4.93,3.41,9.46,7.31,13.08,12.31,2.02,2.8,3.13,6.24,5.89,8.51.06,1.19.73,1.94,1.85,2.01,1,.07,1.25-.99,1.58-1.66,1.66-3.3,3.54-6.44,5.79-9.37,8.97-11.7,20.37-19.89,34.86-23.01,14.63-3.15,28.31-.2,40.92,7.9,3.86,2.48,7.37,5.42,11.12,8.06.93,1.01,1.88,2.01,2.79,3.04,8.85,10,15.77,21.16,20.62,33.64,2.2,5.68,4.07,11.46,5.37,17.39,1.68,7.68,2.66,15.47,2.61,23.36,0,1.13.27,1.64,1.52,2.12,3.8,1.44,7.86,1.48,11.75,2.54,2.9.79,5.83,1.84,9.03,1.83,4.28-.01,8.55.81,12.81,1.29,12.37,1.4,24.78,1.22,37.11.44,5.83-.37,11.76-.58,17.62-1.57,4.87-.82,9.77-1.76,14.67-2.28,6.57-.69,12.9-2.41,19.28-3.84,5.75-1.28,11.38-3.24,16.9-5.32,5.97-2.25,12.42-3.49,17.56-7.67.71-.16,1.44.02,2.15-.39,3.68-2.13,7.55-3.97,11.08-6.33,16.08-10.75,25.98-25.37,26.92-45.09,1.07-22.69-6.63-41.22-26.9-53.08-10.86-6.35-23.09-8.32-35.41-8.89-18.69-.87-37.36-.09-55.95,2.17-24.75,3.01-48.72,9.37-72.48,16.69l-8.84,2.56c-.91.16-1.82.31-2.73.49-13.7,2.67-25.13-2.97-31.14-15.53-4.5-9.41-4.89-19.33-2.58-29.29,4.7-20.33,17.29-34.46,35.81-43.3,19.36-9.24,39.84-10.29,60.77-7.16,4.19.63,8.37,1.44,12.44,2.35,5.19,1.17,10.07,3.72,15.09,5.67,5.51,2.94,10.5,6.6,14.89,11.12-3.35-1.45-6.76-2.29-10.39-1.88-2.42-1.03-4.86-2.07-7.21-3.16-6.25-2.91-12.8-4.64-19.47-5.89-14.02-2.61-28.07-2.64-42.18-.17-11.71,2.05-22.46,6.07-31.7,13.62-13.17,10.77-20.95,24.28-20.17,41.75.3,6.72,2,13.11,6.71,18.31,4.44,4.5,9.8,6.24,16.05,5.5,4.5-.53,8.8-1.88,13.19-2.89,5.49-1.62,10.95-3.3,16.46-4.85,17.88-5.03,35.91-9.28,54.36-11.7,11.28-1.48,22.6-2.44,33.96-2.86,2.67.02,5.34.08,8,.04,2.68-.04,3.15-.73,2.81-3.38-.42-3.31-.69-6.65-1.03-9.97,1.43,4.09,2.86,8.19,4.5,12.88,1.07-2.37.25-4.09-.07-5.64-4.39-21.14-15.37-38.04-32.87-50.75-12.59-9.14-26.29-15.85-41.44-19.48-13.09-3.13-26.38-4.28-39.84-3.95-20.51.51-40.25,5.56-60.13,9.8-15.63,3.33-31.28,6.62-46.93,9.85-16.93,3.5-33.84,7.05-50.81,10.32-20.14,3.89-40.22,8.1-60.48,11.43-8.89,1.46-17.69,3.48-26.52,5.27-.8.16-1.56.36-2.51-.04,19.35-6.26,38.6-12.36,58.28-16.97,1.89-.44,3.23-1.34,4.47-2.87,27.91-34.25,62.44-58.71,105.18-71.05,14.91-4.31,30.09-6.95,45.59-7.81.51-.03,1.14.2,1.42-.51h2.78c1.45,1.28,3.19.6,4.73.51,3.05-.17,6.18.79,9.16-.51h1.67c.46.92,1.31.48,1.97.5,10.18.19,20.26,1.49,30.2,3.52,29.12,5.93,56.06,17.13,80.11,34.74,17.08,12.5,31.5,27.67,43.73,44.91,5.01,7.06,9.83,14.25,13.53,22.09,1.89,4.01.65,7.62-2.9,9.8-3.63,2.23-7.68,1.68-10.45-1.54-.96-1.11-1.72-2.39-2.47-3.66-11.31-19.25-24.52-36.96-41.97-51.15-41.03-33.37-88-46.74-140.46-41.43-17.12,1.73-33.65,5.92-49.7,12.1-17.65,6.79-33.35,16.86-48.06,28.56-5.91,4.7-11.66,9.62-16.74,15.37,6.25-1.45,12.6-2.25,18.59-4.56.32.04.61.04.66-.38,0,0,0,0,0,0,4.38-.18,8.52-1.53,12.72-2.57,3.27-.47,6.47-1.27,9.6-2.32,3.14-.66,6.34-1.07,9.31-2.38,3.87-1.03,7.75-2.06,11.62-3.09,2.13-.48,4.31-.77,6.28-1.8.54-.12,1.08-.2,1.6-.35,15.02-4.5,29.97-9.24,45.23-12.91,19.74-4.75,39.6-7.5,59.99-5.81,13.4,1.11,26.36,3.86,38.95,8.48,18.53,6.8,34.55,17.36,47.46,32.39,11.03,12.84,18.07,27.64,21.33,44.23.42,2.15,1.14,3.27,3.65,3.26,6.2-.03,12.3.99,18.34,2.35,28.92,6.49,47.69,26.95,54.04,53.82.96,4.05,1.51,8.19,2.26,12.29v12.78c-.71,3.74-1.26,7.52-2.15,11.21-7.7,31.94-26.66,54.15-57.46,65.98-17.58,6.75-35.75,7.6-54.18,4.84-3.14-.47-5.95.3-8.92.74-5.94.88-11.9,1.55-17.86,2.31-11.54.42-23.08.83-34.62.06-3.51-.2-7.03-.31-10.53-.62-1.93-.17-2.84.29-3.51,2.34-5.59,17.16-16.31,30.21-31.83,39.43-11.98,7.11-24.88,11.22-38.74,12.36-1.9.16-2.78.77-3.34,2.76-2.31,8.32-6.43,15.68-12.42,21.97-2.78,2.92-6.02,5.29-9.8,7.83,3.01.85,5.47,1.54,7.92,2.23,11.18,2.98,22.57,4.63,34.09,5.4.85,0,1.71.02,2.56.03,13.9,1.61,27.65.11,41.37-2.03,5.63-.7,11.1-2.13,16.62-3.36,1.06-.24,1.53-1.28,2.58-1.32.63.02,1.31.2,1.89.04,8.12-2.23,16.08-4.93,23.8-8.33.88-.58,1.76-1.16,2.64-1.74.44,0,.95.17,1.32,0,10.08-4.65,19.74-10.06,28.87-16.37Zm-116.18-105.8c-.32-3.06-1.34-5.94-2.22-8.85-3.94-12.99-9.83-24.91-19.45-34.7-18.86-19.2-45.41-17.7-61.96,3.43-5.1,6.51-8.16,13.97-10.41,21.82-.97,1.6-.57,2.31,1.35,2.28,3.09-.05,6.17,0,9.26,0,1.37.32,1.37-.99,1.82-1.64,2.74-3.95,5.5-7.88,9.37-10.84,6.26-4.8,13.09-7.79,21.22-6.55.37.06.8.15.89-.3.17-.81-.7-.67-1.05-1.01,4.57-.03,8.44,2.13,11.77,4.74,3.89,3.05,7.29,6.75,9.82,11.18,3.86,6.76,7.23,13.76,8.87,21.36,2.16,9.98,2.38,20.11.66,30.2-1.97,11.51-5.94,22.1-14.85,30.19-3.15,2.86-6.68,4.93-11.15,5.61-2.54.39-5.42-.68-7.68,1.32-10.15-3.37-17.48-10.41-23.99-18.58,1.02,3.06,3.05,5.43,4.82,7.96-.98.24-1.56.53-1.35,1.88.49,3.14,2.89,5.06,4.9,6.79,4.7,4.05,10.23,6.76,16.39,8.12,9.67,2.13,18.57-.13,26.12-5.9,8.31-6.35,13.89-15.17,18.42-24.57.39-.82.44-1.82,1.5-2.17-.69,2.49-1.24,5.03-2.09,7.47-4.5,12.9-10.93,24.29-24.05,30.39-.06.03-.02.28-.03.42.42.73.95.27,1.45.15,9.94-2.54,17.05-8.9,22.7-17.09,6.07-8.79,9.02-18.73,10.4-29.21,1.5-11.38.92-22.67-1.45-33.88Zm-32.22,45.68c-8.18,1.65-14.51-1.35-19.5-7.16-9.9-11.53-13.21-24.75-9.15-39.56.44-1.61.28-2.15-1.34-2.75-8.22-3.04-15.06.45-17.29,8.97-3.9,14.95,3.62,36.14,16.26,45.81,10.19,7.8,23.4,5.66,31.02-5.31Zm-8.34-32.18c-.05-3.8-.88-7.37-3.48-10.28-2.51-2.82-6.18-2.61-8.3.36-3.48,4.88-2.45,14.58,1.97,18.52,2.69,2.4,6.14,1.93,8.02-1.14,1.4-2.28,1.78-4.83,1.79-7.46Zm4.64,67.58c-2.67-.22-5.32.34-8.01.32,2.68.35,5.36.58,8.01-.32Z"/>
      <path class="k" d="m282.9,32.76c-2.98,1.3-6.11.34-9.16.51-1.55.09-3.29.77-4.73-.51h13.89Z"/>
      <path class="l" d="m374.1,108.69c-5.02-1.95-9.9-4.5-15.09-5.67-4.08-.92-8.26-1.73-12.44-2.35-20.93-3.13-41.41-2.08-60.77,7.16-18.51,8.84-31.1,22.96-35.81,43.3-2.3,9.96-1.92,19.88,2.58,29.29,6.01,12.57,17.44,18.21,31.14,15.53.91-.18,1.82-.32,2.73-.49,3.53.02,6.92-.68,10.17-2.05,4.68-.92,9.37-1.77,14.03-2.77,7.51-1.61,14.97-3.44,22.49-4.96,5.92-1.2,11.9-2.19,17.86-3.16,8.99-1.47,18.05-2.52,27.11-3.47,4.59-.48,9.23-.59,13.85-.83,14.6-.77,29.17-.96,43.69,1.55,7.78,1.35,15.07,3.74,21.65,8.05,6.9,4.52,12.52,10.31,16.24,17.77-.76.98-.15,1.6.58,2.18v-.04c-.25,4.8.54,9.65-.3,14.4-2.48,14.02-9.39,25.71-19.45,35.61-8.02,7.89-17.29,13.84-27.64,18.32-11.83,5.13-24.19,7.66-36.94,8.31-11.55.59-23.1.22-34.48-2.2-8.25-1.75-16.37-4.03-24.11-7.45-4.82-2.13-9.17-5.05-13.63-7.84-8.16-5.12-14.77-12.02-20.49-19.41-7.2-9.3-14.12-18.81-22.21-27.35-7.49-7.9-16.37-13.9-26.4-18.26-7.78-3.38-15.91-4.57-24.27-4.67-1.94-.02-3.42-.23-3.82-2.58-.22-1.28-1.09-2.27-2.63-2.48-4.71-.63-9.45-.35-14.06.32-2.66.39-5.47.45-8.07,1.39-6.08.68-12.15.23-18.12-.71-4.93-.78-9.97-1.47-14.52-3.84.1-1.51-.91-2.56-1.52-3.79-.35-.71-1.17-1.49-.6-2.27.59-.81,1.5-.25,2.3-.04,7.26,1.86,14.68,2.93,22.12,3.34,14.88.82,29.5-.8,43.42-6.57,2.65-1.1,5.17-2.49,7.75-3.74-.07-.25-.14-.5-.21-.74-3.3,0-6.61.16-9.89-.05-3.3-.21-6.61-.67-9.87-1.26-3.26-.59-6.51-1.33-9.67-2.28-3.01-.91-6.21-1.45-8.86-3.39,15.21.29,29.72-1.61,42.34-10.83-1.43-.16-2.79.05-4.15.06-6.27.08-12.5.83-18.81.12-5.16-.58-10.25-1.37-15.14-3.01-8.2-2.74-15.84-6.8-23.63-10.49-.49-.23-1.14-.38-.93-1.1.16-.54.76-.44,1.19-.46,1.84-.08,3.7-.38,5.5-.4,10.84-.12,21.5-1.71,32.14-3.54,6.83-1.18,13.34-3.15,18.81-7.78,5.71-4.84,4.61-12.51-2.39-15.41-5.32-2.2-10.88-3.41-16.65-3.44-8.7-.04-17.4-.03-26.1-.04,10.64-3.59,30.29-7.88,35.48-7.54-3.15,2.35-6.76,3.16-8.8,6.38,20.02-2.93,39.43-8.61,59.09-13.3-2.5-1.13-5.02-.93-7.51-.97-2.48-.04-4.96,0-7.69,0,.69-1.27,1.73-.94,2.53-1.17,13.91-3.92,28.13-5.51,42.55-5.66,10.57-.11,21,.68,31.33,3.12,7.02,1.66,13.91,3.77,20.46,6.63,5.71,2.49,11.65,4.84,16.51,9.01Zm77.31,95.92c-.17-3.33-.38-6.65-.49-9.98-.06-1.94-.8-2.17-2.38-1.28-3.86,2.19-7.93,3.97-12.07,5.54-17.55,6.67-35.79,9.72-54.51,10.12-12.32.27-24.62,0-36.84-1.77-8.88-1.29-17.66-3.08-26.34-5.35-2.36-.62-2.73.09-2.45,2.2.63,4.76,1,9.58,2.2,14.24,8.36,32.58,28.22,53.74,61.46,61.35,9.04,2.07,18.16,2.11,27.19-.46,13.89-3.95,23.97-12.79,31.49-24.75,9.57-15.23,12.84-32.13,12.74-49.88Z"/>
      <path class="e" d="m177.79,284.38c-4.87,7.44-11.88,11.48-20.54,12.9-2.91-.05-5.66-.93-8.37-1.8-6.27-2.01-12.54-3.9-19.26-3.26-3.08.29-6.03.98-8.61,2.76-1.45.99-1.83,1.73.19,2.84,8.29,4.52,16.95,8.25,25.46,12.31,5.72,2.73,11.42,5.57,17.56,7.29,4.16,1.17,8.37,2.13,12.56,3.19-5.33-.22-10.66-.45-15.98-.67-1.11-.6-2.31-.54-3.51-.44l-.94-.1c-.72-.55-1.55-.48-2.38-.4-.89-.22-1.92-.23-2.66-.7-3.65-2.29-5.91-.95-8.68,2.04-6.46,7.01-14.79,10.21-24.28,8.47-9.84-1.8-16.15-7.98-18.94-17.65-.8-4.3-.4-8.63-.13-12.98-2.71,3.97-4.18,8.25-4.14,12.99.01.91.02,1.83.04,2.74-.14,1-.24,1.99.38,2.89,1.51,8.59,6.24,14.91,13.87,18.92,14.05,7.38,32.74,1.72,41.82-13.65.49-.84.81-1.68,2.01-1.39.25.1.5.2.75.3.35.07.7.14,1.06.22,3.04,1.34,6.3,1.84,9.53,2.44.48.41,1.05.3,1.6.29,1.33,1.63,1.58,3.7,2.24,5.6,5.27,15.07,13.32,28.22,26.42,37.82,3.44,2.52,7.25,4.42,11.6,6.34-6.47,3.82-12.85,4.38-19.26,1.49-9.49-4.28-12.93-12.03-11.61-22.2-4.43,3.9-6.16,11.81-3.61,18.32,4.51,11.49,16.77,17.59,29.32,14.6,5.42-1.29,10.23-3.72,14.42-7.38.35-.3.7-.61,1.05-.91.56-.47,1.24-.54,1.8-.15.79.54.12,1.2-.12,1.71-1.86,3.9-4.5,7.23-7.86,9.91-8.11,6.48-17.18,8.46-27.04,4.91-9.48-3.41-15.51-10.06-17.62-20.07-.52-2.44.83-5.61-.77-7.17-1.42-1.39-4.52-.81-6.78-1.62-2.81-1.01-5.48-2.23-7.69-4.28-4.15-3.86-5.15-8.85-2.53-13.84,2.23-4.26,4.7-8.39,7.02-12.61.41-.75,1.19-1.44.8-2.84-2.3,1.71-4.47,3.31-6.63,4.93-7.03,5.27-14.47,9.61-23.46,10.58-23.32,2.52-39.51-16.95-36.59-37.54,1.32-9.32,5.98-16.45,13.45-22.28-2.93,0-5.55,0-8.17,0-.51-.43-1.09-.5-1.71-.36-.73-.1-1.46-.21-2.18-.31-.65-.32-1.29-.68-1.96-.94-5.74-2.2-8.69-6.6-9.63-12.46-.26-1.63-.04-3.34-.04-5.01-.85.49-1.16,1.02-1.35,1.6-3.65,11.2,2.71,21.43,15.13,21.37-4.75,4.31-7.08,9.93-8.41,16.01-6.38-3.51-11.58-8.48-18.33-10.84,1.17-.8.54-1.72.18-2.62-.61-1.5-1.07-3.03-1.24-4.65,1.02-2.31-1.06-4.37-.54-6.68.24-1.06.09-2.2.12-3.3,1.88-3.31,1.62-7.4,4.56-10.77-5.62-.34-9.46-2.22-10.31-8.35-2.09,6.05-1.98,7.32.71,12.29.4.73.83,1.44.72,2.33-2,7.04-6.3,8.6-12.42,4.6-4.92-3.21-7.37-7.95-8.18-13.52-.5-3.51-.85-7.12.38-10.62,1.2,2.1.1,4.48.87,6.85,1.04-2.46.86-5,1.73-7.34,5.32-14.38,20.01-15.92,28.18-5.88,1.13,1.39,1.97,3.1,3.59,4.08.79-.2,1.56-.48,2.36-.58,2.76-.37,5.03-1.28,5.44-4.48.77,2.46,1.34.08,1.55-.19,11.39-14.55,30.05-17.18,44.8-9.3,2.8,1.5,5.73,3.03,7.18,6.18-.63.69-1.52.56-2.31.74-7.03,1.57-13.26,4.36-17.37,10.73-1.01,1.57-.54,2.14.79,2.75.23,1.08-.61,1.71-1.12,2.42-2.24,3.13-3.08,6.62-3,10.44.04,1.66.7,2.31,2.25,2.47,11.6,1.2,22.46,4.97,33.1,9.53,6.74,2.89,13.49,5.52,21.12,3.82,3-.67,5.63-2.31,8.64-2.84Z"/>
      <path class="j" d="m398.61,165.6c-11.37.42-22.68,1.38-33.96,2.86-18.45,2.42-36.48,6.67-54.36,11.7-5.51,1.55-10.97,3.23-16.46,4.85-.74-.08-1.39-.28-2.04-.73-6.57-4.52-11.97-10.12-15.45-17.35-3.9-8.12-5.95-16.61-4.67-25.71.34-2.45-.12-4.97.48-7.44-9.71,11.01-12.57,23.68-9.96,37.85.67,3.63,2.35,7.01,2.4,10.76-4.71-5.19-6.41-11.59-6.71-18.31-.78-17.47,6.99-30.98,20.17-41.75,9.24-7.55,19.99-11.58,31.7-13.62,14.11-2.47,28.16-2.44,42.18.17,6.67,1.24,13.22,2.98,19.47,5.89,2.35,1.09,4.79,2.13,7.21,3.16-2.14.8-4.37,1.42-6.42,2.43-5.49,2.71-7.6,7.82-8.69,13.36-2.03,10.32,3.25,21.28,12.67,25.84,7.91,3.83,19.59,2.25,24.52-6.56,1.02-1.83,2.67-3.29,3.11-5.49.13-.64.79-1.38,1.59-1.37.95.02,1.05.87,1.1,1.63,1.04,4.84,2.05,9.66,2.33,14.64.13,2.3-.72,2.9-2.77,2.89-2.47,0-4.95.18-7.42.29Zm-88.77-45.62c-15.02-.47-25.94,12.1-25.55,26.2.4,14.5,10.55,26.69,26.58,26.6,14.39-.08,25.92-11.95,25.79-25.68-.13-14.22-12.77-27.88-26.81-27.12Z"/>
      <path class="i" d="m190.14,112.2c8.7.01,17.4,0,26.1.04,5.77.03,11.33,1.23,16.65,3.44,7,2.9,8.11,10.57,2.39,15.41-5.47,4.63-11.98,6.61-18.81,7.78-10.63,1.83-21.3,3.42-32.14,3.54-1.8.02-3.66.32-5.5.4-.44.02-1.03-.08-1.19.46-.21.73.43.87.93,1.1,7.79,3.69,15.43,7.75,23.63,10.49,4.89,1.63,9.98,2.43,15.14,3.01,6.31.7,12.54-.05,18.81-.12,1.36-.02,2.72-.22,4.15-.06-12.62,9.22-27.13,11.12-42.34,10.83,2.65,1.95,5.85,2.49,8.86,3.39,3.17.95,6.42,1.69,9.67,2.28,3.26.59,6.56,1.05,9.87,1.26,3.28.21,6.59.05,9.89.05.07.25.14.5.21.74-2.58,1.25-5.1,2.65-7.75,3.74-13.92,5.77-28.54,7.39-43.42,6.57-7.44-.41-14.86-1.47-22.12-3.34-.8-.2-1.71-.76-2.3.04-.57.79.25,1.56.6,2.27.6,1.23,1.62,2.28,1.52,3.79-1.21.28-2.35.03-3.53-.34-14.68-4.63-29.82-6.21-45.12-6.74-.89-.03-1.87-.28-2.64.46-6.35-.58-12.71-1.16-19.06-1.74-.8-.61-1.75-.25-2.62-.4-2.28-.41-4.69.02-6.88-1.02,12.87-1.46,25.79-2.19,38.72-2.93,10.04-.57,20.12-.8,30.12-1.96.88-.1,1.88.11,2.58-.7,4.58-.36,9.22-.25,13.67-1.75,4.42-1.49,8.23-3.78,8.98-8.7.75-4.87-2.74-7.72-6.15-10.38-.07-.06-.15-.11-.22-.17-5.48-4-11.99-5.46-18.42-5.93-10.4-.77-20.87-.76-31.3.48-3.89.46-7.82.63-11.73.93,6.75-1.84,13.69-2.74,20.56-3.94,20.28-3.52,40.8-5.36,61.16-8.34,2.46-.36,4.88-.99,7.32-1.49.55-.11,1.12-.18,1.1-.95,1.32,1.12,2.39-.29,3.51-.5,3.7-.69,7.28-1.89,10.34-4.28,3.08-2.41,3.2-5.38-.08-7.36-2.26-1.37-4.78-2.57-7.51-2.59-7.47-.07-14.9-.35-22.4.82-13.51,2.12-26.56,5.98-39.72,9.43-6.54,1.72-12.9,4.15-19.47,5.86-2.05.2-4.16.2-5.92,1.54-7.91,1.78-15.83,3.56-23.74,5.34-.06-.26-.13-.52-.19-.79,31.89-9.77,63.52-20.4,95.77-28.98Z"/>
      <path class="m" d="m303.6,416.84c-13.72,2.14-27.47,3.64-41.37,2.03.19-1.26,1.13-2.09,1.83-3.04,8.55-11.58,17.21-23.08,25.66-34.74,11.54-15.92,22.93-31.95,33.79-48.34,1.6-2.42,3.77-4.56,4.3-7.61,11.54.77,23.08.36,34.63-.06-7.85,12.74-16.34,25.06-24.56,37.55-11.48,17.43-22.97,34.85-34.43,52.3-.38.57-1.69,1.43.15,1.91Z"/>
      <path class="f" d="m109.4,148.4c3.91-.3,7.84-.46,11.73-.93,10.42-1.24,20.9-1.24,31.3-.48,6.43.47,12.94,1.93,18.42,5.93.07.05.15.11.22.17,3.41,2.67,6.9,5.51,6.15,10.38-.76,4.92-4.57,7.21-8.98,8.7-4.45,1.5-9.08,1.4-13.67,1.75-5-2.01-10.31-2.62-15.58-3.32-18.96-2.51-38.04-1.94-57.08-1.58-15.8.29-31.57,1.34-47.3,3.07-8.25.91-16.52,1.58-24.72,2.88-.63.1-1.28.01-1.96-.19,32.83-12.62,66.93-20.37,101.48-26.38Z"/>
      <path class="d" d="m111.7,182.68c.78-.74,1.75-.49,2.64-.46,15.3.53,30.44,2.11,45.12,6.74,1.17.37,2.31.62,3.53.34,4.55,2.37,9.59,3.06,14.52,3.84,5.97.94,12.04,1.4,18.12.72,1.77.7.24,1.03-.2,1.21-6.09,2.37-11.3,6.02-16.23,10.28-7.27,6.3-12.15,14.12-15.88,22.84-1.48,3.48-1.78,7.27-3.22,10.74-2.76-2.26-3.87-5.71-5.89-8.51-3.62-5.01-8.15-8.9-13.08-12.31-6.75-4.67-14.36-7.09-22.65-7.11-2.63-2.41-6.07-3.14-9.26-4.3-13.7-4.97-27.78-8.28-42.33-9.56-1.19-.1-2.36-.36-3.54-.54.22-.98.38-2.01,1.67-2.15.5,1.79,1.51.95,2.43.62-.68-.81-1.58-.55-2.41-.63-.39-1.44.89-1.59,1.66-2.13,10.23-1.05,20.51-1.03,30.7.04,11.41,1.2,22.81,2.91,33.78,6.46,7.34,2.38,14.93,3.68,22.79,5.75-1.46-3.41-3.8-5.59-6.26-7.52-9.41-7.38-20.42-11.11-31.92-13.66-1.35-.3-2.72-.47-4.08-.71Z"/>
      <path class="m" d="m348.49,403.87c-7.72,3.4-15.68,6.1-23.8,8.33-.58.16-1.26-.02-1.89-.04,2.77-5.34,6.59-10,9.89-15,7.14-10.79,14.3-21.55,21.54-32.27,8.43-12.49,17.12-24.82,25.33-37.45,2.33-3.57,4.56-4.97,8.67-3.66,2.7.86,5.55,1.34,8.44,1.27,1.65-.04,1.25.64.6,1.66-4.81,7.61-9.45,15.32-14.34,22.87-7.54,11.65-14.79,23.48-22.33,35.13-3.86,5.96-7.71,11.9-11.87,17.64-.32.44-1.21.84-.25,1.52Z"/>
      <path class="m" d="m381.32,385.77c-9.14,6.31-18.79,11.72-28.87,16.37-.36.17-.87,0-1.32,0,.01-.35-.12-.81.05-1.05,3.3-4.51,6.03-9.39,9.83-13.59,3.5-3.87,6.48-8.21,9.59-12.42,10.81-14.6,21.6-29.22,32.33-43.88.78-1.07,1.59-1.42,2.76-1.25,7.3,1.08,14.51.25,21.69-1.02.08-.01.17.06.67.23-1.53,2.47-2.87,4.99-4.53,7.27-8.13,11.14-16.56,22-26.17,31.97-5.16,5.35-10.52,10.53-15.33,16.22-.29.34-.48.76-.71,1.15Z"/>
      <path class="f" d="m124.21,135.07c6.57-1.71,12.93-4.14,19.47-5.86,13.16-3.45,26.21-7.32,39.72-9.43,7.49-1.17,14.92-.89,22.4-.82,2.74.03,5.25,1.23,7.51,2.59,3.28,1.98,3.17,4.95.08,7.36-3.06,2.39-6.64,3.59-10.34,4.28-1.12.21-2.19,1.62-3.51.5-10.57-2.7-21.31-2.99-32.12-2.21-6.35.46-12.71.85-19.07,1.28-7.17.48-14.29,1.28-21.34,2.69-.8.16-1.65.08-2.48.11-.1-.16-.21-.33-.31-.49Z"/>
      <path class="f" d="m401.2,141.56c1.5,9.63-6.13,17.42-14.71,16.83-4.01-.27-6.82-2.35-9.26-5.3-.82-1-.23-1.46.27-2.09,1.54-1.92,3.09-3.84,5.12-6.37-2.88.88-5.02,1.51-7.13,2.2-.65.21-1.08.5-1.45-.48-3.13-8.33.57-18.45,10.06-19.36,4.11-.39,7.71.98,10.96,4.58-2.17-.12-3.38.8-4.44,1.88-1.07,1.08-1.57,2.42-1.57,4-.01,3.56,1.61,6.02,4.89,7.16,2.52.88,5.04-.11,7.28-3.04Z"/>
      <path class="k" d="m113.26,363.42c4.12-.13,8.25-.08,12.35-.62-.05.92-.05,1.84-.16,2.75-.66,5.44.77,10.17,4.08,14.6,1.48,1.98,3.98,2.63,5.09,4.83-6.48.22-17.81-6.01-20.55-14.62-.28-.87-.47-1.78-1.11-2.48-.25-1.51.13-2.97.31-4.45Z"/>
      <path class="i" d="m65.02,194.46c-1.29.15-1.46,1.17-1.67,2.15-8.15-.02-16.28-.81-24.45-.45,9.16-2.27,18.43-3.42,27.8-3.85-.77.54-2.05.69-1.66,2.13l-.02.02Z"/>
      <path class="f" d="m62.19,329.03c-2.47-.05-4.05-1.74-3.96-4.23.08-2.33,1.81-3.98,4.07-3.88,2.24.09,4.02,1.88,4.02,4.04,0,2.54-1.61,4.13-4.13,4.07Z"/>
      <path class="f" d="m46.97,343.39c-2.34-.01-4.16-1.93-4.07-4.29.08-2.03,1.92-3.82,3.99-3.86,2-.04,4.2,2.01,4.24,3.95.05,2.3-1.84,4.21-4.16,4.2Z"/>
      <path class="i" d="m95.37,215.46c-.98,1.38-2.28,2-3.99,1.78-7.95-1.06-15.92-1.83-23.94-1.77,8.88-1.03,17.76-1.61,26.67-.46.43.06.84.3,1.26.46Z"/>
      <path class="f" d="m41.49,320.4c.17-1.7,1.11-3.09,3.02-3.05,1.89.03,3.36,1.08,3.36,3.23,0,1.94-1.23,3.2-3.04,3.25-1.94.05-3.16-1.22-3.34-3.43Z"/>
      <path class="f" d="m69.32,345.18c-1.46-.26-2.78-.81-2.63-2.76.13-1.83,1.13-2.93,2.99-2.93,1.85,0,3.09,1.18,3.01,2.91-.08,1.72-1.41,2.72-3.37,2.78Z"/>
      <path class="k" d="m398.61,165.6c2.47-.11,4.95-.29,7.42-.29,2.05,0,2.91-.6,2.77-2.89-.28-4.97-1.3-9.8-2.33-14.64.83,1.42,1.61,2.87,1.92,4.51.34,3.33.61,6.66,1.03,9.98.34,2.65-.12,3.34-2.81,3.38-2.67.04-5.34-.02-8-.04Z"/>
      <path class="l" d="m83.14,179.52c2.19,1.04,4.6.61,6.88,1.02.87.16,1.82-.21,2.62.4-4.39,0-8.77,0-13.16,0,1-1.75,2.38-1.37,3.66-1.42Z"/>
      <path class="d" d="m124.21,135.07c.1.16.21.33.31.49-2.02.68-4.06,1.24-6.23,1.05,1.76-1.34,3.86-1.34,5.92-1.54Z"/>
      <path class="i" d="m160.1,238.93c1.44-3.47,1.74-7.26,3.22-10.74,3.72-8.72,8.61-16.54,15.88-22.84,4.92-4.27,10.14-7.91,16.23-10.28.44-.17,1.97-.51.2-1.21,2.6-.94,5.41-1,8.07-1.39,4.6-.67,9.35-.95,14.06-.32,1.55.21,2.41,1.2,2.63,2.48.4,2.35,1.89,2.56,3.82,2.58,8.36.11,16.49,1.29,24.27,4.67,10.03,4.36,18.91,10.36,26.4,18.26,8.09,8.54,15.01,18.05,22.21,27.35,5.72,7.39,12.33,14.29,20.49,19.41,4.45,2.79,8.81,5.71,13.63,7.84,7.74,3.42,15.86,5.7,24.11,7.45,11.37,2.41,22.93,2.79,34.48,2.2,12.75-.65,25.11-3.19,36.94-8.31,10.35-4.48,19.62-10.43,27.64-18.32,10.06-9.9,16.97-21.59,19.45-35.61.84-4.75.05-9.6.29-14.4.91.35.98,1.23,1.27,1.97,3.96,10.1,5.03,20.45,3.22,31.2-1.86,11.11-6.4,20.82-13.9,29.18-.81-.02-1.16.38-1.07,1.17l.03-.02c-1.33.21-2.23.82-2.16,2.32l.05.07c-2.47-.6-2.62,3-5.05,2.71.13-4.1,3.47-6.56,5.3-9.92-1.33-.19-1.97.51-2.69,1.04-6.2,4.67-12.78,8.75-19.65,12.31-9.97,5.18-20.65,8.5-31.51,11.16-5.52,1.35-11.1,2.54-16.82,3.06-6.51.6-13.01,1.21-19.52,1.8-6.62.6-13.12-.04-19.61-.47-7.4-.49-14.76-1.89-22.02-3.65-7.64-1.84-14.76-4.82-20.88-9.74-11.38-9.15-19.45-21-26.76-33.46-3.03-5.16-6.24-10.24-9.78-15.06-4.36-5.95-9.13-11.58-14.94-16.26-3.16-2.55-6.47-4.77-10.05-6.67,2.36,3.03,4.93,5.78,7.41,8.61.89,1.02,2.45,1.96,1.22,3.73-3.74-2.63-7.25-5.57-11.12-8.06-12.61-8.1-26.29-11.06-40.92-7.9-14.49,3.12-25.89,11.31-34.86,23.01-2.25,2.94-4.14,6.07-5.79,9.37-.34.67-.58,1.73-1.58,1.66-1.12-.08-1.8-.83-1.85-2.01Z"/>
      <path class="d" d="m256.23,222.86c1.23-1.77-.32-2.71-1.22-3.73-2.48-2.84-5.06-5.59-7.41-8.61,3.57,1.9,6.89,4.12,10.05,6.67,5.8,4.69,10.58,10.31,14.94,16.26,3.53,4.82,6.75,9.9,9.78,15.06,7.31,12.46,15.38,24.31,26.76,33.46,6.12,4.92,13.24,7.89,20.88,9.74,7.26,1.75,14.62,3.16,22.02,3.65,6.49.43,12.99,1.07,19.61.47,6.5-.59,13.01-1.2,19.52-1.8,5.72-.53,11.31-1.71,16.82-3.06,10.86-2.65,21.54-5.98,31.51-11.16,6.87-3.57,13.45-7.65,19.65-12.31.72-.54,1.36-1.24,2.69-1.04-1.83,3.36-5.18,5.82-5.3,9.92,2.43.29,2.58-3.31,5.05-2.71-.53.63-1.02,1.29-1.58,1.89-4.28,4.58-9.32,8.29-14.1,12.29-5.14,4.18-11.59,5.42-17.56,7.67-5.52,2.08-11.16,4.04-16.9,5.32-6.38,1.42-12.71,3.14-19.28,3.84-4.91.52-9.81,1.45-14.67,2.28-5.86.99-11.79,1.2-17.62,1.57-12.33.78-24.74.97-37.11-.44-4.26-.48-8.53-1.31-12.81-1.29-3.2,0-6.13-1.05-9.03-1.83-3.88-1.05-7.95-1.1-11.75-2.54-1.26-.48-1.53-.99-1.52-2.12.05-7.89-.93-15.68-2.61-23.36-1.3-5.93-3.16-11.71-5.37-17.39-4.84-12.48-11.77-23.64-20.62-33.64-.91-1.03-1.86-2.03-2.79-3.04Z"/>
      <path class="k" d="m258.22,321.72c-1.05.35-1.1,1.35-1.5,2.17-4.52,9.4-10.11,18.22-18.42,24.57-7.55,5.77-16.45,8.03-26.12,5.9-6.17-1.36-11.7-4.08-16.39-8.12-2.02-1.74-4.41-3.65-4.9-6.79-.21-1.34.37-1.64,1.35-1.88,0,0,.02.04.02.04-.09.11-.18.23-.27.34.12-.08.23-.16.35-.24.86.82,1.73,1.62,2.57,2.47,7.09,7.2,15.65,10.85,26.1,10.72-2.37-1.33-5.01-.62-7.05-2.01-.18-.3-.41-.37-.7-.15l-.16.02c0-1.38-.83-.84-1.51-.66l-.18.08c2.26-2,5.14-.93,7.68-1.32,4.46-.68,8-2.76,11.15-5.61,8.91-8.08,12.88-18.68,14.85-30.19,1.73-10.1,1.5-20.23-.66-30.2-1.64-7.6-5.01-14.59-8.87-21.36-2.53-4.43-5.94-8.12-9.82-11.18-3.32-2.61-7.2-4.78-11.77-4.74-3.98-.9-8-1.47-12.02-.46-11,2.76-16.4,11.03-20.23,20.8-3.09,0-6.17-.06-9.26,0-1.92.03-2.32-.68-1.35-2.28.07.54.14,1.07.22,1.66,1.17-1.08,1.12-1.1,1.64-2.46,5.09-13.16,12.35-24.63,25.32-31.4,7.16-3.74,14.7-5.32,22.63-2.51,10.24,3.63,17.66,10.73,23.86,19.38,9.02,12.58,13.68,26.79,16.01,41.91.59,7.07.59,14.14-.05,21.21-.91,4.07-1.08,8.3-2.53,12.27Zm-8.62-37.29c-.54-11.6-3.86-22.3-10.53-31.86-6.71-9.61-15.54-16.09-27.3-18.13-2.34-1.05-4.76-.54-7.21-.19,1.5.23,3,.47,4.5.7,5.9,1.7,11.38,4.24,16.14,8.19,14.35,11.91,21.24,27.71,23.85,45.73-.3,2.04.51,3.89.82,5.83.13-3.45.87-6.9-.28-10.27Z"/>
      <path class="m" d="m259.66,418.85c-11.53-.77-22.92-2.42-34.09-5.4,1.5.07,2.28-.99,3.16-1.94,8.23-8.88,14.32-19.22,20.08-29.76,1.17-2.15,2.72-2.94,4.91-3.34,12.15-2.22,23.7-6.21,34.76-11.7,1.82-.9,3.38-2.44,5.91-2.79-.58,1.06-.93,1.8-1.37,2.48-9.87,15.28-19.78,30.53-29.58,45.85-1.36,2.13-3.22,4.01-3.79,6.6Z"/>
      <path class="m" d="m264.59,182.39c-.04-3.75-1.73-7.13-2.4-10.76-2.61-14.17.24-26.84,9.96-37.85-.6,2.47-.13,4.99-.48,7.44-1.28,9.1.77,17.6,4.67,25.71,3.48,7.23,8.88,12.82,15.45,17.35.65.45,1.3.65,2.04.73-4.39,1.01-8.69,2.35-13.19,2.89-6.26.74-11.62-1-16.05-5.5Z"/>
      <path class="m" d="m134.62,384.97c-1.12-2.19-3.62-2.85-5.09-4.83-3.31-4.43-4.74-9.16-4.08-14.6.11-.91.11-1.83.16-2.75,5.75-2,11.34-4.32,16.17-8.55.61,2.43.9,4.62,1.7,6.61,2.15,5.32,6.42,8.46,11.66,10.26,1.74.6,2.12,1.21,1.53,2.94-2.7,7.99-11.85,13.05-20.44,11.18-.53-.12-1.08-.17-1.62-.26Z"/>
      <path class="m" d="m192.24,94.37c6.46-7.18,12.09-15.17,19.79-21.17,8.38-6.53,18.31-9.54,29.17-12.33-3.89,4.94-7.33,9.3-10.76,13.66-.45.58-.94,1.14-1.28,1.78-2.64,4.92-7.35,6.91-12.2,8.76-2.92,1.11-5.87,2.15-8.55,3.81-1.65.56-3.34,1.02-4.92,1.73-.63.28.28.42.36.68-3.87,1.03-7.75,2.06-11.62,3.09Z"/>
      <path class="m" d="m261.67,288.13c.1-1.56,1.23-2.61,1.98-3.83.81-1.35,1.51-2.71,1.5-4.33,2.37,11.21,2.95,22.5,1.45,33.88-1.38,10.48-4.34,20.42-10.4,29.21-5.65,8.19-12.76,14.55-22.7,17.09-.5.13-1.03.59-1.45-.15,0-.14-.03-.39.03-.42,13.12-6.1,19.55-17.49,24.05-30.39.85-2.44,1.4-4.98,2.09-7.47,1.45-3.96,1.62-8.19,2.53-12.27,1.19-.17,1.04-1.09,1.05-1.9.05-6.48.93-12.96-.12-19.43Z"/>
      <path class="m" d="m194.76,81.32c-4.41,4.89-8.3,10.25-13.12,14.77-1.86.53-3.71,1.07-5.57,1.59-1,.28-2.28.03-2.73,1.39-4.2,1.03-8.34,2.39-12.72,2.57,3.26-3.23,7.18-5.61,10.95-8.12,7.24-4.82,14.86-9.03,22.84-12.55.11.12.23.24.35.35Z"/>
      <path class="k" d="m135.7,244.32c1.66.36,3.42-.14,5.03.64-.64.03-1.27.09-1.91.08-1.56-.02-2.56.01-1.45,2.11,1.05,2-1.28,2.43-2.3,3.35-.36.33-.96.39-1.08,1.02-6.44.6-12.28,2.66-17.19,7.01-1.33-.61-1.8-1.18-.79-2.75,4.12-6.37,10.34-9.16,17.37-10.73.8-.18,1.68-.05,2.31-.74Z"/>
      <path class="k" d="m92.77,291.11c-12.42.06-18.78-10.17-15.13-21.37.19-.57.5-1.11,1.35-1.6,0,1.67-.22,3.38.04,5.01.95,5.86,3.89,10.26,9.63,12.46.67.26,1.31.63,1.96.94,1.09,1.23.49,3.44,2.43,4.19.02,0,0,.18-.05.24-.05.06-.15.08-.23.12Z"/>
      <path class="k" d="m60.22,274.52c.11-.89-.32-1.6-.72-2.33-2.69-4.97-2.8-6.24-.71-12.29.85,6.13,4.69,8.01,10.31,8.35-2.94,3.37-2.67,7.46-4.56,10.77-1.67-.92-3.83-1.42-3.14-4.18.1-.39-.75-.29-1.19-.32Z"/>
      <path class="k" d="m164.57,323.63c-3.23-.6-6.49-1.09-9.53-2.44.43-.98,2.28-.09,2.24-1.7,1.2-.09,2.4-.16,3.51.44-.62.08-1.24.17-1.9.26,1.78,2.19,5.89-.79,6.74,3.2-.35.08-.71.16-1.06.23Z"/>
      <path class="e" d="m295.28,192.91c.29.6.85.48,1.35.51-3.26,1.37-6.65,2.07-10.18,2.05,2.95-.85,5.89-1.71,8.84-2.56Z"/>
      <path class="e" d="m173.33,99.08c.45-1.36,1.73-1.11,2.73-1.39,1.86-.53,3.72-1.06,5.57-1.59.21.65.82.52,1.29.66-3.13,1.06-6.32,1.85-9.6,2.32Z"/>
      <path class="e" d="m203.86,91.29c-.09-.26-.99-.4-.36-.68,1.58-.71,3.27-1.17,4.92-1.73.31.95,1.18.34,1.73.61-1.97,1.03-4.15,1.31-6.28,1.8Z"/>
      <path class="k" d="m229.22,361.05c-2.66.89-5.33.67-8.01.32,2.69.02,5.34-.53,8.01-.32Z"/>
      <path class="e" d="m74.31,251.8c-.61-.53-.48-1.2-.35-1.87.53.55.52,1.19.35,1.87Z"/>
      <path class="k" d="m92.81,286.86c.63-.14,1.21-.07,1.71.36-.62.11-1.23.18-1.71-.36Z"/>
      <path class="m" d="m164.57,323.63c.35-.08.71-.16,1.06-.23.18.17.36.35.54.52-.55,0-1.12.12-1.6-.29Z"/>
      <path class="e" d="m40.51,252.15c.2.68.15,1.3-.41,1.8-.25-.69-.09-1.28.41-1.8Z"/>
      <path class="m" d="m159.96,102.02c.09-.35.3-.49.66-.38-.05.42-.34.42-.66.38Z"/>
      <path class="m" d="m236.74,74.49c3.46-4.27,7.11-8.39,10.31-12.84,2.63-3.65,6.46-4.34,10.31-4.94,12.5-1.95,25.03-1.81,37.54.04,4.45.66,8.93,1.15,13.64,2.42-9.92,2.61-19.6,4.58-29.42,6-11.91,1.72-23.73,3.98-35.16,7.94-2.23.77-4.53,1.34-6.8,2-.14-.21-.28-.41-.43-.62Z"/>
      <path class="m" d="m194.41,80.97c.19-.08.38-.16.57-.24-.07.2-.15.39-.22.59-.12-.11-.24-.23-.35-.35Z"/>
      <path class="f" d="m451.41,204.61c.1,17.75-3.17,34.65-12.74,49.88-7.52,11.96-17.6,20.8-31.49,24.75-9.03,2.57-18.15,2.53-27.19.46-33.24-7.62-53.1-28.77-61.46-61.35-1.2-4.67-1.56-9.48-2.2-14.24-.28-2.11.09-2.82,2.45-2.2,8.67,2.28,17.46,4.06,26.34,5.35,12.22,1.77,24.52,2.04,36.84,1.77,18.72-.41,36.95-3.46,54.51-10.12,4.15-1.58,8.21-3.35,12.07-5.54,1.58-.9,2.32-.67,2.38,1.28.11,3.33.32,6.65.49,9.98Zm-94.52,49.64c-2.38.26-4.76.47-7.06,1.28-1.5.52-1.54.78-.38,1.86,3.2,2.97,6.76,5.43,10.6,7.44,6.45,3.38,13.21,5.66,20.43,7.17,10.91,2.28,21.52,2.4,32.2-.79,1.91-.57,1.88-1.24.52-2.31-2.62-2.04-5.16-4.21-7.94-6-4.07-2.62-8.45-4.31-13.45-2.82-1.48.44-1.85.96-.73,2.25,1.33,1.54,2.91,2.94,3.72,5.54-9.34-7.52-19.2-12.5-30.77-13.53-2.37-.7-4.75-.6-7.13-.1Zm12.53-21.5c-6.82,2.33-13.87,3.51-21.59,4.51,13.88,8.12,28.16,11.81,43.44,11.85,8.96.03,17.71-1.04,25.95-4.76,7.03-3.18,12.78-7.89,16.97-14.97h-12.22c5.66-2.01,10.9-4.69,16.15-7.36.98-.5,2.14-.87,2.47-2.07,1.34-4.83,2.48-9.69,2.62-14.56-36.97,15.68-75.37,14.89-114.48,10.92,12.35,9.22,25.7,14.73,40.68,16.43Z"/>
      <path class="i" d="m473.55,205.6c.53.64.72,1.36.58,2.18-.73-.58-1.34-1.2-.58-2.18Z"/>
      <path class="f" d="m157.28,319.49c.04,1.61-1.81.72-2.24,1.7-.35-.07-.7-.14-1.06-.22-.25-.1-.5-.2-.75-.3-1.2-.29-1.51.55-2.01,1.39-9.07,15.37-27.77,21.04-41.82,13.65-7.63-4.01-12.36-10.33-13.87-18.92.05-.99.34-2-.38-2.89-.01-.91-.02-1.83-.04-2.74,1.43.62,2.84-1.24,4.27-.01,2.79,9.66,9.1,15.84,18.94,17.65,9.49,1.74,17.82-1.47,24.28-8.47,2.76-3,5.02-4.34,8.68-2.04.74.47,1.77.48,2.66.7.7.71,1.54.53,2.38.4l.94.1Z"/>
      <path class="k" d="m99.4,311.16c-1.43-1.23-2.85.63-4.27.01-.04-4.74,1.43-9.02,4.14-12.99-.27,4.35-.67,8.68.13,12.98Z"/>
      <path class="k" d="m95.17,313.9c.72.89.43,1.9.38,2.89-.62-.9-.52-1.89-.38-2.89Z"/>
      <path class="k" d="m156.34,319.38c-.84.13-1.68.31-2.38-.4.83-.08,1.66-.15,2.38.4Z"/>
      <path class="k" d="m153.23,320.67c.25.1.5.2.75.3-.25-.1-.5-.2-.75-.3Z"/>
      <path class="i" d="m65.04,194.44c.83.09,1.73-.18,2.41.63-.91.33-1.92,1.17-2.43-.62,0,0,.02-.02.02-.02Z"/>
      <path class="d" d="m463.68,271.25c-.47,1.01-1.18,1.79-2.16,2.32-.07-1.51.83-2.11,2.16-2.32Z"/>
      <path class="d" d="m464.71,270.09c-.19.54-.47,1-1.07,1.17-.09-.8.26-1.19,1.07-1.17Z"/>
      <path class="e" d="m261.67,288.13c1.05,6.47.17,12.95.12,19.43,0,.81.15,1.73-1.05,1.9.64-7.07.64-14.14.05-21.21.29-.04.58-.08.87-.12Z"/>
      <path class="e" d="m249.05,288.88c1.19-1.36.14-2.99.54-4.44,1.15,3.37.41,6.82.28,10.27-.31-1.95-1.12-3.8-.82-5.83Z"/>
      <path class="e" d="m211.77,234.44c-.86.38-1.98-.55-2.71.52-1.5-.23-3-.47-4.5-.7,2.45-.36,4.87-.87,7.21.19Z"/>
      <path class="f" d="m213.09,348.78c-.5-.22-1-.44-1.51-.66.68-.18,1.51-.71,1.51.66Z"/>
      <path class="f" d="m192.25,337.62s.07.1.07.1c-.12.08-.23.16-.35.24.09-.11.18-.23.27-.34Z"/>
      <path class="f" d="m213.94,348.9c-.23-.05-.46-.1-.7-.15.29-.22.52-.15.7.15Z"/>
      <path class="h" d="m364.02,254.34c11.56,1.03,21.43,6.01,30.77,13.53-.81-2.6-2.39-4-3.72-5.54-1.12-1.29-.75-1.81.73-2.25,5.01-1.49,9.38.19,13.45,2.82,2.78,1.79,5.32,3.96,7.94,6,1.37,1.07,1.4,1.74-.52,2.31-10.68,3.18-21.29,3.06-32.2.79-7.22-1.51-13.98-3.79-20.43-7.17-3.83-2.01-7.39-4.47-10.6-7.44-1.16-1.08-1.12-1.34.38-1.86,2.31-.8,4.68-1.02,7.06-1.28,2.38.03,4.75.06,7.13.1Z"/>
      <path class="k" d="m364.02,254.34c-2.38-.03-4.76-.06-7.13-.1,2.39-.51,4.76-.61,7.13.1Z"/>
      <path class="f" d="m308.13,151.55c-2.76.94-5.52,1.88-8.28,2.81-3.84-8.84-1.06-18.73,6.41-22.89,6.21-3.46,15.31-1.84,18.75,3.33-3.94.79-6.23,3.16-6.46,6.71-.24,3.68,2.07,7.23,5.32,8.22,2.98.9,6.37-.66,8.35-3.86,2.61,6.29-1.2,15.51-8.12,19.62-7.41,4.41-15.78,2.65-20.88-4.3-.75-1.02-.81-1.52.08-2.5,1.9-2.09,3.58-4.37,5.35-6.58-.17-.19-.35-.37-.52-.56Z"/>
    </g>
  </g>
</svg>