<?xml version="1.0" encoding="UTF-8"?>
<svg id="b" data-name="Layer 2" xmlns="http://www.w3.org/2000/svg" viewBox="0 0 768 768">
  <defs>
    <style>
      .d {
        stroke-width: 0px;
      }
    </style>
  </defs>
  <g id="c" data-name="Layer 1">
    <g>
      <path class="d" d="m234.05,362.89c-2.7-.29-5.03-.49-7.34-.81-12.77-1.75-20.19-12.27-17.94-24.99,2.37-13.39,12.3-20.02,24.78-21.59,3.7-.47,7.49-.23,11.21-.64,1-.11,2.51-1.24,2.7-2.13.82-3.88,1.7-7.83,1.72-11.76.24-36.21.31-72.43.42-108.64.02-5.35,1.93-7.24,7.4-7.23,4.62,0,9.25-.06,13.87-.04,4.53.02,6.56,2.11,6.56,6.63,0,23.1-.04,46.2.02,69.31,0,2.52-.42,4.21-2.77,5.86-6.98,4.92-12.9,10.94-16.3,19.1.53-.61,1.08-1.21,1.6-1.83.64-.77,1.28-1.53,1.88-2.33,6.69-9.01,15.28-15.77,25.33-20.57,3.26-1.56,4.07-3.54,4.04-6.91-.15-22.35-.1-44.71-.12-67.06,0-1.24,0-2.48,0-4.1h40.84c0,1.53,0,3.14,0,4.74-.05,14.86-.02,29.72-.25,44.58-.03,2.14-1.27,4.3-2.13,6.37-.86,2.07-2.21,3.95-2.87,6.07-1.26,4.05-3.75,6.25-8.21,6.22,11.98-.33,23.77-.64,35.56-1.04.74-.02,1.73-.56,2.15-1.16,5.44-7.84,13.59-9.55,22.32-9.93,2.85-.12,5.72-.02,9.04-.02v-15.98c5.85,1.18,11.17,2.24,16.48,3.31,12.43,2.49,24.86,4.92,37.26,7.56,1.29.27,2.72,1.55,3.39,2.75,1.95,3.47,3.78,7.05,5.21,10.76,1.54,4,4.11,5.28,7.99,4.25-3.02-6.08-6.1-12.16-9.05-18.31-1.05-2.18-2.44-3.38-4.93-3.87-17.82-3.51-35.6-7.19-53.4-10.74-1.09-.22-2.41-.01-3.47.4-16.28,6.3-32.53,12.67-48.8,19-.31.12-.7.01-1.95.01,4.75-3.79,3.03-8.52,3.05-12.84.09-23.73.04-47.45.03-71.18,0-2.98,0-5.97,0-9.15,1.43-.11,2.47-.46,3.34-.2,4.99,1.47,8.71-3.07,12.53-2.79,6.15-11.29,4.64-23.32,4.87-35.85-59.63,9.31-110.08,35.13-152.06,77.45.11.35.22.7.33,1.06,4.07,0,8.2.43,12.19-.11,4.82-.66,7.58,1.75,10.34,5.01,1.38,1.63,3.35,2.76,5.06,4.12.29-.23.58-.45.86-.68v6.57h-34.19v5.54h34.43c.1,1.69.24,2.99.26,4.3.16,12.11.32,24.22.42,36.33.02,2.75.21,5.18,3.86,4.61v59.78c-18.64-2.16-32.79,3.59-39.55,21.98-4.7,12.78-1.82,22.48,9.82,34.91-3.6,6.87-7.56,13.52-10.66,20.53-7.43,16.79-8.09,34.55-6.51,52.5.95,10.79,2.15,21.56,3.21,32.35.1.97.01,1.96.01,3.08-1.93.36-3.71.69-5.79,1.08-4.38-17.21-11.53-32.88-24.31-45.33-5.02-4.9-10.84-8.98-16.61-13.7-2.35,4.51,2.01,5.9,2.24,8.56-8.56,1.32-17.11,2.63-26,4,4.27,6.64,18.82,9.57,32.2,2.2,3.56,4.4,7.2,8.89,11.32,13.98-9.13,1.73-17.41,3.29-25.69,4.86l-.13,1.68c2.16.94,4.23,2.19,6.48,2.78,6.45,1.68,12.94,1.09,19.17-.95,3.08-1,4.41-.11,5.33,2.57,1.65,4.78,3.34,9.55,5.35,15.28-6.01-2.23-10.93-4.15-15.91-5.88-13.04-4.54-26.1-5.17-39.01.41-6.64,2.87-11.79,7.51-14.99,14.04-.94,1.91-2.03,2.68-4.03,2.13-3.59-.98-7.27-1.76-10.74-3.07-2.35-.89-3.78-2.88-3.05-5.71.69-2.66,2.93-2.64,4.84-2.33,9.7,1.59,16.94-1.6,23.27-9.33,3.65-4.46,9.49-7.15,14.36-10.6.98-.7,2.05-1.27,3.75-2.32-9.8-1.93-16.21-7.67-22.66-13.74-7.96-7.49-16.58-14.27-25.09-21.5,15.96-32.45,53.82-44.77,86.83-13.84.78-1.99,1.92-3.86,2.15-5.83.15-1.28-.7-3.06-1.69-4.02-11.41-11.06-22.32-22.55-31.29-35.73-3.65-5.37-7.18-10.82-10.69-16.28-.97-1.51-1.65-3.22-2.41-4.74,3.2.26,6.15.85,9.04.65,2.91-.2,4.44.91,6.03,3.2,11.23,16.27,23.35,31.78,39.26,44.2,2.51-4.27,4.99-8.5,7.34-12.49-13.26-12.23-26.43-24.37-39.91-36.8,3.68-2.37,6.28-4.24,9.09-5.71.64-.34,2.19.5,3.02,1.17,6.81,5.46,13.54,11.01,20.3,16.52.34.28.72.52,1.24.89,0-11.81-.16-23.27.06-34.71.16-8.07,1.87-16.23,1.09-24.17-2.61-26.65-.58-53.32-1.15-79.96-.01-.6-.06-1.2-.14-2.74-11.61,14.66-21.04,29.75-29.29,45.33-3.86-1.3-7.27-2.94-10.86-3.52-3.64-.59-7.45-.13-11.17-.13,31.33-76.53,121.58-153.52,226.48-162,139.28-11.25,242.43,81.06,275.59,162.25-7.64-.66-15.26-1.38-22.31,3.52-7.85-14.54-15.85-28.79-26.91-41.37,0,4.07,0,8.14,0,12.21-.03,17.86-.08,35.71-.08,53.57,0,2.43-.08,4.66-2.4,6.28-.79.55-1.38,1.88-1.44,2.89-.28,5.1-.45,10.21-.45,15.32,0,1.29.33,3.07,1.2,3.78,3.3,2.7,3.13,6.23,3.11,9.88-.06,10.47-.02,20.94-.02,32.42,7.25-5.83,13.98-11.23,20.99-16.86,2.38,1.36,5.14,2.95,8.06,4.62-6.53,8.89-14.65,16.09-23.07,22.97-5.41,4.42-10.89,8.77-16.48,12.97-1.84,1.39-1.88,2.5-.78,4.33,1.99,3.31,3.76,6.74,6.02,10.85,5.78-5.14,11.91-9.7,16.92-15.26,8.42-9.35,16.27-19.23,24.02-29.15,2.18-2.78,4.03-4.69,7.82-4.19,2.05.27,4.2-.25,6.96-.46-1.98,3.29-3.73,6.32-5.6,9.27-10.69,16.86-23,32.4-38.66,44.93-4.52,3.62-5.85,6.9-2.37,11.88,3.29-2.59,6.66-5.42,10.21-8.02,16.07-11.77,37.77-12.79,53.72-2.21,9.61,6.37,16.94,14.98,22.78,25.32-11.72,5.56-20.49,14.44-29.28,23.31-5.6,5.65-8.9,7.44-18.95,11.08,2.35,1.14,4.42,2.11,6.46,3.14,7.83,3.93,14.24,9.63,19.93,16.17,1.78,2.05,3.71,2.99,6.49,2.78,3.48-.26,7.01-.29,10.49-.01,1.35.11,3.43,1.06,3.73,2.06.4,1.33-.18,4.09-1.11,4.49-4.39,1.91-9.02,3.28-13.61,4.67-.43.13-1.46-.82-1.82-1.48-9.14-16.86-24.43-20.41-41.57-18.07-8.25,1.13-16.17,4.74-24.23,7.25-1.88.59-3.71,1.3-6.62,2.33,2.39-6.97,4.48-13.09,6.59-19.23,10.32,1.99,20.04,4.88,29.04-1.31.05-.56.11-1.12.16-1.68-8.17-1.58-16.35-3.16-25.04-4.85,3.56-4.82,6.87-9.29,10.11-13.68,17.42,5.67,27.04,5.11,32.99-2.43-9.32-1.4-18.23-2.74-27.23-4.1,1.44-2.14,2.94-4.36,4.43-6.58-.32-.31-.64-.62-.96-.93-11.03,5.61-19.36,14.22-26.17,24.59-6.81,10.36-11.18,21.64-13.14,34.12-2.04-.44-3.94-.86-6.3-1.37.64-6.42,1.26-12.7,1.89-18.98,1.37-13.63,3.45-27.21,2.01-40.99-1.68-16.04-6.59-30.91-15.62-44.35-.83-1.24-1.6-2.53-2.37-3.82-.12-.2-.1-.48-.18-.9,5.53-5.57,10.48-11.68,11.49-19.91,1.5-12.15-2.16-22.76-11.74-30.29-4.27-3.36-6.3-6.44-5.52-11.59.11-.71-.08-1.46-.15-2.41h-8.27c-.12,2.44-.24,4.73-.37,7.23h-13.69c-.07-.78-.21-1.73-.21-2.68-.04-30.1-.08-60.19-.02-90.29,0-1.28.69-2.96,1.65-3.77,8.06-6.9,16.22-13.67,24.44-20.37.84-.68,2.29-.83,3.47-.85,4.73-.09,9.47-.04,14.43-.53-26.15-30.26-58.13-52.27-94.88-67.58-36.86-15.37-75.21-21.39-115.53-18-.02,12.32-1.59,24.79,5.59,36.21,1.94,1.01,5.16-.77,7.5,2.58.79,1.13,4.5.23,6.87.25,1.59.01,3.19,0,5.21,0v26.05h29.45v51.68c3.18.52,6.22,1.01,10.17,1.66.89-22.24,1.77-44.21,2.66-66.27,8.23-1.95,16.3-3.92,24.4-5.74,1.1-.25,2.46.1,3.55.54,2.19.9,4.17,2.45,6.42,3.02,6.33,1.6,7.11,5.68,7.11,11.6.03,28.59.64,57.18.96,85.77.03,2.57.82,3.82,3.34,4.88,11.29,4.73,21.36,11.35,29.4,20.79.29-.29.58-.59.87-.88-3.5-3.47-6.92-7.02-10.52-10.37-1.44-1.34-3.15-2.58-4.96-3.32-5.2-2.11-6.27-5.86-6.18-11.18.3-16.73.03-33.46,0-50.2,0-.99.1-1.97.17-3.23h35.28c0,1.37,0,2.7,0,4.02-.06,31.34-.26,62.69-.06,94.03.03,5.12,1.66,10.26,2.9,15.31.2.83,2.12,1.57,3.35,1.78,6.59,1.16,13.59,1.14,19.76,3.39,15.82,5.78,18.01,24.06,12.5,33.85-4.39,7.8-11.84,9.73-19.89,10.57-.82.09-1.64.13-3.37.26,2.55,2.94,4.54,5.43,6.73,7.72,10.95,11.4,16.92,25.06,18.74,40.67,1.83,15.74,1.83,31.33-3.42,46.56-.39,1.14-.38,2.45-.38,3.68-.04,12.24-.08,24.48-.04,36.71.04,14.86-7.32,22.41-22.24,22.49-4.47.02-9.06.11-13.38-.81-6.89-1.47-11-6.98-11.34-14-.15-3.1-.02-6.2-.02-9.68-84.95,8.59-169.47,8.64-254.49-.07,0,2.29-.16,4.5.03,6.69.79,9.31-5.05,16.44-13.82,17.36-6.25.66-12.79.74-18.93-.39-8.33-1.53-13.28-8.04-13.63-16.59-.39-9.59-.37-19.2-.33-28.8.04-8.5-1.23-16.71-2.94-25.07-4.13-20.23-3.45-40.43,4.58-59.89,3.64-8.83,9.83-15.85,16.2-22.74.68-.73,1.34-1.48,1.97-2.25.22-.28.31-.66.7-1.55Zm249.95-.91c6.99-.42,14.58-.78,22.16-1.37,4.71-.37,9.44-.82,14.07-1.7,4.56-.86,6.06-3.49,4.8-7.85-4.21-14.61-8.31-29.25-12.83-43.76-6.79-21.81-22.28-34.63-43.74-40.65-15.55-4.36-31.68-3.95-47.58-4.18-28.22-.39-56.45.02-84.67.6-9.42.19-19.03,1-28.18,3.12-19.85,4.6-35.95,15.24-43.3,34.92-6.08,16.3-10.2,33.34-14.95,50.12-1.2,4.26.72,7.1,5.42,7.63,10.89,1.22,21.83,1.97,32.76,2.74,2.22.16,3.3.32,3.98,3,2.88,11.41,10.08,19.13,21.59,22.03,11.41,2.88,21.44-.08,29.77-8.55.8-.82,2.2-1.47,3.33-1.48,26.86-.13,53.73-.2,80.6-.1,1.83,0,4.1.97,5.4,2.27,13.3,13.23,34.64,11.67,45.28-3.76,2.62-3.79,3.99-8.44,6.08-13.02Zm50.76,13.5c-.26.23-.52.46-.77.69.96.75,1.99,1.43,2.86,2.27,6.49,6.33,11.4,13.65,12.72,22.76,1.74,12.05,1.21,24.08-1.06,36.08-3.09,16.33-12.84,26.98-28.64,30.62-13.18,3.04-26.83,4.41-40.36,5.47-19.29,1.5-38.64,2.59-57.98,2.86-26.46.37-52.93.01-79.39-.46-14.46-.26-28.92-1.15-43.34-2.22-12.54-.93-25.1-2.06-37.53-3.94-16.01-2.42-27.91-10.83-32.96-26.75-4.52-14.26-4.69-28.9-2.02-43.6,1.54-8.48,6.14-15.33,12.1-22.21-7.89,4.64-14.37,14.97-16.46,25.5-2.33,11.73-2.55,23.5-.68,35.31,2.94,18.54,11.79,32.46,30.63,38.17,5.22,1.58,10.63,2.84,16.04,3.39,17.34,1.75,34.71,3.44,52.1,4.5,19.01,1.17,38.07,1.82,57.12,2.29,9.95.25,19.93-.23,29.89-.65,25.44-1.08,50.89-1.91,76.29-3.66,12.99-.89,26.06-2.65,38.71-5.63,13.58-3.2,23.42-11.88,28.21-25.49,5.52-15.69,6.1-31.66,2.75-47.84-2.4-11.58-7.97-21.1-18.23-27.47Zm-148.06,64.23c12.25.09,22.68-2.54,32.37-8.16,7.45-4.32,13.5-10.25,18.42-17.3,2.31-3.32,1.97-6.52-.71-8.68-2.45-1.98-5.37-1.48-8.27,1.45-.88.89-1.67,1.86-2.52,2.77-18.32,19.69-50.99,21.38-71.13,3.61-2.7-2.39-5.08-5.14-7.75-7.56-2.27-2.06-4.84-1.94-7.14-.04-2.21,1.83-2.43,4.25-1.22,6.77.48,1,1.1,1.96,1.78,2.85,11.86,15.77,27.62,23.98,46.17,24.28Zm-96.26-29.14c-.04-17.05-12.8-29.99-29.59-30-16.96,0-30.36,13.43-29.68,30.75.64,16.26,12.39,28.66,29.62,29.16,17.19.5,30.28-14.12,29.66-29.91Zm253.59-.34c-.71-17.82-13.84-30.32-31.16-29.66-16.36.62-28.76,14.3-28.21,31.09.53,16.3,14.78,29.53,31.08,28.88,15.95-.64,28.92-14.53,28.29-30.32Zm-11.82-83.23c1.8,6.52,3.33,11.85,4.73,17.22,1.79,6.85,1.75,6.98,8.77,6.44,3.22-.25,6.56-.87,8.25-4.2,3.41-6.74-.6-16.8-7.9-18.61-4.17-1.03-8.71-.59-13.85-.85Zm-290.13,1.2c-2.76-.42-5.06-.96-7.38-1.09-10.04-.57-15.93,5.6-15.03,15.62.39,4.36,2.77,7.25,7.08,7.79,3.03.38,6.14.07,9.24.07,2.05-7.54,4.03-14.81,6.09-22.4Zm103.81-96.29c2.76-1.56,5.42-1.6,5.38-5.64-.26-22.21-.19-44.43-.23-66.65,0-1.37.18-2.81-.16-4.1-.26-.97-1.46-2.56-1.83-2.46-1.13.32-2.42,1.14-2.96,2.14-.54.99-.3,2.43-.31,3.68-.05,23.09-.08,46.18-.1,69.27,0,.99.11,1.98.21,3.76Zm33.08-81.02v67.77c4.17-.51,5.93-2.13,5.85-6.68-.33-18.93-.16-37.88-.16-56.82,0-4.91-.31-5.16-5.69-4.27Zm-21.95,75.94c4.34-.3,5.59-2.15,5.34-5.9-.36-5.34-.09-10.73-.09-16.09,0-16.22.03-32.45-.1-48.67,0-1.11-1.22-2.2-1.87-3.3-1.02,1.02-2.51,1.87-2.93,3.1-.55,1.58-.3,3.45-.3,5.19-.03,18.35-.04,36.69-.05,55.04,0,3.49,0,6.97,0,10.64Zm11.04-4.17c4.56-.13,5.5-2.1,5.45-5.92-.24-17.81-.11-35.62-.12-53.43,0-2.74.1-5.5-.2-8.21-.09-.87-1.48-2.36-2-2.25-1.08.23-2.24,1.17-2.87,2.14-.46.71-.16,1.94-.16,2.93-.04,14.2-.07,28.4-.09,42.6-.01,7.33,0,14.66,0,22.15Zm98.3-19.29c-.09,1.38-.23,2.6-.24,3.83-.09,13.84-.16,27.69-.25,41.53-.03,5.61.12,5.76,6.48,5.83,0-1.22,0-2.45,0-3.67.01-12.22-.33-24.46.2-36.66.23-5.17-1.12-8.52-6.2-10.86Zm-326.48,209.69c-.65-4.95-1.2-10.08-2.12-15.15-.17-.94-1.76-2.17-2.83-2.32-7.32-1.02-13.68,1.49-19.4,5.88-.46.35-.55,1.2-.52,1.13,8.31,3.5,16.36,6.88,24.87,10.46Zm519.19-10.61c-5.45-4.25-11.52-7.09-18.66-7.01-1.17.01-3.21.85-3.35,1.59-1.05,5.46-1.72,10.99-2.49,16.36,8.59-3.84,16.46-7.35,24.49-10.93Zm-88.16-99.82v14.95h8.53v-14.95h-8.53Zm-132.49-101.46c2.21-.12,4.2-.22,6.23-.33v-19.41h-6.23v19.74Zm13.14-20.48v20.08h6.09v-20.08h-6.09Zm-85.27,71.3l.31,1h43.91c.06-.38.12-.75.18-1.13-2.19-.55-4.38-1.55-6.59-1.58-10.58-.17-21.17-.17-31.75,0-2.03.03-4.04,1.11-6.05,1.7Zm204.46-20.72v11.89q8.93,1.09,8.94-7.08c0-1.58,0-3.16,0-4.81h-8.94Zm-14.02,12.16v-11.77h-8.35v11.77h8.35Zm-83.43-47.68c0-3.36.03-6.55,0-9.73-.05-5.25-1.04-6.43-6.85-7.95,0,2.67.34,5.31-.07,7.82-.91,5.51,1.98,8.12,6.93,9.86Zm83.35,54.77c-2.13,0-4.23-.18-6.27.09-.78.1-1.98,1.16-2.03,1.86-.23,2.9-.1,5.83-.1,8.91h8.4v-10.86Zm14.31,11.1h7.88v-10.93h-7.88v10.93Zm-348.55,245.58c-.41-8.97,2.78-18.47-3.95-26.5,1.55,8.81-2.68,18.39,3.95,26.5Zm30.18-57.75c-2.71-.11-5.03,2.07-5.12,4.81-.1,2.9,2.43,5.67,5.22,5.73,2.67.05,5.29-2.54,5.3-5.24,0-2.39-2.85-5.19-5.39-5.29Zm301.18,56.94c5.69-8.47,2.46-17.98,3.3-27.05-6.4,8.36-2.83,17.92-3.3,27.05Zm-282.89-51.77c.02-2.49-2.43-5.03-4.95-5.14-2.57-.11-5.26,2.24-5.39,4.71-.14,2.72,2.63,5.82,5.21,5.84,2.58.01,5.1-2.65,5.13-5.42Zm12.78.36c.08-3-2.07-5.41-4.88-5.47-2.96-.06-5.12,2.11-5.13,5.17-.01,2.66,2.26,5.23,4.7,5.32,2.94.11,5.24-2.06,5.32-5.02Zm287.2-235.03c8.69,1.04,9.6-.12,7.71-9.32h-7.71v9.32Zm-14.45-.02v-9.3h-7.38v9.3h7.38Zm-340.95,53.68c-3.27,0-6.36-.18-9.4.13-.73.08-1.78,1.82-1.77,2.8,0,.95,1.1,2.63,1.84,2.71,3.03.31,6.1.13,9.33.13v-5.77Zm.23,20.03c-.85-2.33,1.9-5.25-1.88-5.8-3.1-.46-6.32-.09-9.4-.09-.79,5.68-.74,5.76,4.35,5.89,2.09.05,4.18,0,6.93,0Zm108.3-72.54c.05-3.21-1.36-4.81-3.89-4.93-2.67-.12-4.89,1.9-4.75,4.53.14,2.6,1.26,4.69,4.16,4.73,3.05.04,4.24-2.05,4.48-4.33Zm-119.34,87.08h10.56v-5.64h-10.56v5.64Zm102.98-87.46c-.15-2.84-1.66-4.56-4.36-4.58-2.71-.02-4.3,1.64-4.35,4.47-.04,2.62,2.17,5.09,4.52,4.84,2.76-.3,3.99-2.14,4.19-4.74Zm263.51,48.98v6.99h7.64v-6.85c-1.01-.05-1.74-.12-2.47-.13-1.62-.02-3.23,0-5.17,0Zm-312.4-21.38c8.03.89,8.67.12,6.7-7.33h-6.7v7.33Zm-.11-32.11c2.82-.45,5.84-.08,7.02-1.37,1.08-1.19,1.03-5.2-.08-6.13-1.47-1.24-4.44-.71-6.94-.95v8.46Zm49.04-12.53c-1.13-.84-2.61-2.76-4.35-3.05-2.66-.44-4.37,1.37-4.28,4.31.08,2.61,1.35,4.31,4.04,4.4,2.93.1,4.11-1.82,4.6-5.66Zm137.61-39.1q-6.28-.64-6.47,4.73c-.05,1.46,0,2.91,0,4.46h6c.16-3.13.31-6.05.47-9.18Zm-229.79,100.68v-5.36h-10.75v5.36h10.75Zm108.54-60.42c-.46-2.3-1.48-4.23-4.48-4.25-2.84-.01-4.02,1.65-4.14,4.21-.13,2.91,1.47,4.33,4.29,4.45,2.87.13,3.86-1.73,4.33-4.42Zm224.36,64.99v6.79h8.01v-6.79h-8.01Zm-289.66-4.3h6.98v-7.64h-6.98v7.64Zm199.36-101.16h-5.75v9.07h5.75v-9.07Zm-236.66,52.61c.03-2.9.39-5.04-3.21-5.09-3.7-.05-3.55,2.21-3.64,4.6-.08,2.36-.08,4.48,3.33,4.53,3.61.05,3.58-2.21,3.51-4.04Zm11.98,30.91c.38-.46.75-.91,1.13-1.37-.46-2.4-.51-5.02-1.62-7.06-.34-.63-4.75-.29-5.23.65-.88,1.74-.99,4.74.01,6.29.78,1.21,3.72,1.04,5.71,1.48Zm-19.58-17.2c1.32,1.22,2.49,3.22,3.99,3.51,3.02.58,4.06-1.77,3.92-4.42-.12-2.22-.21-4.47-3.64-4.33-3.25.13-3.62,1.95-4.27,5.25Zm44.97,1.34h7.14v-7.56c-2.54.11-4.82.21-7.14.31v7.25Zm-49.43-15.54c-.2-2.02.71-4.66-3.03-4.57-2.92.07-3.94,1.41-3.92,4.15.02,2.56.18,4.79,3.57,4.86,3.2.07,3.62-1.88,3.38-4.43Zm17.24,16.83c.37.36.74.72,1.11,1.08,2.1-.57,5.08-.53,6.04-1.9.98-1.38.5-4.46-.43-6.22-.45-.84-4.7-.99-5.01-.36-1.09,2.21-1.22,4.9-1.71,7.4Zm.38-17.53c.04,2.5-.4,4.9,3.17,4.84,2.86-.05,4.42-.76,4.17-4.04-.2-2.64-.03-4.76-3.86-4.72-3.4.04-3.61,1.76-3.49,3.92Zm321.38,76.95h8.1v-6.39h-8.1v6.39Zm30.58-6.33h-7.98v6.38h7.98v-6.38Zm-82.65-42.55c-.04,2.56.34,4.81,3.42,4.87,2.81.06,4.28-1.27,4.41-4.32.14-3.24-1.74-3.73-4.2-3.81-2.31-.07-4,.57-3.63,3.26Zm-286.83-13.54c.16-2.71.1-4.88-3.25-4.82-2.61.05-3.85,1.12-3.84,3.83.01,2.56.13,4.77,3.5,4.92,3.13.14,3.75-1.7,3.59-3.93Zm-.89,17.53c.41-.4.82-.81,1.23-1.21-.57-2.46-.87-5.05-1.93-7.28-.23-.49-4.37-.12-4.63.6-.69,1.9-.92,4.6,0,6.23.67,1.18,3.48,1.15,5.33,1.66Zm12.12,0c.37-.41.73-.81,1.1-1.22-.47-2.38-.58-4.94-1.64-7.03-.3-.59-4.65-.24-4.92.49-.7,1.89-.82,4.62.13,6.27.65,1.14,3.47,1.04,5.33,1.49Zm297.63-3.4c.46-2.53-.64-3.93-3.31-3.95-2.63-.02-4.25,1.23-4.27,3.97-.01,2.43,1.26,4.08,3.73,4.19,2.66.12,4.19-1.23,3.86-4.2Zm.13-12.58c0-4.32-1.99-4.92-4.24-4.88-2.62.06-4.11,1.97-3.45,4.16.47,1.58,2.65,3.77,3.96,3.7,1.54-.08,2.97-2.31,3.73-2.98Zm-22.79-.26c1.45,1.19,2.8,3.16,4.38,3.37,2.51.34,3.98-1.57,4.03-4.25.05-2.54-1.42-3.59-3.69-3.74-2.61-.17-3.88,1.25-4.72,4.62Zm8.99-13.37c.01-.57.03-1.14.04-1.71-1.47-1.16-2.83-3.04-4.45-3.3-2.36-.38-3.76,1.43-3.83,3.98-.07,2.7,1.4,4.19,3.85,3.77,1.57-.27,2.93-1.78,4.39-2.74Zm-87.78-6.82c-.63-3.48-1.78-4.72-4.48-4.7-2.57.01-3.58,1.29-3.61,3.62-.03,2.4.91,4.46,3.56,3.99,1.63-.29,3.02-1.9,4.52-2.91Zm96.96,10.29c3.61-.68,4.63-2.2,4.65-4.72.02-2.52-1.29-3.65-3.67-3.71-2.6-.06-4.29,1.42-3.9,3.84.26,1.64,1.9,3.06,2.92,4.58Zm-96.09-39.1c-2.5-1.75-4.07-3.67-5.63-3.66-1.14,0-3.36,2.74-3.15,3.91.28,1.57,2.28,3.59,3.84,3.91,1.07.22,2.66-2.14,4.93-4.16Zm-.74,14.65c-.42-3.55-2.43-4.69-4.33-4.28-1.48.32-3.37,2.18-3.68,3.66-.51,2.36,1.52,4.23,3.78,3.92,1.54-.21,2.84-2.14,4.24-3.3Zm-18.43,9.46c-2.65-.32-3.73,1.02-3.54,3.48.17,2.17.49,4.31,3.5,4.27,2.69-.04,3.88-1.62,3.86-4.02-.02-2.33-.9-4.21-3.82-3.73Zm.25-13.46c-2.39-.31-3.89.29-3.76,3.1.11,2.35.59,4.32,3.39,4.33,2.59.01,3.65-1.48,3.7-4.06.05-2.46-.61-3.88-3.32-3.37Zm4.03-11.16c-1.5-1.08-2.88-2.81-4.51-3.08-2.45-.41-3.39,1.67-3.33,3.92.06,2.25.97,3.88,3.57,3.8,2.43-.07,3.64-1.34,4.27-4.64Zm-238.4,221.09c-1.34,8.43,7.09,10.08,9.21,15.65-.82-6.25-4.69-10.69-9.21-15.65Zm435.64,12.34c.39.36.78.72,1.17,1.07,3.11-4.43,9.19-6.61,10.11-12.7-.38-.3-.76-.59-1.13-.89-3.38,4.17-6.77,8.34-10.15,12.51Zm-473.44,1.25c-3.74-2-7.37-2.76-11.16-1.1-.03.37-.06.74-.1,1.1h11.26Zm531.09-.16c-.09-.66-.18-1.32-.27-1.99-3.59.49-7.17.97-10.76,1.46l.17.53h10.85Zm-427.37,76.9c-.15,0-.31.01-.46.02v13.42c.15,0,.31-.02.46-.03v-13.41Zm202.71-253.14l-1,.47c1.47,3.39,2.93,6.77,4.4,10.16.35-.15.7-.31,1.05-.46-1.48-3.39-2.97-6.78-4.45-10.17Z"/>
      <path class="d" d="m392.28,607.39c1.01-8.46,2.03-16.93,3.02-25.39.74-6.31,1.35-12.63,2.21-18.92.69-5.05,2.97-6.86,7.7-6.59,5.94.34,7.39,1.96,8.07,7.49,1.69,13.83,3.62,27.63,5.48,41.44.08.59.34,1.16,1.21,1.78,1.02-8.49,2.08-16.97,3.05-25.46,1.32-11.64,2.47-23.29,3.9-34.92.79-6.42,8.02-9.57,13.19-5.59,1.5,1.15,2.53,4.1,2.32,6.07-1.35,12.75-2.95,25.48-4.78,38.16-2.25,15.63-4.83,31.22-7.21,46.84-1.12,7.35-4.34,10.04-11.62,9.52-4.61-.33-7.43-2.54-8.47-7.07-1.39-6.06-2.56-12.17-3.84-18.25-.2-.95-.51-1.87-1.43-2.84-1.32,6.6-2.5,13.23-3.99,19.79-1.47,6.46-5.42,9.12-12,8.43-3.83-.4-6.69-2.08-7.44-6.15-1.47-8.07-3.03-16.13-4.28-24.24-3.01-19.42-5.87-38.86-8.75-58.29-.33-2.21-.57-4.46-.61-6.69-.06-4.01,2.63-6.7,6.71-6.94,4.97-.29,7.96,1.66,8.5,5.82,2.29,17.65,4.5,35.31,6.77,52.96.39,3.04.95,6.06,1.43,9.09.29,0,.58-.01.87-.02Z"/>
      <path class="d" d="m116.32,582.38c-2.53,1.34-4.24,2.34-6.02,3.15-2.25,1.03-2.93,2.72-2.91,5.11.11,9.99.11,19.98.12,29.97,0,7.08-2.23,9.41-9.26,9.78-4.76.25-7.53-1.9-7.6-6.63-.19-12.11-.12-24.22-.13-36.33,0-22.6,0-45.21.01-67.81,0-7.73,6.89-11.56,13.8-7.77,2.72,1.49,3.2,3.9,3.19,6.65-.02,13.11-.03,26.22,0,39.34,0,2.09.19,4.17.33,6.94,2.76-1.25,5.17-1.99,7.13-3.37.9-.64,1.28-2.52,1.3-3.84.11-11.86.08-23.73.1-35.59,0-5.05,2.58-7.77,7.38-7.85,5.87-.09,9.65,2.95,9.66,8.01.03,32.22-.13,64.44.1,96.65.05,7.21-9.03,10.88-14.28,7.76-1.59-.95-2.73-3.89-2.78-5.95-.27-11.23-.13-22.47-.13-33.71,0-1.22,0-2.45,0-4.5Z"/>
      <path class="d" d="m683.53,539.32c-.17,2.48-.13,4.25-.43,5.96-.87,5.06-4.33,7.46-10.13,7.19-4.79-.22-7.16-2.65-7.56-7.89-.15-1.99-.02-3.99-.15-5.98-.21-3.2-1.65-5.64-5.07-5.9-3.4-.25-5.3,1.91-6.02,5.02-1.29,5.57-.92,11.01,2.71,15.64,3.14,4.01,6.55,7.84,10.1,11.49,7.28,7.46,14.38,15.02,16.54,25.7,2.32,11.49,1.04,22.41-6.62,31.77-10.86,13.26-31.41,10.1-38.04-5.72-2.26-5.39-2.95-11.01-2.16-16.79.53-3.93,4.78-6.85,9.52-6.63,4.67.21,7.38,2.65,7.69,6.97.1,1.37,0,2.75.09,4.12.21,3.16,2.82,6.34,5.36,6.27,3.2-.09,5.05-2.16,5.73-5.04,1.48-6.22,1.03-12.2-3.41-17.26-3.45-3.94-6.97-7.82-10.59-11.6-7.43-7.77-13.88-16.03-15.35-27.17-1.03-7.82-.44-15.38,2.92-22.61,4.65-9.99,13.89-15.5,24.3-14.49,9.22.9,16.74,8.27,19.39,19.22.67,2.76.87,5.64,1.18,7.75Z"/>
      <path class="d" d="m463.46,580.61c7.4-.69,9.13-2.46,9.16-8.97.04-8.61.17-17.23.09-25.84-.03-3.31.86-6.04,3.91-7.44,3.51-1.62,7.36-2.1,10.74.07,1.29.83,2.36,3.05,2.37,4.64.1,28.34.06,56.68-.04,85.02-.02,4.54-3.96,7.22-10,7.18-4.46-.03-7-2.62-7.02-7.39-.05-9.22-.01-18.44-.01-28.24-2.4.84-4.34,1.53-6.28,2.19-2.19.75-2.96,2.22-2.93,4.56.11,8.49.04,16.98,0,25.47-.02,5.3-3.15,8.08-8.96,8.06-5.5-.02-7.88-2.49-7.87-8.08.08-27.72.15-55.43.22-83.15.02-7.25,1.99-9.35,9.15-9.73,4.5-.23,7.49,2.63,7.5,7.26.02,10.11,0,20.23-.02,30.34,0,1.34,0,2.68,0,4.06Z"/>
      <path class="d" d="m192.36,574.69c0-13.24-.07-26.47.03-39.71.05-6.57,2.95-9.54,9.57-8.88,9.28.94,18.59,2.12,27.7,4.04,10.09,2.12,16.6,9.17,17.47,19.11.99,11.34.59,22.94-.56,34.29-.99,9.71-8.08,15.29-17.86,16.1-4.35.36-8.74.22-13.11.41-5.72.24-6.97,1.59-6.97,7.33,0,3.12.19,6.25.02,9.36-.26,4.85-3.67,7.56-8.95,7.39-4.77-.16-7.62-3.04-7.63-7.85-.03-13.86-.01-27.72-.01-41.58.1,0,.2,0,.31,0Zm16.18-10.11h.03c0,4.61.03,9.22-.01,13.83-.02,2.15.77,3.17,3.09,3.09,4.11-.14,8.24.06,12.35-.1,4.04-.16,6.96-2.92,7.05-6.79.14-6.1.2-12.22-.02-18.32-.2-5.42-4.13-9.16-9.6-9.53-2.86-.2-5.73-.23-8.6-.34-2.98-.11-4.31,1.39-4.29,4.32.04,4.61,0,9.22,0,13.83Z"/>
      <path class="d" d="m254.9,582.47c0-14.1-.02-28.19,0-42.29.01-6.42,2.38-8.49,8.87-7.63,4.56.6,9.13,1.23,13.63,2.17,14.4,2.99,20.38,9.85,20.82,24.41.33,10.84.35,21.71.08,32.56-.29,11.75-6.44,17.63-18.13,18.47-10.01.72-9.28-.36-9.27,9.79,0,2.74.13,5.5-.1,8.23-.31,3.8-3.46,6.1-8.03,6.16-4.29.05-7.55-2.16-7.87-5.83-.31-3.59-.1-7.22-.1-10.84,0-11.73,0-23.45,0-35.18h.08Zm16.34,9.54c1.87,0,3.11.03,4.35,0,5.29-.15,5.77-.57,5.82-5.88.07-7.87.11-15.73.04-23.6-.06-6.75-3.08-9.22-10.2-8.38v37.86Z"/>
      <path class="d" d="m174.81,624.14c-3.09.35-6.14-.29-7.46-4.39-.21-.66-1.4-1.42-2.15-1.44-3.8-.08-7.62-1-9.87,4.02-1.66,3.69-11.61,3.86-14.17.57-1.01-1.29-1.54-3.49-1.3-5.13,3.5-24.24,7.18-48.45,10.78-72.68.86-5.79,1.53-11.6,2.34-17.39.79-5.66,2.15-6.88,7.93-7.34,7.74-.62,10.64,1.93,11.61,9.48,1.8,14.05,3.86,28.07,5.8,42.11,2.02,14.65,4.07,29.31,6.04,43.97.77,5.74-1.99,8.2-9.55,8.21Zm-12.27-60.82c-.24-.02-.47-.03-.71-.05-1.21,10.83-2.38,21.66-3.66,32.48-.38,3.22.75,5.17,4.07,5.21,3.48.05,3.93-2.34,3.64-5.13-1.12-10.84-2.23-21.67-3.35-32.51Z"/>
      <path class="d" d="m328.07,595.26c1.64-7.86,3.33-15.72,4.91-23.59,1.79-8.9,3.39-17.83,5.25-26.71,1.05-5.03,4.31-6.86,9.88-5.98,4.8.76,6.96,3.26,5.84,8.45-3.64,16.89-7.63,33.71-11.56,50.55-.73,3.15-1.54,6.32-2.72,9.32-3.14,7.95-3.71,16.18-3.43,24.61.26,7.63-5.49,11.66-12.73,9.11-2.81-.99-5.06-3.1-4.65-6.1,2.04-14.87-4.2-28.08-7.82-41.86-3.95-15.03-7.34-30.2-10.84-45.34-1.27-5.48.44-8.94,4.9-9.58,7.04-1.02,10.57.17,11.74,6.21,3.01,15.59,6.26,31.14,9.42,46.7.27,1.34.64,2.65.96,3.98l.84.24Z"/>
      <path class="d" d="m499.11,580.9c0-12.85,0-25.69,0-38.54,0-4.31,1.52-6.75,5.72-7.41,9.21-1.46,18.47-2.67,27.74-3.65,4.06-.43,6.08,1.91,6.21,6.1,0,.12,0,.25,0,.37.15,9.81-.98,11.06-10.72,12.25-3.09.38-6.25.69-9.18,1.63-1.25.4-2.76,2.29-2.86,3.6-.36,4.71-.13,9.47-.2,14.2-.03,2.51,1.29,3.72,3.61,3.83,2.49.12,4.99-.02,7.48-.01,4.01,0,6.09,1.74,6.43,5.66.18,2.09.21,4.25-.15,6.31-.51,2.99-2.39,4.83-5.57,5.16-1.36.14-2.71.43-4.06.64q-7.85,1.21-7.86,9c0,8.06.54,8.58,8.76,8.18,2.62-.13,5.24-.44,7.85-.42,4,.04,5.96,1.94,6.34,5.82.84,8.43-1.17,10.44-11.48,11.22-7.21.55-14.43,1-21.64,1.45-4.58.29-6.47-1.53-6.48-6.48-.05-12.97-.02-25.94-.02-38.92.02,0,.05,0,.07,0Z"/>
      <path class="d" d="m547.42,576.26c0-13.1,0-26.21,0-39.31,0-4.49,1.83-7.22,6.24-7.92,8.84-1.39,17.73-2.53,26.63-3.47,3.93-.42,6.24,2.05,6.36,6.11.25,8.6.99,12.62-10.97,13.49-2.23.16-4.44.68-6.67.86-3.84.32-5.52,2.41-5.49,6.15.04,4.49-.09,8.99.05,13.48.13,4.18,1.23,5.15,5.53,5.29,2,.06,4-.14,5.99,0,1.19.08,2.51.34,3.51.94,2.57,1.56,3.75,6.61,2.43,10.66-.95,2.92-2.84,4.98-6.26,4.93-.25,0-.5.03-.75.06-10.18,1.06-13.08,5.43-9.95,15.37.34,1.1,1.97,2.38,3.13,2.52,3.32.39,6.71.32,10.07.26,8.19-.13,12.71,7.02,8.53,14.12-1,1.69-3.73,3.26-5.72,3.32-8.72.26-17.47.1-26.2-.2-4.63-.16-6.39-2.17-6.42-6.98-.1-13.23-.03-26.46-.04-39.68Z"/>
      <path class="d" d="m122.01,323.39c-3.49-3.01-6.32-5.44-9.36-8.06,2.83-3.74,5.8-6.07,3.39-11.38-2.39-5.26-5.82-5.17-10.19-5.09v-12.27c4.15-.26,7.84-.09,10.04-5.61,2.12-5.31-.4-7.61-3.19-10.71,1.09-1.23,1.94-2.29,2.89-3.25,1.84-1.85,3.53-4.66,5.7-5.12,1.65-.35,3.94,2.3,6.07,3.7.98-.43,2.08-1.18,3.27-1.4,5.45-.98,8.85-3.63,7.99-10.02,3.53,0,6.63.09,9.73-.03,2.36-.09,3.16.99,2.92,3.16-.34,3.04,1,4.23,3.95,5.48,5.01,2.13,9.39,4.5,12.46-1.76,3.51,2.95,6.62,5.56,9.8,8.23-2.74,3.86-6.56,5.79-4.17,11.38,2.16,5.06,4.98,6.13,9.76,5.58v11.63c-3.56,1.3-7.68.44-9.7,5.78-1.99,5.24.67,7.48,3.54,10.68-2.23,2.64-4.18,5.41-6.64,7.58-.69.61-3.52-.03-4.34-.98-2.68-3.13-5.18-2.3-8.54-1.18-4.06,1.35-6.96,2.89-6.64,7.67.01.2-.21.42-.4.79-2.13.14-4.37.2-6.57.45-3.57.42-6.15-.06-5.92-4.65.04-.88-1.53-1.84-2.38-2.76-.07-.08-.24-.07-.35-.12-4.92-2.27-9.81-4.23-13.12,2.25Zm22.72-51.58c-10.65-.05-20.27,9.44-20.24,19.94.03,10.8,9.34,20.16,20.55,19.84,11.34-.32,19.63-8.5,19.78-19.78.15-10.86-9.3-20.13-20.09-20Z"/>
      <path class="d" d="m655.32,260.97c3.52,3.14,6.46,5.76,9.44,8.43-2.16,2.51-3.7,4.3-5.43,6.31,2.87,4.56,1.99,12.9,11.65,10.45v12.38c-3.83.53-7.75.1-9.91,5.44-2,4.92-.6,7.55,3.01,10.58-2.82,3.12-5.37,5.94-7.89,8.72-3.91-.89-5.45-6.85-10.88-3.71-3.53,2.05-8.11,2.39-6.86,8.49h-12.17c1.25-5.44-3.01-6.36-6.47-8.54-5.29-3.34-7.1,2.38-10.79,3.45-2.05-2.4-4.19-4.67-5.99-7.17-.47-.66-.3-2.63.28-3.06,4.93-3.67,1.05-7.34.17-10.98-.82-3.37-3.68-2.72-6.08-2.96-.6-.06-1.19-.17-2.01-.29v-12.06c4.71.56,7.28-1.19,9.42-5.84,2.38-5.17-.85-7.44-3.05-10.58,3-2.94,5.81-5.69,8.88-8.71,2.71,2.85,5.31,5,10.09,2.57,4.11-2.09,6.57-4.07,5.42-9.3,4.37-.2,8.27-.39,12.7-.6-.59,4.93.41,8,5.61,9.71,4.62,1.52,7.98,2.2,10.82-2.71Zm-2.64,31.1c.13-10.44-9.25-20.02-19.72-20.15-10.47-.12-20.48,9.19-20.09,19.61.41,10.97,7.88,19.43,19.71,20.02,10.79.54,19.96-8.71,20.09-19.48Z"/>
      <path class="d" d="m532.04,628.6c13.11,0,26.26-.64,39.32.15,18.51,1.12,37.01,2.88,55.43,5.12,16.28,1.98,32.44,4.95,48.65,7.55,2.2.35,4.39.95,6.49,1.69,3.27,1.16,3.49,2.83.69,4.98-1.17.89-2.56,1.55-3.94,2.1-12.01,4.79-24.16,4.42-36.75,2.17-21.93-3.91-43.94-7.66-66.06-10.14-23.41-2.62-47-3.67-70.51-5.4-.5-.04-1.02.02-1.49-.1-2.32-.58-5.02-1.12-4.87-4.16.14-2.79,2.27-4.02,4.98-4.02,9.36-.02,18.72,0,28.08,0,0,.02,0,.03,0,.05Z"/>
      <path class="d" d="m387.29,522.89c-10.37,0-20.76.42-31.1-.08-22.91-1.11-45.84-2.28-68.46-6.57-1.22-.23-2.57-.3-3.6-.9-1.15-.66-2.01-1.84-3-2.79,1.1-.87,2.12-2.34,3.32-2.5,3.44-.46,6.96-.53,10.45-.51,50.2.25,100.41.61,150.61.78,13.34.05,26.69-.48,40.03-.66,1.97-.03,4,.26,5.89.8,1.04.29,1.84,1.41,2.75,2.15-.86.82-1.59,2-2.61,2.38-2.32.85-4.76,1.6-7.21,1.85-18.37,1.89-36.71,4.15-55.13,5.27-13.93.84-27.95.17-41.94.17v.61Z"/>
      <path class="d" d="m112.85,655.29c-7.9-2.1-15.83-4.1-23.66-6.42-1.37-.41-2.31-2.22-3.45-3.38,1.33-.96,2.55-2.49,4.02-2.78,12.79-2.55,25.57-5.19,38.45-7.18,13.13-2.03,26.37-3.48,39.58-4.95,7.64-.85,15.33-1.5,23.01-1.81,11.22-.46,22.45-.64,33.68-.72,5.35-.04,10.7.34,16.05.69,2.41.16,5.12.77,5.24,3.71.13,3.37-2.7,4.13-5.42,4.39-8.2.78-16.43,1.25-24.61,2.23-16.44,1.98-32.9,3.91-49.26,6.44-15.23,2.35-30.35,5.46-45.53,8.16-2.56.46-5.19.56-7.79.82l-.3.81Z"/>
      <path class="d" d="m594.66,573.17c0-14.23-.02-28.46.01-42.7.02-6.86,6.9-11.06,13.14-8,2.84,1.39,3.43,3.92,3.42,6.9-.07,22.47-.04,44.94-.04,67.42,0,2.12.1,4.25-.02,6.37-.14,2.56,1.04,3.69,3.51,3.7,3.25.01,6.5-.01,9.75.04,4.75.08,6.86,2.1,7.11,6.73.49,9.06.42,12.18-11.09,11.2-5.97-.51-11.98-.54-17.97-.73-6-.19-7.88-1.95-7.9-7.85-.04-14.36-.01-28.71-.01-43.07.03,0,.06,0,.09,0Z"/>
      <path class="d" d="m575.32,480.63c12.49,4.48,22.82,1.07,33.05-3.78,8.07-3.82,16.5-6.15,25.65-5.57,11.44.72,21.49,8.72,24.02,19.61,1.22,5.24-.83,10.03-5.84,11.75-4.44,1.53-9.2,2.15-13.82,3.17l-.41-1.28c.68-.63,1.41-1.21,2.02-1.89,3.28-3.67,3.98-8.84,1.72-12.43-2.53-4.04-8.2-6.43-12.71-4.71-2.95,1.13-5.76,2.95-8.23,4.96-6.42,5.22-12.73,10.88-21.32,11.66-7,.64-14.11.13-21.17.04-2.24-.03-3.14-1.12-3.04-3.61.24-5.69.08-11.4.08-17.93Z"/>
      <path class="d" d="m199.03,481.64c.37,5.82.84,12.01,1.08,18.2.03.69-1.11,1.92-1.87,2.07-13.23,2.52-25.77,1.84-36.79-7.33-4.15-3.46-8.64-6.87-13.54-8.96-5.18-2.21-11.12.84-13.28,5.37-2,4.2-.45,9.14,4.05,12.84.35.29.74.53,1.74,1.24-6.54.15-12.27-.33-17.54-3.15-4.76-2.54-6.06-9.78-2.93-15.98,4.55-9.02,12.16-13.64,22.03-14.59,8.9-.86,17.24,1.4,25.43,4.8,6.17,2.56,12.5,4.98,19,6.38,3.78.82,8.03-.49,12.62-.89Z"/>
      <path class="d" d="m110.79,373.93c-8.77-.07-14.59-4.7-18.28-12.13-3.13-6.29-.25-12.83,6.67-15.37,7.04-2.59,14.39-3.08,21.69-1.38,2.58.6,5.44,1.79,7.23,3.62,4.33,4.44,8.39,9.22,12,14.26,3.17,4.42,2.08,6.29-3.13,7.08-7.37,1.12-14.73,2.34-22.11,3.48-1.35.21-2.72.29-4.08.43Zm17.21-11.34c-2.22-2.06-3.56-3.33-4.93-4.56-5.24-4.69-11.38-5.79-18.09-4.39-3.84.8-4.53,2.44-2.49,5.76,2.32,3.78,5.93,5.25,10.15,4.95,4.78-.34,9.54-1.07,15.36-1.76Z"/>
      <path class="d" d="m633.73,368.24c1.25-2.45,2.32-5.01,3.79-7.31,1.53-2.41,3.62-4.46,5.17-6.86,7.91-12.21,23.53-11.35,33.66-7.26,6.19,2.5,8.43,8.84,5.59,14.9-3.52,7.53-9.64,12.34-17.89,11.95-9.86-.47-19.65-2.49-29.48-3.84-.28-.52-.57-1.05-.85-1.57Zm14.5-5.22c5.72.42,10.78.9,15.86,1.11,3.56.14,6.13-1.8,7.93-4.75,1.84-3.02,1.03-4.85-2.41-5.67-7.96-1.88-15.96,1.35-21.37,9.31Z"/>
      <path class="d" d="m327.35,177.93h-31.1c.78-7.43,3.91-13.32,10.06-17.09,1.84-1.13,2.03-2.17,2.04-3.74.04-7.24.04-14.48.06-21.72,0-1-.33-2.18.09-2.96.79-1.49,1.86-3.69,3.09-3.89,2.21-.36,3.42,1.54,3.4,3.89-.02,4-.01,7.99-.02,11.99,0,2.5.06,5-.03,7.49-.15,4.33-.25,7.98,4.58,10.87,5.03,3.02,6.75,8.97,7.83,15.16Z"/>
      <path class="d" d="m99.16,463.1c-3.87,0-7.75.24-11.58-.13-1.3-.12-3.26-1.6-3.5-2.77-.48-2.24,1.34-3.19,3.53-3.19,7.98,0,15.96-.14,23.94.09,1.3.04,2.55,1.69,3.82,2.6-1.29,1.15-2.48,3.13-3.88,3.28-4.06.44-8.21.16-12.32.16,0-.01,0-.03,0-.04Z"/>
      <path class="d" d="m674.35,457c3.74,0,7.49-.22,11.2.12,1.2.11,2.26,1.68,3.38,2.58-1.06,1.17-2.08,3.32-3.18,3.36-7.33.28-14.68.16-22.02.06-2.31-.03-3.79-1.28-3.67-3.74.13-2.47,2.05-2.42,3.84-2.42,3.49,0,6.97,0,10.46,0,0,.01,0,.03,0,.04Z"/>
      <path class="d" d="m482.97,355.78c-2.74-14.12-9.46-24.72-25.15-25.8-8.59-.59-16.19,2.25-21.07,10.09,4.3-1.23,8.51-2.43,13.61-3.88-2.11,7.6-1.6,13.57,3.68,17.96,5.29,4.41,11.25,3.91,17.13.88,1.98,8.68-4.4,17.67-14.14,20.27-10.08,2.69-20.55-2.71-24.27-12.5q-1.47-3.87-6.12-3.49v5.98h-77.67c-.12-2.09-.23-4.02-.34-5.9-3.32-.95-5.03-.3-6.31,3.13-3.13,8.42-12.08,13.97-20.61,13.5-8.66-.48-15.7-5.8-18.08-13.86-.62-2.1-.73-4.36-1.19-7.29,6.6,3.09,12.65,3.62,17.99-.84,5.33-4.45,5.64-10.5,3.94-17.19,5.52-.59,9.77,1.38,13.86,4.39-1.87-6.82-10.89-11.6-21.37-11.53-12.72.09-20.73,8.24-25.24,26.07-1.55,0-3.25.03-4.95,0-9.86-.17-19.72-.31-29.58-.56-3-.08-4.31-1.38-3.01-4.6,6.19-15.37,11.68-31.06,18.59-46.1,6.15-13.39,17.39-20.85,32.37-22.06,5.78-.47,11.57-.88,17.48-1.33-3.66,3.97-6.93,7.6-10.3,11.12-1.81,1.89-3.9,3.52-5.68,5.43-2.2,2.37-2.25,5.47-.24,7.37,2.28,2.16,4.68,1.61,6.69-.28,7.02-6.57,13.96-13.22,20.84-19.93.92-.89,1.29-2.34,2.07-3.83,2.53,0,5.27,0,8.01,0,34.61,0,69.23-.22,103.84.16,10.15.11,20.43,1.18,30.39,3.11,11.21,2.17,19.22,9.77,24.08,19.77,5.65,11.64,10.21,23.81,15.16,35.78,1.43,3.45,2.6,7.01,3.79,10.56,1.21,3.61.69,4.67-3.1,4.83-8.98.36-17.98.42-26.97.57-2.62.04-5.24,0-8.11,0Zm-188.19-44.76c-3.6,0-6.75,3.12-6.67,6.63.07,2.95,2.51,5.29,5.58,5.35,3.52.06,6.43-2.71,6.54-6.23.1-3.31-2.2-5.74-5.45-5.75Z"/>
      <path class="d" d="m282.77,410.62c.07,11.54-10.18,22.35-21.24,22.41-12.38.06-22.86-10.28-22.8-22.51.05-10.86,10.44-20.62,22.04-20.7,12.11-.09,21.94,9.2,22.01,20.8Zm-21.73,17.91c8.29.12,15.28-6.38,15.57-14.47.28-8.13-6.97-15.43-15.45-15.54-8.34-.12-15.58,6.68-15.73,14.78-.16,8.26,6.87,15.11,15.62,15.24Z"/>
      <path class="d" d="m536.23,410.64c-.07,12.44-10.07,22.49-22.3,22.4-11.2-.08-21.77-10.9-21.63-22.14.14-11.33,10.12-21.09,21.56-21.09,12.43,0,22.44,9.31,22.37,20.82Zm-21.69-12.15c-8.47-.06-15.79,6.96-15.8,15.18-.01,8.35,7.06,15,15.93,14.98,8.43-.02,15.22-6.7,15.42-15.17.19-7.98-7.01-14.92-15.54-14.98Z"/>
    </g>
  </g>
</svg>